<svg xmlns="http://www.w3.org/2000/svg" width="176" height="14" viewBox="0 0 176 14"><path d="M27 11.173c-2.226 0-3.826-1.56-3.826-4.153 0-2.592 1.6-4.31 3.826-4.31s3.826 1.718 3.826 4.31c0 2.592-1.6 4.153-3.826 4.153zM27 0c-3.967 0-7 2.642-7 7.02C20 11.4 23.033 14 27 14s7-2.6 7-6.98C34 2.642 30.967 0 27 0zM6.052 2.922c-.4-.285-.86-.386-1.563-.386H3.225V6.29H4.49c.702 0 1.163-.102 1.563-.386.38-.284.662-.79.662-1.5s-.28-1.198-.662-1.482zM8.557 7.77c-.922.77-2.184 1.055-3.607 1.055H3.247V14H0V0h4.95c1.423 0 2.685.284 3.607 1.055C9.48 1.825 10 2.902 10 4.403S9.48 6.98 8.557 7.77zm42.495-4.848c-.4-.285-.86-.386-1.563-.386h-1.264V6.29h1.263c.7 0 1.16-.102 1.562-.386.38-.284.66-.79.66-1.5s-.28-1.198-.66-1.482zm2.505 4.85c-.922.77-2.184 1.054-3.607 1.054h-1.703V14H45V0h4.95c1.423 0 2.685.284 3.607 1.055C54.48 1.825 55 2.902 55 4.403s-.52 2.577-1.443 3.368zm19.864 5.104c-.954.77-2.202 1.124-3.644 1.124-1.95 0-3.685-1.025-4.776-2.05l1.56-2.327c.974 1.025 2.475 1.715 3.508 1.715 1.014 0 1.793-.493 1.793-1.4 0-.927-.993-1.282-1.577-1.5-.585-.216-1.6-.57-2.047-.767-.332-.157-1.014-.414-1.6-.985-.583-.553-1.05-1.34-1.05-2.623 0-1.302.623-2.327 1.402-2.977C67.748.435 68.976 0 70.536 0s3.353.75 4.27 1.676L73.46 3.904c-.78-.79-1.988-1.38-3.002-1.38-1.014 0-1.754.394-1.754 1.222 0 .83.76 1.144 1.364 1.38.585.237 1.58.592 2.008.77.37.138 1.267.493 1.87 1.104C74.514 7.572 75 8.4 75 9.623a4.137 4.137 0 0 1-1.58 3.253M96 8.03c0 1.936-.324 3.274-1.256 4.332C93.83 13.402 92.404 14 90.5 14c-1.922 0-3.33-.6-4.263-1.638C85.324 11.304 85 9.966 85 8.03V0h3.102v8.03c0 .977.076 1.736.514 2.295.42.52 1.028.86 1.884.86.857 0 1.466-.34 1.884-.86.438-.56.514-1.318.514-2.296V0H96v8.03m24 3.646c-.683.61-2.284 2.324-5.992 2.324-3.73 0-7.008-2.48-7.008-7.01S110.28 0 114.046 0c3.573 0 5.115 1.89 5.544 2.363l-2.09 1.83c-.566-.63-1.62-1.554-3.455-1.554-2.166 0-3.845 1.593-3.845 4.35 0 2.757 1.718 4.352 3.904 4.352s2.81-.867 2.81-.867V8.467h-2.83V6.045H120v5.63m19.67-3.044l-1.75-5.024-1.75 5.025h3.5zM145 14h-3.582l-.996-2.816h-5.006L134.42 14H131l5.29-14h3.42L145 14zm16.205-11.098c-.402-.305-.926-.366-1.67-.366h-1.29v3.592h1.29c.744 0 1.268-.082 1.67-.386.424-.305.706-.69.706-1.42 0-.71-.28-1.116-.705-1.42zM166 14h-3.787l-2.92-5.356h-1.03V14H155V0h4.997c1.55 0 2.76.324 3.667.994.926.69 1.532 1.806 1.532 3.206 0 2.658-1.693 3.693-2.72 4.017L166 14zm10-2.5a2.5 2.5 0 1 1-5 0 2.5 2.5 0 0 1 5 0" fill="#BACBD6" fill-rule="evenodd"/></svg>