<svg xmlns="http://www.w3.org/2000/svg" width="129" height="32" viewBox="0 0 129 32"><g fill="none" fill-rule="evenodd"><path fill="#BACBD6" d="M128.5 15l-.183-.003c-.417-1.316-.415-2.638-.04-3.963L128.5 11v4zm-68.724 7.66v-7.612c0-1.148.018-2.295-.01-3.442-.01-.42.12-.54.526-.522.68.03 1.363.042 2.04-.003.522-.033.668.126.663.664-.028 2.897-.013 5.794-.013 8.69 0 3.557-.02 7.114.018 10.67.007.697-.197.892-.846.825-.757-.08-1.696.286-2.234-.144-.49-.392-.567-1.32-.81-2.02-1.152-3.313-2.297-6.63-3.456-9.944-.058-.167-.052-.397-.33-.51v8.787c0 1.032-.025 2.065.01 3.096.016.52-.07.786-.676.737-.813-.067-1.887.267-2.38-.145-.52-.43-.15-1.556-.153-2.376-.014-5.85.005-11.702-.025-17.553-.004-.66.17-.84.793-.778.842.085 1.886-.323 2.483.153.548.438.63 1.477.913 2.253l3.155 8.688c.063.173.135.342.203.512l.128-.028M25 31.98c-1.13 0-2.142-.027-3.15.012-.504.02-.71-.125-.853-.616-.71-2.435-1.51-4.844-2.195-7.285-.318-1.136-1.154-.493-1.738-.565-.612-.075-.306.514-.31.776-.03 2.337-.034 4.675-.004 7.01.006.52-.11.718-.68.683a17.81 17.81 0 0 0-2.406.002c-.602.044-.657-.202-.656-.69.015-6.55.01-13.098.015-19.647 0-.274-.17-.654.41-.645 2.02.03 4.05-.084 6.06.068 2.9.22 4.362 1.63 4.827 4.43.247 1.49.225 2.988-.228 4.453-.307.995-.824 1.862-1.77 2.4-.41.234-.384.452-.253.838.983 2.89 1.936 5.79 2.93 8.78M96.022 21.48c0-3.202.028-6.404-.022-9.605-.01-.755.216-.924.9-.86.682.06 1.376.05 2.06 0 .55-.04.66.163.654.682-.028 2.394.02 4.79-.032 7.182-.016.715.22.864.856.82.74-.053 1.49-.054 2.23 0 .59.044.768-.117.758-.74-.04-2.422-.002-4.846-.03-7.268-.004-.512.088-.72.646-.678.77.055 1.547.054 2.316 0 .572-.04.642.197.64.694-.014 6.52-.015 13.038.002 19.556 0 .54-.097.775-.69.73-.74-.054-1.492-.058-2.23.002-.604.05-.687-.2-.68-.728.023-2.566-.02-5.134.03-7.7.01-.68-.198-.822-.81-.777-.74.053-1.49.055-2.23 0-.625-.05-.82.11-.807.782.046 2.566.002 5.134.03 7.7.008.56-.127.762-.703.72a14.603 14.603 0 0 0-2.144 0c-.586.044-.767-.11-.76-.736.034-3.26.016-6.52.016-9.778m-4.42 8.626c-1.305 1.605-2.867 2.12-4.698 1.81-2.264-.38-3.833-2.178-3.864-4.53-.05-3.91-.056-7.82 0-11.73.04-2.54 1.983-4.428 4.59-4.63 3.165-.242 5.44 1.27 6.03 4 .172.8.147 1.61.162 2.42.007.363-.118.49-.496.482a42.395 42.395 0 0 0-2.53.003c-.426.015-.473-.2-.47-.507.006-.76-.08-1.508-.334-2.226-.284-.803-.927-1.185-1.814-1.133-.832.048-1.244.55-1.4 1.26-.093.434-.112.887-.113 1.33-.01 3.27-.007 6.537-.002 9.806 0 .362.003.73.066 1.085.16.904.69 1.353 1.572 1.384 1 .034 1.636-.39 1.868-1.286.27-1.043.158-2.11.186-3.17.01-.4-.268-.332-.526-.355-.594-.05-1.374.272-1.736-.154-.345-.407-.002-1.133-.056-1.707-.065-.693.143-.898.884-.866 1.48.064 2.965.038 4.448.008.494-.01.633.13.63.606a778.494 778.494 0 0 0-.003 9.05c.002.402-.075.535-.55.608-1.153.177-1.617-.404-1.846-1.562m-83.054.076C7.328 31.67 5.806 32.2 4 31.934c-2.294-.34-3.925-2.15-3.958-4.537-.055-3.91-.056-7.822-.002-11.733.036-2.542 1.97-4.43 4.58-4.637 3.195-.254 5.487 1.296 6.05 4.07.158.777.12 1.557.154 2.337.02.445-.2.5-.576.492-.784-.017-1.57-.036-2.354.007-.495.026-.582-.186-.575-.583a5.973 5.973 0 0 0-.305-2.062c-.302-.88-.9-1.275-1.827-1.223-.782.044-1.302.523-1.457 1.412-.07.41-.066.835-.067 1.253-.005 3.213-.005 6.425 0 9.638 0 .39 0 .786.064 1.17.156.906.685 1.36 1.565 1.394 1 .04 1.642-.386 1.875-1.276.274-1.043.16-2.11.19-3.17.01-.394-.25-.345-.517-.365-.596-.044-1.375.27-1.74-.145-.353-.4.01-1.135-.065-1.703-.105-.803.26-.896.964-.872 1.45.048 2.906.032 4.36.004.48-.01.644.105.64.596a599.707 599.707 0 0 0 0 9.05c.003.482-.178.526-.628.62-1.25.26-1.483-.613-1.826-1.49m31.468-8.804c0-3.218.012-6.437-.01-9.655-.005-.534.095-.728.68-.72 2.702.036 5.406.03 8.108.003.547-.006.772.12.71.703-.083.793.33 1.855-.17 2.312-.43.393-1.46.122-2.226.13-.967.01-1.935.023-2.9-.007-.46-.014-.657.085-.645.605a87.79 87.79 0 0 1 0 4.31c-.013.52.18.607.633.595 1.137-.028 2.276.008 3.414-.018.414-.01.55.123.528.537-.043.826.248 1.882-.154 2.42-.38.507-1.485.098-2.27.158-.7.053-1.63-.32-2.034.155-.34.4-.098 1.314-.1 2-.007 1.063.024 2.127-.014 3.19-.02.524.125.687.66.675 1.68-.036 3.358.005 5.036-.024.494-.01.72.072.675.642-.062.797.26 1.84-.13 2.336-.41.52-1.487.15-2.27.16-2.277.022-4.553-.01-6.83.02-.545.007-.708-.125-.703-.698.03-3.276.014-6.552.014-9.828m-13.012-9.66c-.004-.54.108-.723.685-.716 2.7.034 5.403.03 8.104.002.555-.006.767.132.706.707-.083.79.334 1.852-.17 2.308-.434.392-1.462.12-2.227.128-.968.01-1.936.025-2.9-.007-.466-.017-.653.092-.64.607a87.36 87.36 0 0 1-.002 4.31c-.014.525.19.6.636.59 1.11-.027 2.22.017 3.327-.02.497-.017.642.146.61.63-.05.797.247 1.847-.15 2.33-.416.5-1.49.116-2.277.152-.677.03-1.577-.23-1.977.116-.47.406-.127 1.342-.147 2.047-.03 1.062.02 2.126-.02 3.188-.02.53.135.684.664.673 1.706-.035 3.412 0 5.12-.022.424-.005.61.08.58.558-.048.827.274 1.91-.132 2.418-.426.534-1.54.15-2.353.16-2.248.023-4.494-.012-6.74.02-.554.01-.705-.136-.7-.702.028-3.275.014-6.55.014-9.825 0-3.218.012-6.436-.012-9.653zm89.358 11.336c0 2.743-.017 5.485.014 8.227.007.57-.154.75-.743.71a15.882 15.882 0 0 0-2.24.003c-.624.047-.79-.13-.786-.745.03-5.08.016-10.16.016-15.24 0-1.846 0-1.846-1.875-1.846-1.745 0-1.745 0-1.745-1.703 0-1.446 0-1.446 1.47-1.446 2.93 0 5.86.016 8.79-.014.584-.006.782.138.73.708a9.965 9.965 0 0 0 .002 1.817c.054.567-.18.677-.706.647-.745-.04-1.497.026-2.24-.022-.564-.037-.703.148-.698.676.026 2.742.012 5.484.012 8.226m-50.347-1.59c0-3.25.014-6.5-.013-9.75-.005-.564.134-.746.68-.705.69.05 1.387.052 2.076 0 .577-.045.74.135.736.75-.03 3.882-.015 7.766-.015 11.65 0 1.58.018 3.164-.01 4.746-.008.49.13.638.604.628 1.414-.03 2.827.01 4.24-.02.468-.01.65.13.604.626-.074.824.33 1.896-.166 2.404-.386.394-1.42.112-2.168.114-1.967.006-3.934-.02-5.9.016-.544.01-.685-.142-.68-.705.027-3.25.013-6.502.013-9.752m10.004.04c0-3.22.018-6.44-.017-9.657-.006-.602.146-.812.806-.746 1.003.1 2.355-.397 2.925.196.498.517.154 1.746.154 2.66.005 5.748-.01 11.495.02 17.243.005.657-.18.844-.87.792a16.468 16.468 0 0 0-2.32 0c-.577.036-.717-.128-.712-.66.03-3.278.015-6.554.015-9.83M34.997 4.275c.594-1.327 1.176-2.53 1.666-3.774.222-.56.593-.515 1-.484.52.04.282.478.285.73.02 1.867 0 3.736.02 5.604.005.456-.074.65-.575.65-.517 0-.498-.272-.495-.643.01-1.17.004-2.34-.143-3.568-.345.757-.674 1.522-1.042 2.268-.146.297-.172.704-.697.705-.508 0-.573-.356-.725-.674-.36-.753-.71-1.51-1.22-2.225 0 1.163-.007 2.325.006 3.488.004.38.006.64-.503.647-.53.006-.57-.24-.567-.674.016-1.897.003-3.794.012-5.692 0-.25-.136-.63.332-.62.338.007.696-.117.902.37.54 1.28 1.133 2.536 1.746 3.89M16.01 3.503c0-.95.023-1.902-.01-2.852-.013-.447.06-.67.653-.65 1.24.045 2.483.026 3.724.008.415-.007.625.043.623.5-.002.47-.246.5-.645.493-.827-.014-1.657.024-2.483-.013-.555-.024-.755.158-.686.644.03.2.034.408 0 .605-.107.604.144.82.823.76.6-.056 1.21.01 1.813-.02.44-.022.606.078.602.514-.003.442-.198.535-.625.508-.412-.026-.827-.006-1.24-.006-1.32 0-1.736.54-1.373 1.73.103.332.35.28.59.28.89.008 1.783.02 2.674-.002.42-.01.546.123.544.496-.003.355-.08.51-.52.5A90.427 90.427 0 0 0 16.556 7c-.506.013-.562-.185-.553-.56.022-.98.007-1.958.007-2.937M2.368.003c.742-.01 1.297.043 1.77.34.206.13.73.188.42.625-.19.267-.406.634-.887.257-.393-.307-.913-.35-1.412-.278-.578.084-.976.414-1.003.993-.025.525.35.806.853.91.48.097.967.163 1.446.263.878.183 1.34.753 1.43 1.59.09.825-.202 1.526-.99 1.904C2.76 7.2 1.53 7.11.36 6.414.186 6.31-.204 6.168.132 5.86c.214-.198.36-.66.817-.32.615.457 1.316.558 2.053.395.533-.117.882-.43.868-1.002-.013-.583-.4-.838-.935-.933-.312-.055-.632-.073-.944-.13C.657 3.616.08 2.963.17 1.827.26.77 1.064.078 2.29.003c.088-.006.175 0 .077 0M29 6.872c-.837.3-1.313.077-1.456-.766-.065-.384-.29-.57-.727-.522-.4.046-.814.053-1.212 0-.71-.093-1.103.14-1.274.864-.133.57-.197.554-1.33.474l1.593-4.318c.267-.724.55-1.443.792-2.176.11-.33.286-.444.627-.43.283.014.47.05.585.363.79 2.173 1.6 4.34 2.403 6.51M10.54.06c.667 0 1.333.01 2-.002.316-.006.477.08.46.432-.018.306-.006.547-.44.558-.478.012-1.164-.24-1.383.128-.243.407-.1 1.044-.103 1.582-.007 1.225-.023 2.45.01 3.675.01.473-.173.56-.604.567-.457.006-.593-.136-.585-.584.026-1.538-.015-3.078.023-4.616.013-.563-.09-.788-.736-.795C8.795 1 8.015 1.488 8 .557c-.014-.936.754-.39 1.155-.475.443-.093.922-.02 1.386-.02"/><path fill="#BACBD6" d="M127.965 11.02l.035 3.943c-.298.075-.535.08-.516-.416.02-.55.005-1.103.005-1.83-.16.232-.22.32-.28.41-.24.385-.183 1.157-.7 1.13-.465-.026-.43-.78-.686-1.158-.055-.083-.037-.267-.25-.225 0 .518.012 1.044-.004 1.568-.007.214.122.54-.247.554-.322.012-.322-.24-.322-.505.004-.978 0-1.956.005-2.934 0-.206-.057-.467.208-.533.25-.063.406.08.508.34.244.62.495 1.236.81 2.024.277-.7.513-1.25.714-1.82.14-.393.324-.646.72-.55"/><path fill="#BACBD6" d="M123.1 13.26c0-.314-.018-.63.003-.943.032-.464-.026-.823-.676-.737-.193.025-.414.028-.426-.252-.013-.324.22-.33.468-.328.703.003 1.407 0 2.11.003.208 0 .412.026.422.287.01.27-.206.318-.402.287-.857-.138-.793.377-.777.903.022.69.007 1.383.005 2.075 0 .217.034.45-.33.445-.315-.003-.4-.16-.396-.42.005-.44 0-.88 0-1.32"/><path fill="#FFF" d="M21 18.098c-.205 1.306-.88 1.79-2.44 1.872-1.56.083-1.56.083-1.56-1.243v-1.735c0-.84-.002-1.683.004-2.524.002-.197-.07-.46.312-.457.846.008 1.705-.096 2.517.218.576.222.876.635 1.038 1.132M27 5h-2c.27-1.004.58-1.96 1.026-3L27 5"/></g></svg>