<svg xmlns="http://www.w3.org/2000/svg" width="197" height="46" viewBox="0 0 197 46"><g fill="none" fill-rule="evenodd"><path fill="#BACBD6" d="M46 23c0 12.703-10.297 23-23 23S0 35.703 0 23 10.297 0 23 0s23 10.297 23 23"/><path fill="#FFF" d="M26.02 22.5h-6.46v-6.9h6.46c1.89 0 3.42 1.545 3.42 3.45 0 1.905-1.53 3.45-3.42 3.45m0-11.5H15v23h4.56v-6.9h6.46c4.407 0 7.98-3.604 7.98-8.05 0-4.446-3.573-8.05-7.98-8.05"/><path fill="#BACBD6" d="M69.755 19.75c0-1.238-.965-1.99-2.217-1.99H64.18v3.956h3.358c1.252 0 2.217-.75 2.217-1.966zM61 30V15h6.985C71.232 15 73 17.165 73 19.75c0 2.562-1.79 4.727-5.015 4.727H64.18V30H61zm15 0V19.26h2.71v1.41C79.458 19.76 80.72 19 82 19v2.69a3.433 3.433 0 0 0-.748-.065c-.897 0-2.093.52-2.542 1.194V30H76zm15.9-5.51c0-1.628-1.034-3.04-2.91-3.04-1.858 0-2.89 1.41-2.89 3.04 0 1.65 1.032 3.058 2.89 3.058 1.876 0 2.91-1.41 2.91-3.06m-8.9 0C83 21.52 85.254 19 88.99 19c3.756 0 6.01 2.517 6.01 5.49S92.746 30 88.99 30C85.253 30 83 27.46 83 24.49m21.132 1.798V22.51c-.47-.706-1.5-1.214-2.442-1.214-1.635 0-2.755 1.26-2.755 3.093 0 1.854 1.12 3.113 2.755 3.113.94 0 1.972-.508 2.442-1.215zm0 3.712v-1.635c-.852 1.06-2.015 1.635-3.338 1.635C98.084 30 96 27.968 96 24.39c0-3.47 2.04-5.59 4.794-5.59 1.277 0 2.486.53 3.338 1.634V15H107v15h-2.868zm13.064 0v-1.622A5.053 5.053 0 0 1 113.444 30c-2.34 0-3.444-1.29-3.444-3.378V19h2.803v6.51c0 1.49.772 1.98 1.964 1.98 1.082 0 1.943-.6 2.43-1.224V19H120v11h-2.804zM122 24.49c0-3.21 2.415-5.49 5.727-5.49 2.215 0 3.557.933 4.273 1.888l-1.858 1.69c-.514-.736-1.297-1.127-2.28-1.127-1.724 0-2.93 1.217-2.93 3.04 0 1.82 1.206 3.058 2.93 3.058.983 0 1.766-.434 2.28-1.15L132 28.09c-.716.955-2.058 1.91-4.273 1.91-3.312 0-5.727-2.278-5.727-5.51m12.74 3.54v-5.604H133v-2.48h1.74V17h2.76v2.947h2.13v2.48h-2.13v4.844c0 .693.347 1.206.956 1.206.413 0 .806-.156.956-.334l.588 2.165c-.412.38-1.153.693-2.305.693-1.935 0-2.956-1.027-2.956-2.97M158.662 30v-6.473h-7.35V30H148V15h3.312v5.788h7.35V15H162v15zm13.533 0v-1.622A5.053 5.053 0 0 1 168.444 30c-2.34 0-3.444-1.29-3.444-3.378V19h2.803v6.51c0 1.49.772 1.98 1.964 1.98 1.082 0 1.943-.6 2.43-1.224V19H175v11h-2.804zm12.984 0v-6.596c0-1.454-.77-1.953-1.96-1.953-1.102 0-1.938.61-2.423 1.217V30H178V19.26h2.797v1.345c.683-.78 2.005-1.605 3.723-1.605 2.357 0 3.48 1.3 3.48 3.34V30h-2.82zm6.56-1.97v-5.604H190v-2.48h1.74V17h2.76v2.947h2.13v2.48h-2.13v4.844c0 .693.347 1.206.956 1.206.413 0 .806-.156.958-.334l.586 2.165c-.413.38-1.153.693-2.305.693-1.935 0-2.956-1.027-2.956-2.97"/></g></svg>