<svg xmlns="http://www.w3.org/2000/svg" width="155" height="22" viewBox="0 0 155 22"><path d="M10.575 0c2.838 0 7.917 1.205 7.917 4.61v2.08h-2.748V5.485c0-1.778-2.988-2.682-5.11-2.682-4.24 0-7.527 3.224-7.527 8.016 0 4.64 3.316 8.348 7.618 8.348 4.182 0 6.662-2.893 6.662-2.893L19 18.443S16.012 22 10.695 22C4.392 22 0 17.088 0 10.82 0 4.67 4.54 0 10.575 0M21.85 9.243c0-.463-.235-.68-.646-.68H20V6h2.79c1.35 0 1.908.587 1.908 1.915v7.413c0 2.162.41 3.892 2.76 3.892 3.053 0 4.844-2.81 4.844-5.9V6h2.848v12.386c0 .463.235.68.646.68H37v2.563h-2.73c-1.263 0-1.88-.618-1.88-1.73v-.587c0-.495.03-.896.03-.896h-.06C31.745 19.96 29.837 22 26.9 22c-3.347 0-5.05-1.853-5.05-5.993V9.243zm18.845-6.12c0-.446-.215-.654-.592-.654H39V0h2.583c1.21 0 1.722.565 1.722 1.904v15.973c0 .446.215.654.592.654H45V21h-2.583c-1.21 0-1.722-.565-1.722-1.904V3.123zm7.332 5.23H46V6.07h2.09V2h2.917v4.07h3.716v2.283h-3.716v6.792c0 2.957 2.15 3.337 3.286 3.337.43 0 .707-.058.707-.058v2.517s-.4.06-1.045.06c-1.965 0-5.928-.585-5.928-5.533V8.353zm24.958 11.11c2.82 0 5.108-2.293 5.108-5.493 0-3.17-2.29-5.434-5.108-5.434-2.788 0-5.078 2.264-5.078 5.434 0 3.2 2.29 5.494 5.078 5.494m0-13.464C77.418 6 81 9.35 81 13.97c0 4.65-3.582 8.03-8.015 8.03C68.552 22 65 18.62 65 13.97 65 9.35 68.552 6 72.985 6m10.747 2.36H82V6.054h1.732v-.502C83.732.62 87.222 0 88.982 0 89.59 0 90 .09 90 .09v2.45s-.275-.06-.687-.06c-1.045 0-2.914.356-2.914 3.132v.443h3.298V8.36h-3.3V21h-2.666V8.36zM99 18.44h1c.41 0 .616-.238.645-.655L102.055 0h3.026l4.877 11.124c.5 1.13 1.028 2.648 1.028 2.648h.06s.528-1.517 1.027-2.648L116.95 0h3.025l1.41 17.787c.03.417.235.655.647.655H123V21h-2.614c-1.322 0-1.792-.565-1.88-1.904L117.654 8c-.088-1.248-.06-3.092-.06-3.092h-.058S116.95 6.87 116.45 8l-4.2 9.22h-2.468l-4.2-9.22c-.5-1.1-1.117-3.123-1.117-3.123h-.06s.03 1.874-.058 3.123l-.822 11.095c-.088 1.34-.558 1.904-1.91 1.904H99v-2.56zm31.548 1.203c2.358 0 3.88-2.596 3.88-4.86v-.513h-.717c-2.1 0-5.893.12-5.893 2.928 0 1.238.89 2.445 2.73 2.445m3.22-7.517h.633v-.15c0-2.687-.948-3.653-3.22-3.653-.69 0-2.385.18-2.385 1.177v.875h-2.616v-1.51c0-2.504 3.62-2.867 5.03-2.867 4.714 0 5.98 2.596 5.98 5.978v6.49c0 .453.23.664.63.664H139v2.506h-2.616c-1.293 0-1.81-.665-1.81-1.75 0-.515.056-.907.056-.907h-.057s-1.15 3.02-4.628 3.02c-2.5 0-4.945-1.6-4.945-4.65 0-4.92 6.324-5.222 8.768-5.222M149 6c1.794 0 5.353.755 5.353 3.35v1.57h-2.588v-.844c0-1.087-1.677-1.57-2.765-1.57-2.912 0-5.088 2.234-5.088 5.464 0 3.47 2.47 5.434 5.235 5.434 2.794 0 4.618-2.113 4.618-2.113L155 19.375S152.882 22 148.94 22c-4.675 0-7.94-3.41-7.94-8 0-4.498 3.206-8 8-8" fill="#BACBD6" fill-rule="evenodd"/></svg>