<svg xmlns="http://www.w3.org/2000/svg" width="141" height="39" viewBox="0 0 141 39"><path d="M98 34h3.295V1H98v33zm7.523-11.867l-.15-.274-.085-.155 5.96-10.366.193-.34.067-.113h-3.748l-.218.37.084-.142-.084.143-3.61 6.135-1.69 2.874c-.09.16-.17.3-.238.43-.01.015-.016.03-.024.044-.025.048-.05.094-.07.135-.01.02-.018.04-.03.057-.012.028-.025.053-.036.082a.076.076 0 0 0-.012.024c-.01.02-.016.04-.025.058l-.04.093c-.006.016-.01.035-.02.053a.93.93 0 0 0-.025.083l-.015.052c-.01.027-.012.053-.017.077l-.01.05a.663.663 0 0 0-.01.123c-.003.027 0 .052 0 .077 0 .015 0 .03.002.042.004.03.01.056.012.087.002.01.002.023.005.033.007.035.017.072.03.108l.004.015c.05.167.14.348.264.576l.018.035.11.198 6.26 11.198H112l-6.477-11.863zM5.173 1.11v.013L.223.8 0 .786v32.702h5.173V1.108zm21.43-.233L26.6.932l.002-.055.015-.33a1.185 1.185 0 0 0-.142-.077c-.013-.006-.03-.012-.043-.02.015.008.03.014.045.02-.015-.007-.036-.014-.053-.023-.014-.007-.03-.012-.045-.02-.008-.002-.012-.006-.02-.008l-.065-.027-.08-.03c-.04-.015-.08-.03-.123-.043-.003 0-.007-.003-.01-.004-.05-.016-.104-.03-.16-.05l-.033-.01a.02.02 0 0 1-.008 0L25.87.25l-.07-.02c-.017-.004-.034-.01-.05-.012l-.034-.01L25.68.2l-.022-.006c-.04-.01-.078-.02-.117-.028l-.044-.01-.145-.03L25.32.12 25.28.11a6.51 6.51 0 0 0-.125-.023L25.12.084l-.01-.002-.16-.024h-.003l-.04-.006c-.005 0-.008 0-.01-.002h-.017a4.33 4.33 0 0 0-.148-.018l-.06-.006a4.29 4.29 0 0 0-.165-.014l-.034-.002-.04-.002h-.006l-.15-.01h-.249c-.11 0-.22.003-.332.01l-.045.003-.06.005c-.076.004-.15.01-.226.02l-.123.014c-.11.014-.22.03-.33.052-.07.012-.14.026-.207.04-.038.01-.078.017-.115.027a5.367 5.367 0 0 0-.317.084 7.276 7.276 0 0 0-.307.098c-.03.01-.06.022-.088.033-.072.026-.144.052-.215.08-.04.016-.078.033-.117.05l-.182.08-.11.052c-.09.044-.18.09-.266.134-.024.014-.047.025-.07.04A6.02 6.02 0 0 0 20.6 1H20.6l-.09.058c.02-.013.04-.028.06-.04-.02.012-.04.027-.06.04-.023.014-.045.03-.068.045-.054.035-.11.07-.162.107l-.092.065c-.098.07-.194.143-.29.218l-.06.05.048-.04c-.017.01-.032.026-.05.04-.04.03-.075.064-.113.096-.036.033-.075.063-.11.095a2.9 2.9 0 0 1-.036.03l-.057.052a7.165 7.165 0 0 0-.22.206l-.054.053-.133.14-.117.123-.077.086v.002a6.056 6.056 0 0 0-.18.21l-.072.088c-.046.056-.088.113-.13.17-.033.04-.065.08-.094.12a.277.277 0 0 0-.02.027l-.033.05-.04.056-.125.183-.037.056a10.738 10.738 0 0 0-.202.326l-.026.044c-.062.108-.12.217-.176.328-.003.008-.01.017-.012.026l-.037.076a7.173 7.173 0 0 0-.124.265c-.013.03-.028.06-.04.09l-.036.09a6.562 6.562 0 0 0-.105.258l-.005.016-.027.07-.045.132-.052.154a.563.563 0 0 0-.01.038c-.01.023-.016.047-.023.07-.03.097-.056.195-.083.296-.005.023-.013.047-.02.07v.004l-.007.027.007-.026-.016.07.01-.043c-.032.132-.06.264-.087.396l-.002.014-.004.02c-.022.126-.042.25-.06.38-.005.04-.01.084-.013.13a5.55 5.55 0 0 0-.027.284 6.735 6.735 0 0 0-.022.517V39l.222-.012 4.95-.28V19.814h3.88v-5.216h-3.88V7.53c0-1.093.876-1.977 1.918-1.977h2.38l.19-4.568.004-.108.014-.33-.014.33zm7.272 18.263V16.7c0-1.094.875-1.977 1.96-1.977l.032.002c.047 0 .094.002.14.007l.07.01c.034.004.07.01.104.016l.07.014.106.028c.02.006.04.01.06.018a1.937 1.937 0 0 1 .305.132l.058.033c.05.03.097.06.145.093.033.024.066.05.097.075l.037.03c.042.037.083.075.122.115l.03.033c.03.03.057.062.084.094l.036.046a1.86 1.86 0 0 1 .182.277l.01.013a2.29 2.29 0 0 1 .09.2c.01.027.022.055.03.083v.002l.015.042c.006.02.01.04.018.06.016.06.03.12.043.182.008.043.013.086.02.13.01.08.015.16.016.243v2.44h-3.879zm9.05-2.52v-.005c0-.092-.003-.183-.007-.274v-.02a.362.362 0 0 0-.002-.023l-.01-.13v-.002c-.006-.074-.01-.15-.02-.223l-.02-.162v-.002c-.01-.07-.017-.14-.03-.21-.006-.05-.016-.097-.024-.145a7.6 7.6 0 0 0-.042-.223l-.03-.133-.007-.03-.024-.097-.025-.1-.023-.08-.023-.08a5.9 5.9 0 0 0-.18-.54 4.865 4.865 0 0 0-.186-.444l-.028-.065c-.01-.026-.025-.053-.038-.08a8.208 8.208 0 0 0-.118-.234c-.01-.015-.015-.03-.024-.046-.053-.098-.108-.195-.165-.29l-.025-.044a6.465 6.465 0 0 0-.13-.206c-.016-.023-.03-.048-.048-.07a6.775 6.775 0 0 0-.368-.5l-.053-.064a7.79 7.79 0 0 0-.156-.183l-.033-.04-.017-.02-.07-.074c-.048-.05-.093-.103-.14-.15l-.01-.01-.024-.023a6.795 6.795 0 0 0-.19-.185l-.064-.06a8.503 8.503 0 0 0-.14-.122l-.05-.044-.043-.038c-.056-.046-.112-.09-.167-.133l-.076-.06a4.887 4.887 0 0 0-.054-.04 6.32 6.32 0 0 0-.2-.144l-.07-.048c-.08-.054-.162-.11-.245-.16a6.798 6.798 0 0 0-.205-.122l-.077-.045a1.186 1.186 0 0 1-.055-.03c-.005-.002-.01-.006-.014-.01l-.115-.06-.1-.05-.037-.02-.034-.016c-.077-.038-.156-.073-.233-.11l-.05-.022-.014-.005-.01-.005h-.003l-.004-.003a9.04 9.04 0 0 0-.26-.104l-.08-.03h-.002a4.79 4.79 0 0 0-.24-.08c-.02-.01-.04-.016-.06-.023a6.278 6.278 0 0 0-.27-.077l-.033-.01-.063-.016-.05-.012a14.04 14.04 0 0 0-.2-.046l-.044-.01-.044-.01a6.846 6.846 0 0 0-.517-.083h-.003c-.15-.02-.3-.034-.45-.042-.017 0-.034-.003-.05-.003h-.039c-.04-.004-.085-.004-.128-.005-.068-.002-.135-.006-.203-.006s-.136.003-.203.006H35.6l-.078.002-.06.002c-.065.003-.13.01-.194.015h-.008l-.118.01-.04.004-.21.027c-.05.008-.1.012-.15.02-.07.01-.14.025-.21.04l-.09.015-.054.01c-.05.01-.1.022-.148.034l-.046.01c-.05.01-.102.022-.152.035-.068.018-.134.038-.202.058l-.013.004c-.04.012-.083.023-.123.036l-.02.007-.157.053-.036.012-.11.038a.052.052 0 0 1-.01.003l-.1.04-.06.025-.05.02-.113.047a2.03 2.03 0 0 0-.053.024c-.04.02-.083.038-.124.058-.013.005-.027.01-.04.018l-.097.044a3.64 3.64 0 0 0-.164.086l-.054.028-.09.046-.003.002c-.04.02-.077.045-.115.066a4.915 4.915 0 0 0-.1.058c-.026.017-.054.032-.08.048h-.002a4.68 4.68 0 0 0-.094.063l-.006.003-.024.015-.096.062c-.022.016-.046.03-.068.045l-.002.002a4.542 4.542 0 0 0-.11.08c-.038.026-.075.05-.11.078l-.058.04-.002.003-.027.02c-.01.01-.024.02-.036.03-.053.04-.105.082-.156.124l-.048.037a.015.015 0 0 0-.003.003l-.01.008-.042.037c-.056.05-.113.097-.17.148l-.033.03-.004.004-.01.01a7.432 7.432 0 0 0-.21.205l-.023.02c-.035.036-.07.073-.103.11l-.056.06c-.02.02-.04.04-.058.063-.006.006-.012.01-.018.018-.065.073-.127.15-.19.225a.057.057 0 0 1-.01.01l-.053.064-.03.036c-.05.064-.098.13-.146.196-.037.05-.077.1-.114.154a7.44 7.44 0 0 0-.216.33l-.024.036-.032.057c-.023.038-.043.078-.065.116-.05.083-.094.168-.14.252l-.032.06a4.513 4.513 0 0 0-.11.233 6.447 6.447 0 0 0-.286.705l-.05.138v.002l-.012.048a6.184 6.184 0 0 0-.122.43v.004c-.14.567-.212 1.15-.213 1.734v9.947c0 .138.006.274.014.41l.008.128c.01.116.02.23.032.346l.01.09c.018.14.04.277.065.416l.024.115c.02.11.045.217.07.324l.028.114a7.176 7.176 0 0 0 .258.81l.046.12c.05.128.104.254.16.378l.02.045c.054.113.112.228.17.34l.022.04.048.087c.04.072.082.146.126.218l.07.118c.068.107.135.214.208.317l.027.036c.066.093.133.185.202.275l.08.1c.057.07.112.136.17.204l.09.1c.064.07.13.142.2.21l.066.07c.09.09.183.174.277.257l.08.068c.07.06.143.12.217.178l.108.08a6.082 6.082 0 0 0 .632.418l.04.022c.1.055.203.11.307.16l.12.055c.08.038.16.073.24.105.044.017.088.036.132.05.087.034.174.065.264.094l.108.033c.122.037.246.07.372.1.038.01.077.015.117.025.092.02.184.037.277.05.05.01.1.016.15.023.09.013.18.022.27.03l.147.015c.122.008.246.012.37.013h.043c.18 0 .364-.007.55-.024a5.99 5.99 0 0 0 .56-.07l4.32-.662.354-.052-.098-2.586-.05-1.383-.007-.164-.01-.174-.003-.113h-5a2.382 2.382 0 0 1-.198-.013c-.03-.003-.056-.01-.084-.012a1.474 1.474 0 0 1-.218-.047l-.007-.002c-.046-.013-.09-.03-.135-.045-.024-.01-.05-.015-.072-.028a1.638 1.638 0 0 1-.19-.087l-.023-.015a1.946 1.946 0 0 1-.165-.104c-.02-.012-.038-.028-.057-.044a2.366 2.366 0 0 1-.17-.143 2.358 2.358 0 0 1-.108-.113l-.042-.047a1.77 1.77 0 0 1-.127-.17s0-.003-.004-.004a2.593 2.593 0 0 1-.086-.144c-.01-.016-.017-.033-.025-.05a1.313 1.313 0 0 1-.053-.11l-.022-.052a2 2 0 0 1-.053-.148c-.002-.006-.005-.01-.006-.016a2.444 2.444 0 0 1-.04-.166l-.01-.058a1.653 1.653 0 0 1-.02-.122l-.007-.06a2.036 2.036 0 0 1-.01-.167V24.35h6.467a2.583 2.583 0 0 0 2.586-2.607v-5.05c0-.018 0-.045-.002-.073zm16.94.372c0-.108-.005-.215-.01-.322v-.004l-.01-.124v-.013a6.86 6.86 0 0 0-.02-.23v-.004l-.016-.14a.07.07 0 0 0 0-.01l-.03-.212-.002-.005-.003-.02-.022-.13v-.003a11.46 11.46 0 0 0-.04-.208v-.006l-.02-.093-.01-.05c-.002 0-.002 0-.003-.003-.017-.073-.033-.146-.053-.22l-.003-.01-.03-.117v-.003c-.03-.105-.062-.21-.096-.314v-.005l-.02-.053a5.933 5.933 0 0 0-.09-.253l-.02-.054-.026-.062c-.008-.015-.013-.03-.02-.048a8.35 8.35 0 0 0-.095-.225l-.03-.064a8.613 8.613 0 0 0-.19-.387l-.017-.033c-.05-.096-.107-.19-.162-.28l-.04-.07v-.003c-.005-.007-.01-.013-.013-.02a1.855 1.855 0 0 1-.03-.047l-.08-.12-.032-.047-.02-.034-.053-.078a2.92 2.92 0 0 0-.063-.092 6.24 6.24 0 0 0-.245-.322l-.002-.002a6.944 6.944 0 0 0-.26-.3h-.004a1.737 1.737 0 0 0-.04-.046l-.033-.035a6.237 6.237 0 0 0-.234-.236l-.055-.055a7.886 7.886 0 0 0-.37-.318 7.48 7.48 0 0 0-.258-.198l-.08-.058a6.862 6.862 0 0 0-.334-.22l-.032-.018a7.488 7.488 0 0 0-.407-.222 6.348 6.348 0 0 0-.344-.16c-.01-.002-.015-.006-.022-.01a6.547 6.547 0 0 0-.38-.14c-.013-.006-.026-.01-.038-.013l-.047-.015a5.432 5.432 0 0 0-.328-.095l-.04-.01-.036-.01a5.52 5.52 0 0 0-.405-.082l-.06-.01a5.396 5.396 0 0 0-.453-.05h-.025a5.197 5.197 0 0 0-.292-.016l-.108-.002h-.045c-.098 0-.202.002-.31.005h-.025l-.035.002h-.023a8.043 8.043 0 0 0-.313.014l-.02.002h-.027l-.375.025H52.382l-.195.02.193-.02-.016.002a8.055 8.055 0 0 0-.34.03h-.007l-.01.002a1.387 1.387 0 0 1-.043.004h-.003l-.257.03-.14.017s-.003 0-.004.002h-.014l-.145.023a7.735 7.735 0 0 0-.246.037h-.002a1.785 1.785 0 0 0-.104.02l-.074.014c-.07.012-.14.024-.205.038h-.003c-.112.024-.223.05-.334.08h-.002l-.02.006a.245.245 0 0 1-.014.004h-.002a4.854 4.854 0 0 0-.198.058l-.01.003V.546H46.85v32.94h3.336v-19.69h3.2c.09.002.18.007.267.015.034.002.07.007.103.01.066.01.132.018.196.03.11.02.217.046.324.077l.057.015c.09.028.177.06.263.095.03.01.055.024.084.036.06.027.12.054.178.085a2.88 2.88 0 0 1 .27.157l.06.037c.076.05.15.107.223.164l.058.05c.053.045.105.09.154.14l.067.066c.05.05.094.1.14.153l.05.058c.06.072.114.145.167.222l.034.052c.04.06.08.124.115.19l.046.082.09.182.035.08a2.352 2.352 0 0 1 .06.165l.045.13c.02.06.033.124.05.187l.03.116c.013.077.024.155.033.233.004.028.01.055.012.083.01.107.017.216.017.327v16.45h3.253V16.99zm7.892 11.853l-.06-.11-.03-.056a3.47 3.47 0 0 1-.12-.253l-.02-.057a3.18 3.18 0 0 1-.077-.217l-.024-.07a3.552 3.552 0 0 1-.068-.276l-.01-.054a2.93 2.93 0 0 1-.034-.235l-.01-.09a3.38 3.38 0 0 1-.013-.273v-2.462a3.246 3.246 0 0 1 .934-2.298 3.19 3.19 0 0 1 2.28-.943h3.21v5.68c0 .378-.064.74-.177 1.076-.398 1.18-1.432 2.057-2.703 2.188a3.09 3.09 0 0 1-.697-.005 2.953 2.953 0 0 1-.283-.042l-.023-.007a2.58 2.58 0 0 1-.27-.07l-.048-.016a3.104 3.104 0 0 1-.516-.222c-.018-.01-.037-.018-.054-.03a3.35 3.35 0 0 1-.233-.144l-.038-.028a2.798 2.798 0 0 1-.192-.146l-.044-.038a2.766 2.766 0 0 1-.2-.187c-.012-.01-.024-.026-.035-.04a2.912 2.912 0 0 1-.16-.176 3.483 3.483 0 0 1-.193-.262c-.01-.018-.02-.034-.033-.052-.018-.03-.037-.057-.054-.087-.002.004-.002.003-.003.002zM76.967 17c0-.064 0-.128-.004-.19a6.12 6.12 0 0 0-.01-.136l-.008-.126-.005-.06-.014-.148v-.004c-.008-.058-.013-.116-.02-.173v-.002l-.022-.132v-.01a3.16 3.16 0 0 0-.017-.102l-.012-.077v-.003l-.023-.118-.005-.02-.015-.077-.022-.104v-.003l-.032-.134-.024-.094c-.01-.03-.013-.058-.02-.087-.003 0-.003 0-.003-.002l-.03-.114-.005-.015c-.01-.037-.024-.075-.034-.112-.008-.022-.014-.045-.02-.067l-.043-.13.03.096-.03-.095-.062-.173c-.015-.042-.03-.084-.048-.127l-.002-.004-.055-.134c-.004-.01-.01-.02-.01-.027l-.06-.14-.026-.053-.02-.045a6.656 6.656 0 0 0-.15-.303l-.03-.06-.016-.03a6.76 6.76 0 0 0-.207-.36l-.032-.05a5.844 5.844 0 0 0-.198-.297l-.03-.043-.037-.05a5.158 5.158 0 0 0-.252-.33 7.06 7.06 0 0 0-.27-.306c-.09-.095-.18-.186-.274-.276l-.033-.03v-.003c-.03-.025-.054-.05-.08-.075a7.5 7.5 0 0 0-.308-.264l-.055-.04a5.2 5.2 0 0 0-.282-.21 8.604 8.604 0 0 0-.42-.275c-.008-.002-.013-.007-.02-.01l-.018-.01a6.185 6.185 0 0 0-.782-.386c-.01-.005-.018-.01-.028-.013a6.826 6.826 0 0 0-.47-.172l-.095-.03-.102-.027a5.67 5.67 0 0 0-.237-.065l-.017-.004c-.035-.01-.07-.02-.104-.026-.037-.01-.077-.014-.115-.023-.108-.023-.215-.047-.327-.063v-.005H71.3a7.99 7.99 0 0 0-.536-.06c-.013 0-.026-.002-.038-.003-.05-.005-.1-.005-.15-.01-.088-.004-.176-.01-.266-.01l-.097-.003h-.167a9.615 9.615 0 0 0-1.11.104l-.028.005c-.18.027-.363.058-.544.094h-.005l-.02.003c-.156.03-.312.065-.467.1l-.078.016-.027.006c-.25.06-.5.123-.748.194-.005.002-.01.003-.012.005-.11.03-.22.064-.327.097l-.01.003-.02.007c-.11.034-.22.07-.328.106l-.043.015c-.037.01-.073.025-.11.037l-.053.018-.062.023a3.865 3.865 0 0 0-.14.05l.008.17v.024a7.396 7.396 0 0 1 .013.25c.01.13.014.254.022.377l.02.373v.008l.01.166.004.082c0 .02.003.04.004.06l.004.107.002.04.008.14.004.086.004.084.003.08.005.092.004.087.004.106.002.08.008.2.206-.012c.056-.004.113-.008.172-.01.09-.008.18-.012.273-.02l.34-.025.187-.012 1.16-.088.16-.01.386-.03c.088-.006.172-.01.26-.017l.284-.018c.11-.008.217-.013.324-.018.07-.005.14-.01.206-.013.173-.008.342-.015.506-.02h-.043c.167-.018.335-.027.502-.028.112 0 .217.005.32.013a3.117 3.117 0 0 1 .377.052c.09.018.18.042.266.07.023.006.045.012.067.02.083.028.163.058.24.092l.01.005c.075.035.147.075.217.117l.056.033c.067.043.13.087.19.135l.01.01c.063.05.12.102.175.157.015.017.03.03.045.05.055.058.108.12.16.184.045.06.087.125.13.192l.035.06c.036.063.07.13.104.196.004.01.01.018.012.027.024.054.05.11.07.166l.003.006c.002.01.004.018.008.028.082.215.144.445.184.686.008.037.012.072.018.11.013.09.023.182.032.275.003.037.008.073.01.112.01.127.014.256.014.387v2.65a3.855 3.855 0 0 1-.124-.036l-.08-.023-.04-.01-.05-.014h-.004a1.116 1.116 0 0 0-.062-.016l-.068-.016a.54.54 0 0 1-.024-.007c-.024-.005-.05-.01-.07-.017l-.02-.004a2.834 2.834 0 0 1-.072-.02 4.578 4.578 0 0 1-.16-.036h-.002l-.08-.016a3.095 3.095 0 0 1-.084-.017l-.088-.016-.08-.015-.098-.018a2.002 2.002 0 0 0-.074-.01l-.04-.007a5.91 5.91 0 0 1-.07-.01 1.486 1.486 0 0 1-.067-.01l-.018-.002a2.2 2.2 0 0 0-.108-.014l-.056-.008-.053-.005c-.03-.004-.058-.01-.09-.01l-.04-.005h-.002l-.17-.015h-.015c-.082-.01-.17-.013-.257-.018a4.28 4.28 0 0 1-.105-.007h-.005l-.18-.008h-.006c-.03 0-.057-.004-.088-.004l-.207-.004h-.118l-.042-.002h-.314l-.23.006H70.125c-.04.002-.082.006-.123.01H70l-.184.01-.063.006c-.032.002-.066.007-.1.01-.03.003-.065.008-.1.01l-.073.01-.115.015-.045.005a3.14 3.14 0 0 0-.11.018c-.02.003-.04.005-.06.01h-.002l-.15.025h-.002l-.09.02-.085.016h-.007l-.132.03-.125.03a1.51 1.51 0 0 1-.075.02l-.007.003a5.743 5.743 0 0 0-.384.113c-.04.013-.08.03-.118.042l-.007.002-.162.057-.002.003a1.93 1.93 0 0 0-.123.05h-.003c-.05.02-.102.04-.153.064l-.12.053v.002h-.004l-.06.03-.086.04a.018.018 0 0 0-.005.002l-.113.058h-.002l-.073.04-.075.04-.007.005-.098.055h-.002l-.133.082c-.012.01-.026.017-.04.025a5.167 5.167 0 0 0-.304.203l-.07.053-.01.007c-.05.037-.098.073-.146.113l-.003.002-.08.067-.006.005a7.05 7.05 0 0 0-.128.11c-.002.002-.002.004-.004.004l-.08.073a2.277 2.277 0 0 0-.124.12c-.002 0-.004.002-.005.004l-.075.075-.004.003-.105.112a.11.11 0 0 0-.014.016l-.007.008-.06.066-.003.003c-.047.053-.092.11-.138.163l-.016.02a8.41 8.41 0 0 0-.195.255v.003l-.03.045-.01.014a.45.45 0 0 0-.02.03c-.034.048-.067.093-.098.142h-.002c-.016.028-.03.052-.047.075l-.005.01-.094.154-.003.005-.046.083c-.002 0-.002.003-.003.005-.03.053-.058.107-.085.162l-.003.005c-.015.028-.03.055-.044.084l-.002.004-.007.015a3.1 3.1 0 0 0-.074.155c-.002 0-.003.006-.005.01l-.033.074a7.212 7.212 0 0 0-.092.22l-.006.01-.014.033v.004a8.55 8.55 0 0 0-.1.277c-.004.012-.007.025-.012.037l-.004.016c-.01.03-.018.058-.026.088-.014.045-.03.092-.042.138v.002c-.01.024-.014.05-.02.075a.04.04 0 0 0-.004.01v.004l-.03.118-.02.078v.002l-.023.098v.004l-.02.096-.016.074c-.012.064-.024.128-.033.19a3.54 3.54 0 0 0-.023.148c-.01.068-.018.138-.026.206l-.015.14c-.008.076-.01.154-.017.234l-.008.117a7.23 7.23 0 0 0-.008.356v2.064c0 .13.004.257.01.383l.01.12c.008.09.016.178.026.266l.017.132c.012.086.027.174.042.26.007.04.013.076.022.114.023.123.05.244.08.365l.01.022c.027.113.06.224.095.335l.04.114a5.094 5.094 0 0 0 .135.363c.03.077.065.155.1.23a5.83 5.83 0 0 0 .21.43c.004.007.01.012.012.02 0 .007.006.01.01.017.055.103.114.2.175.3l.067.106c.053.08.107.158.162.237a5.127 5.127 0 0 0 .297.39c.02.025.044.05.065.074a7.514 7.514 0 0 0 .5.527l.063.06c.12.11.245.218.375.32.074.058.152.115.228.172.033.024.066.05.1.07.104.073.21.145.318.213a5.15 5.15 0 0 0 .442.244c.09.047.18.092.273.133.03.013.058.028.087.04.12.052.243.102.366.15a10.292 10.292 0 0 0 .382.126l.103.03c.113.03.227.06.34.084.018.005.034.01.05.013.135.03.27.052.406.072.028.003.054.008.083.01.11.016.222.028.335.036l.096.008a6.327 6.327 0 0 0 4.128-1.183 6.622 6.622 0 0 0 1.982-2.27c.51-.966.777-2.043.776-3.137V17.123c.004-.042.002-.082.002-.123zm14.45.24l.08-.003.16-.005.217-.007.126-.003.316-.007h.005c.408-.01.84-.016 1.3-.027l.332-.01h.07l.47-.015v-.42c0-.08-.003-.16-.006-.24v-.047c-.004-.058-.008-.113-.01-.17a4.577 4.577 0 0 0-.03-.326l-.003-.024c-.006-.05-.01-.097-.02-.146-.006-.05-.015-.103-.023-.153l-.03-.168a4.218 4.218 0 0 0-.033-.154c-.01-.054-.023-.11-.035-.163-.013-.05-.028-.1-.04-.152l-.003-.01c-.013-.05-.03-.1-.045-.15-.014-.05-.03-.1-.046-.148a7.75 7.75 0 0 0-.054-.152c-.017-.05-.034-.1-.053-.147-.016-.046-.035-.092-.053-.137l-.006-.012-.06-.147-.04-.08c-.003-.013-.01-.025-.014-.036a7.487 7.487 0 0 0-.186-.376s0-.002-.002-.002V13.6a4.515 4.515 0 0 0-.21-.36l-.038-.06-.016-.024a5.757 5.757 0 0 0-.212-.308l-.027-.042c-.085-.11-.17-.22-.26-.326a6.78 6.78 0 0 0-.306-.338l-.02-.02a5.947 5.947 0 0 0-.666-.598c-.018-.013-.032-.027-.05-.04-.004-.002-.005-.004-.01-.005v-.002a6.395 6.395 0 0 0-.71-.47l-.07-.044a6.886 6.886 0 0 0-.373-.193l-.047-.02-.01-.005c-.085-.04-.17-.074-.255-.11-.028-.01-.053-.024-.08-.035l-.09-.035a6.273 6.273 0 0 0-.396-.138l-.01-.003-.045-.012a6.103 6.103 0 0 0-.36-.096l-.1-.025a6.925 6.925 0 0 0-.398-.073c-.008 0-.015-.003-.02-.004a.562.562 0 0 1-.037-.005c-.03-.005-.063-.007-.092-.01-.1-.012-.2-.026-.3-.035h-.002l-.11-.008a6.114 6.114 0 0 0-.437-.017c-.06 0-.118.003-.176.005h-.003l-.15.003h-.01l-.166.014h-.006c-.053.003-.106.007-.157.012l-.16.02-.01.002c-.052.007-.105.012-.156.02l-.1.02a1.432 1.432 0 0 1-.065.01l-.023.003c-.043.01-.087.015-.13.023v.002c-.06.012-.118.026-.175.04l-.01.003-.13.03-.14.04a.83.83 0 0 0-.045.013l-.122.035-.028.01-.112.038-.058.02-.106.037-.04.016-.12.047-.053.022c-.027.01-.054.02-.08.032h-.002l-.003.002-.17.078c-.02.01-.04.017-.06.026-.016.01-.034.017-.05.026h-.003c-.068.033-.135.07-.202.105-.012.01-.028.016-.042.023-.01.006-.024.01-.035.02h-.002c-.05.027-.098.057-.15.086l-.007.003-.108.064a.017.017 0 0 0-.006.003l-.002.002-.006.003a8.278 8.278 0 0 0-.228.148c-.045.03-.085.06-.128.09-.053.038-.108.075-.16.115l-.09.073c-.052.04-.106.083-.156.125-.033.028-.065.056-.096.085l-.142.124-.076.074c-.052.05-.103.097-.152.15l-.058.06c-.053.056-.107.11-.157.168-.078.09-.155.18-.23.272-.026.033-.05.07-.075.102-.05.063-.098.127-.145.193l-.022.03-.06.09c-.058.084-.114.17-.167.256l-.033.054c-.04.065-.075.132-.113.2l-.033.06c-.01.018-.023.038-.032.058a6.08 6.08 0 0 0-.162.33l-.01.017-.033.08a11.68 11.68 0 0 0-.106.252c-.012.035-.027.072-.04.106 0 .004-.003.006-.003.01a8.307 8.307 0 0 0-.09.26l-.032.102a5.65 5.65 0 0 0-.095.337c0 .01-.004.017-.006.025v.004a6.7 6.7 0 0 0-.193 1.595v10.57c0 .113.006.227.01.337.003.05.01.095.013.144.006.083.012.167.023.25.006.047.01.096.018.145.01.086.026.172.04.257.008.04.013.08.022.12.025.123.05.244.082.363.006.023.013.043.017.066.062.225.134.445.217.66.014.038.03.073.042.113.038.092.077.183.118.274l.03.068c.053.113.11.224.17.335l.01.02c.007.01.012.022.02.032a6.612 6.612 0 0 0 .407.644 5.055 5.055 0 0 0 .343.44c.063.072.128.147.194.217l.082.088a5.573 5.573 0 0 0 .56.518c.03.026.06.05.092.075l.224.168a6.667 6.667 0 0 0 .746.467 5.777 5.777 0 0 0 .374.185c.03.012.06.028.09.042.118.05.236.097.358.142.027.01.057.02.085.028a5.3 5.3 0 0 0 .29.096c.04.01.078.022.118.03.106.03.212.058.32.08l.067.016a6.08 6.08 0 0 0 .496.082c.14.018.282.032.424.043a5.195 5.195 0 0 0 .724.005l.104-.007c.07-.005.14-.008.21-.016l.122-.014c.062-.01.126-.014.188-.024l.13-.022.175-.03.13-.03.17-.038c.045-.01.088-.024.13-.034l.168-.046c.044-.013.085-.028.128-.042.055-.017.11-.035.163-.054a7.72 7.72 0 0 0 .41-.16l.153-.067.12-.055.152-.076c.04-.02.077-.043.116-.063.05-.028.1-.053.15-.083l.114-.068c.05-.03.096-.058.145-.09.035-.024.07-.05.11-.07.048-.03.093-.065.14-.098l.106-.075c.046-.034.092-.068.137-.104.034-.028.068-.05.1-.08a2.76 2.76 0 0 0 .135-.11c.032-.03.063-.055.095-.083.045-.04.09-.08.13-.12l.09-.085c.045-.042.087-.085.13-.128.03-.03.057-.057.084-.087.042-.044.084-.09.125-.136l.077-.085a6.53 6.53 0 0 0 .122-.15c.023-.028.05-.054.07-.084.043-.052.084-.11.126-.164.017-.025.036-.05.055-.074.046-.063.088-.128.132-.193l.038-.06c.055-.08.108-.167.158-.253l.003-.003c.113-.192.216-.39.308-.593.037-.076.07-.153.103-.232l.03-.078c.03-.07.055-.137.08-.206l.032-.096c.02-.065.045-.132.065-.197l.03-.104c.02-.064.035-.13.052-.194.01-.037.018-.075.027-.112l.044-.193.02-.117c.013-.064.024-.127.034-.194l.016-.118c.007-.043.01-.086.016-.128l.005-.05a7.996 7.996 0 0 0 .03-.35c0-.012.004-.026.004-.038-.077 0-.68-.03-1.51-.085-.275-.018-.576-.037-.89-.06-.29-.02-.593-.044-.9-.066 0 .073-.008.145-.013.216-.004.036-.004.075-.01.112a3.105 3.105 0 0 1-.15.638c-.44 1.268-1.664 2.15-3.08 2.15-.097 0-.193-.007-.29-.015l-.07-.006a3.202 3.202 0 0 1-.277-.042l-.02-.005a2.593 2.593 0 0 1-.252-.065l-.057-.015-.004-.002a3.89 3.89 0 0 1-.257-.093l-.03-.013a2.953 2.953 0 0 1-.224-.108c-.017-.01-.036-.018-.054-.028a4.073 4.073 0 0 1-.23-.14l-.03-.022a2.864 2.864 0 0 1-.236-.18 2.304 2.304 0 0 1-.202-.184l-.03-.03a2.737 2.737 0 0 1-.165-.185l-.03-.034a3.602 3.602 0 0 1-.165-.224c-.01-.01-.016-.025-.025-.037l-.06-.094-.003-.006c-.022-.036-.042-.075-.063-.112l-.025-.046a3.83 3.83 0 0 1-.12-.256c-.008-.015-.012-.03-.02-.048a3.043 3.043 0 0 1-.17-.575l-.005-.028a3.523 3.523 0 0 1-.04-.274l-.006-.065a3.26 3.26 0 0 1-.016-.312v-10.51a3.273 3.273 0 0 1 1.153-2.492 3.104 3.104 0 0 1 2.317-.73l.09.01c.07.01.14.02.21.032l.093.018c.08.018.16.038.24.063l.043.01c.283.092.553.22.803.384l.052.034c.077.053.152.11.226.17l.053.046c.13.112.253.235.366.366l.05.055c.057.073.114.15.168.226.01.013.017.03.027.043.043.065.084.132.123.2.014.025.028.05.04.077.035.062.066.126.093.19l.034.072.014.037c.005.006.006.01.008.017.015.04.03.078.04.12l.045.12c.017.06.03.12.046.178.01.042.024.082.03.125.015.065.024.133.03.2.008.037.015.073.02.11.01.105.014.212.014.32v.504l.218-.008zm32.068-.455v3.534h-6.425v-3.535c0-1.47.936-2.717 2.25-3.133a3.2 3.2 0 0 1 1.255-.133 3.83 3.83 0 0 1 .296.042l.09.016c.082.02.167.04.25.067l.024.008c.182.058.358.134.526.225l.078.042c.07.04.134.08.2.125.012.01.027.016.038.025.077.053.152.11.223.17.02.016.037.034.06.05.05.047.102.094.15.142.022.022.044.043.064.065l.15.166c.012.016.026.03.04.048a3.608 3.608 0 0 1 .315.47l.046.085c.032.063.062.127.09.19.01.025.024.05.03.073l.01.018.008.018.042.12c.015.047.034.094.05.143.016.057.03.115.044.173.012.045.025.09.034.136.014.07.022.14.03.21.006.038.013.073.017.11.01.108.015.218.015.33zm3.287-.34a.314.314 0 0 1-.002-.037c-.007-.096-.013-.192-.022-.287v-.007c-.002-.015-.006-.03-.007-.046a9.085 9.085 0 0 0-.03-.264l-.015-.09c-.01-.074-.026-.147-.04-.22a2.55 2.55 0 0 0-.02-.1c-.01-.056-.025-.115-.04-.172 0-.01-.003-.017-.005-.03-.01-.032-.015-.065-.025-.098l-.033-.122c-.01-.03-.017-.063-.027-.094-.008-.026-.014-.052-.023-.078-.004-.012-.008-.023-.01-.034-.028-.084-.054-.168-.084-.25l-.024-.06c-.028-.074-.053-.147-.084-.22l-.043-.1a5.967 5.967 0 0 0-.05-.116c-.007-.012-.01-.027-.018-.04a6.424 6.424 0 0 0-.18-.363l-.03-.052a5 5 0 0 0-.18-.31 5.03 5.03 0 0 0-.245-.365 1.073 1.073 0 0 0-.052-.077 6.33 6.33 0 0 0-.25-.316l-.072-.084a5.467 5.467 0 0 0-.24-.27l-.016-.016c-.007-.007-.012-.015-.02-.02a5.24 5.24 0 0 0-.267-.257l-.026-.026a2.95 2.95 0 0 0-.07-.06l-.01-.01a6.13 6.13 0 0 0-.265-.222l-.057-.046a7.445 7.445 0 0 0-.33-.237l-.072-.048c-.002-.002-.007-.004-.008-.006a5.54 5.54 0 0 0-.343-.21l-.025-.014a5.978 5.978 0 0 0-.36-.19l-.032-.014a7.912 7.912 0 0 0-.288-.126l-.072-.03c-.03-.013-.06-.027-.093-.038a5.495 5.495 0 0 0-.39-.137c-.022-.007-.046-.01-.07-.02a6.225 6.225 0 0 0-.34-.092l-.108-.025a6.33 6.33 0 0 0-.41-.08l-.05-.005a6.025 6.025 0 0 0-.38-.043l-.113-.01h-.02a5.846 5.846 0 0 0-.385-.015h-.03a5.96 5.96 0 0 0-.265.006l-.186.01c-.072.006-.14.01-.212.017l-.12.015a5.613 5.613 0 0 0-.145.02c-.02.002-.04.003-.057.006a3.497 3.497 0 0 0-.132.024c-.045.007-.09.015-.134.024l-.05.01-.137.03a3.835 3.835 0 0 0-.176.04c-.046.012-.09.027-.138.04-.057.015-.112.03-.17.048l-.133.044h-.004a.435.435 0 0 1-.046.018c-.04.012-.076.026-.116.04l-.13.05-.16.065-.134.058-.113.052c-.013.006-.026.01-.04.02-.043.02-.085.04-.128.062-.05.025-.103.05-.152.08a2.996 2.996 0 0 0-.125.07c-.05.026-.098.055-.146.084l-.122.076a7.14 7.14 0 0 0-.14.092l-.118.082-.016.01-.122.088a6.304 6.304 0 0 0-.11.086c-.047.035-.092.07-.135.106l-.108.09a7.273 7.273 0 0 0-.13.114c-.034.03-.07.062-.1.094l-.126.12c-.035.032-.067.066-.098.098l-.025.028a2.48 2.48 0 0 0-.092.1h-.002l-.09.1c-.04.045-.078.09-.114.134 0 0-.003 0-.003.003l-.083.1-.044.06-.063.08a3.665 3.665 0 0 1-.083.11l-.03.046-.072.1a.026.026 0 0 1-.004.008c-.023.034-.05.07-.07.104v.003l-.038.057c-.02.03-.04.06-.057.092l-.008.01-.063.104-.004.003a2.792 2.792 0 0 0-.054.1l-.032.057c0 .004-.005.01-.008.013l-.058.102v.003a.94.94 0 0 1-.037.074l-.042.086c-.004.007-.01.013-.01.02l-.05.098-.002.004-.07.158-.005.01-.002.006a.157.157 0 0 0-.01.02c-.012.03-.03.06-.04.09v.005c-.026.06-.05.12-.07.18-.018.038-.03.077-.047.117a4.098 4.098 0 0 0-.065.2l-.034.103a6.826 6.826 0 0 0-.094.347v.002h-.002l-.002.02c-.022.084-.04.17-.06.254l-.023.13v.006c-.012.06-.025.123-.033.186-.008.048-.012.098-.02.148v.01c-.01.056-.014.112-.022.167-.006.054-.01.107-.01.16-.008.05-.01.098-.01.148 0 .006-.004.013-.004.02a4.856 4.856 0 0 0-.01.368v10.435c0 .17.007.34.02.51.01.118.02.23.032.346.003.02.004.042.008.062.016.13.037.26.062.39l.02.105c.022.107.046.21.07.315.008.03.013.06.02.09.034.126.072.252.11.376l.03.092a7.682 7.682 0 0 0 .326.814c.048.1.097.2.15.3.01.012.013.024.02.037l.03.058a9.327 9.327 0 0 0 .374.604 4.73 4.73 0 0 0 .21.284l.07.09c.053.067.106.13.16.194l.072.08a5.575 5.575 0 0 0 .498.494c.02.02.045.038.07.058a6.01 6.01 0 0 0 .287.23c.07.055.147.11.222.16l.065.044c.1.065.2.128.305.187l.015.01c.122.07.248.133.376.19.085.04.17.076.255.11l.082.033c.104.04.21.076.315.11l.025.01c.136.04.273.077.412.106.133.03.268.055.403.073.102.013.203.025.307.032l.073.007a5.993 5.993 0 0 0 1.432-.078l4.004-.633-.027-.255-.014-.152a4.303 4.303 0 0 0-.01-.108c-.006-.057-.01-.114-.013-.173a10.56 10.56 0 0 1-.022-.28l-.006-.083-.014-.206a49.185 49.185 0 0 1-.045-.903v-.008c-.004-.11-.01-.22-.012-.33 0-.03-.002-.055-.003-.086v-.028h-4.214c-.12 0-.24-.007-.357-.022a2.64 2.64 0 0 1-.295-.045h-.002a3.298 3.298 0 0 1-.278-.074l-.01-.003-.042-.013a3.637 3.637 0 0 1-.27-.1l-.016-.01a2.31 2.31 0 0 1-.243-.117c-.014-.01-.03-.015-.042-.023a2.527 2.527 0 0 1-.266-.167 3.54 3.54 0 0 1-.208-.16l-.034-.03a2.832 2.832 0 0 1-.206-.192c-.01-.007-.018-.018-.028-.03a3.068 3.068 0 0 1-.17-.19l-.03-.033a3.465 3.465 0 0 1-.162-.224l-.03-.047c-.02-.03-.04-.058-.057-.092-.002 0-.002 0-.002-.002-.022-.036-.04-.074-.063-.112a2.582 2.582 0 0 1-.147-.307l-.02-.053c-.03-.073-.056-.148-.08-.224a3.282 3.282 0 0 1-.09-.344c-.004-.014-.004-.027-.008-.04a2.602 2.602 0 0 1-.036-.254 2.897 2.897 0 0 1-.024-.377v-3.573h8.052a1.656 1.656 0 0 0 1.67-1.684v-5.168a4.176 4.176 0 0 0-.006-.34zm13.608-5.79a7.48 7.48 0 0 0-.93-.323l-.015-.003a5.645 5.645 0 0 0-.184-.048l-.02-.004-.17-.038a7.76 7.76 0 0 0-1.458-.145h-.01c-.12 0-.235.004-.354.01l-.1.007c-.08.006-.16.01-.244.02l-.128.014a10.778 10.778 0 0 0-.342.048l-.21.038c-.028.007-.055.01-.085.016l-.036.01c-.08.016-.16.035-.238.056l-.085.02a7.3 7.3 0 0 0-.307.093l-.017.005c-.01.003-.02.01-.03.01-.145.05-.285.1-.422.157l-.047.017a6.567 6.567 0 0 0-.41.19l-.044.02a.532.532 0 0 1-.037.02c-.093.05-.186.098-.276.15l-.005.004-.036.02a9.79 9.79 0 0 0-.266.167c-.02.014-.042.03-.064.043-.01.008-.02.013-.03.02l-.193.136c-.015.01-.03.022-.045.034-.016.01-.03.022-.047.033a5.394 5.394 0 0 0-.238.19l-.04.034h-.003a7.52 7.52 0 0 0-.226.202c-.03.025-.055.052-.084.08a7.12 7.12 0 0 0-.163.16l-.037.04-.04.044-.07.074c-.045.05-.09.1-.132.15-.014.014-.024.027-.035.04l-.003.002c-.063.078-.128.154-.188.234l-.07.092a10.5 10.5 0 0 0-.102.142c-.01.015-.023.03-.032.045l-.032.046-.03.046a7.14 7.14 0 0 0-.168.257c-.01.014-.017.028-.025.04-.033.055-.064.113-.095.167-.018.033-.04.066-.056.1-.005.006-.01.013-.01.02-.013.025-.03.05-.043.077l-.105.208v.002l-.03.06c-.008.013-.01.026-.018.038a2.79 2.79 0 0 0-.07.16l-.06.13-.004.014c-.002.004-.006.01-.007.017a1.116 1.116 0 0 0-.032.086 4.525 4.525 0 0 0-.08.206c-.012.034-.025.07-.034.1-.028.077-.05.153-.075.23l-.015.053-.015.05c-.03.106-.06.214-.086.322h-.002v.007c-.04.166-.073.333-.1.5l-.004.014c-.01.066-.02.13-.028.196l-.015.106-.004.05a6.006 6.006 0 0 0-.03.338l-.002.02c0 .003 0 .01-.002.01a9.223 9.223 0 0 0-.012.423v16.408h3.337v-16.41c0-.94.423-1.93 1.09-2.638a3.504 3.504 0 0 1 .344-.317 2.86 2.86 0 0 1 1.33-.626c.135-.022.27-.034.407-.035l3.628.084c.03-.544.06-1.136.09-1.8l.008-.14v-.035c.005-.096.01-.194.013-.295l.002-.022v-.02c.005-.098.01-.195.012-.296a9.805 9.805 0 0 0-.62-.283zM9.38 9v23h5.24V9.285L9.38 9zm5.607-4.373v-.01c-.004-.027-.01-.053-.013-.08V4.53c-.01-.065-.018-.13-.032-.193v-.005l-.026-.1V4.23c-.007-.027-.015-.05-.02-.077-.01-.03-.015-.057-.025-.086-.01-.036-.025-.073-.038-.11a2.032 2.032 0 0 0-.042-.11l-.015-.04v-.002l-.032-.07-.003-.004a3.1 3.1 0 0 0-.08-.16v-.002a2.344 2.344 0 0 0-.04-.07c-.02-.038-.044-.072-.067-.107-.015-.024-.03-.05-.046-.072l-.002-.003-.022-.034a2.855 2.855 0 0 0-.154-.2l-.004-.002c-.014-.02-.03-.035-.046-.053a2.686 2.686 0 0 0-.13-.138l-.025-.023-.035-.035-.03-.027-.12-.107-.047-.038c-.033-.027-.07-.05-.104-.076-.036-.026-.07-.052-.105-.075l-.05-.03c-.04-.028-.084-.052-.128-.077a1.245 1.245 0 0 0-.12-.067 3.81 3.81 0 0 0-.177-.082c-.02-.01-.043-.02-.065-.027-.06-.024-.12-.045-.183-.066l-.066-.023a2.858 2.858 0 0 0-.26-.065l-.08-.017c-.036-.007-.073-.01-.108-.016l-.09-.014-.08-.01h-.01A3.118 3.118 0 0 0 12 2h-.003c-.1 0-.197.006-.295.015-.034.003-.066.01-.098.014-.065.006-.13.016-.193.027-.037.008-.075.018-.113.028a2.33 2.33 0 0 0-.155.04l-.01.002c-.04.012-.08.027-.12.04-.05.018-.1.034-.148.053h-.002c-.04.016-.078.034-.117.052l-.07.033a1.54 1.54 0 0 0-.184.097 3.03 3.03 0 0 0-.12.07l-.01.006-.107.073-.12.087s0 .002-.002.002a3.126 3.126 0 0 0-.1.082l-.03.025a3.004 3.004 0 0 0-.172.163c-.035.035-.07.07-.102.11-.022.023-.04.048-.062.07l-.02.027-.046.06-.046.057-.04.055-.032.05c-.023.033-.046.07-.067.105-.004.007-.01.013-.012.02l-.002.002a2.844 2.844 0 0 0-.062.11c-.01.016-.016.033-.025.05l-.04.084v.004a2.305 2.305 0 0 0-.053.112v.002c-.02.046-.037.094-.054.14v.004c-.014.04-.028.077-.04.116v.003l-.023.08c-.005.023-.012.047-.02.07v.002c-.004.024-.012.047-.017.07l-.01.05-.006.04c-.007.038-.013.077-.018.117v.003c-.008.04-.013.08-.017.12-.002.013-.002.026-.002.038-.006.076-.01.15-.01.226 0 .09.004.18.013.266a3.253 3.253 0 0 0 .043.295l.006.028c.017.084.04.167.066.248l.02.06c.022.067.048.132.075.197l.02.047c.042.094.09.186.142.275.016.03.034.056.052.083.02.03.038.063.058.092l.03.044c.058.083.12.162.188.237.046.054.096.107.147.157l.032.033a2.88 2.88 0 0 0 .413.33l.03.02c.154.1.317.187.486.26l.02.008c.08.033.165.062.248.088l.052.015a2.856 2.856 0 0 0 .53.106l.052.005c.193.02.387.018.58-.003.015 0 .03-.004.043-.006.084-.01.166-.02.247-.036.027-.004.053-.013.08-.02.067-.014.135-.03.2-.05l.093-.03c.06-.02.12-.04.177-.064.033-.013.065-.03.098-.044.053-.023.107-.048.158-.074.034-.017.067-.037.1-.055.05-.028.097-.056.144-.086l.096-.065c.045-.03.09-.062.132-.095.032-.024.06-.05.093-.076.04-.034.08-.07.118-.105a2.57 2.57 0 0 0 .274-.295 2.782 2.782 0 0 0 .308-.46 2.265 2.265 0 0 0 .17-.39 2.827 2.827 0 0 0 .08-.27c.013-.043.024-.086.033-.13.01-.05.016-.097.023-.148.007-.044.014-.09.017-.135l.004-.054c.003-.067.01-.134.01-.202 0-.093-.005-.186-.014-.28z" fill="#BACBD6" fill-rule="evenodd"/></svg>