<svg xmlns="http://www.w3.org/2000/svg" width="170" height="26" viewBox="0 0 170 26"><g fill="#BACBD6" fill-rule="evenodd"><path d="M120 5h5V1h-5zM94.215 1s-.065 0-.065.064v7.03s-2.524-.457-3.842-.457c-4.837 0-7.36 2.633-7.36 8.988 0 6.145 1.563 9.34 6.934 9.34 1.813 0 4.268-1.088 4.268-1.088v.64s0 .062.065.062h4.637s.064 0 .064-.064V1.064s0-.064-.064-.064h-4.637zm-6.43 15.625c0-3.476 1.1-4.74 2.88-4.74 1.53 0 3.422.306 3.422.306s.063.01.063.075v8.79s0 .064-.063.08c0 0-2 .44-3.387.476-2.24-.07-2.916-1.438-2.916-4.985zM69.43 1.35s-.065 0-.083.06l-7.347 24.107s-.02.06.045.06h4.78s.065 0 .078-.06l.897-3.95s.015-.06.08-.06h8.86s.063 0 .08.06l1.07 3.95s.017.06.08.06h4.78s.064 0 .047-.06L75.56 1.412s-.02-.06-.083-.06h-6.045zm-.563 15.425L72.384 5.87s.02-.06.04 0l3.437 10.905s.02.06-.044.06h-6.904s-.065 0-.045-.06zm73.21.025c0 5.407 1.99 9.2 8.18 9.2 6.19 0 8.18-3.793 8.18-9.2s-1.99-9.164-8.18-9.164c-6.19 0-8.18 3.757-8.18 9.164zm4.837 0c0-3.23.71-4.916 3.343-4.916s3.344 1.685 3.344 4.916c0 3.23-.71 4.95-3.344 4.95-2.632 0-3.343-1.72-3.343-4.95zm-20.487-3.44c0 3.755 2.063 4.81 6.686 5.582 2.49.42 2.882.702 2.882 1.475 0 .913-.605 1.334-2.882 1.334-1.813 0-6.16-.553-6.16-.553s-.063-.008-.067.055l-.138 3.84s-.002.065.062.072c0 0 4.133.835 6.766.835 4.445 0 7.184-1.58 7.184-5.69 0-3.545-1.495-4.88-6.225-5.617-2.67-.42-3.345-.632-3.345-1.44 0-.947.428-1.37 2.49-1.37 2.064 0 6.41.554 6.41.554s.064.01.065-.056l.07-3.803s0-.063-.065-.072c0 0-4.274-.87-6.835-.87-3.734 0-6.9 1.65-6.9 5.725zm43.506-5.713c-2.746.516-4.827 2.022-4.827 2.022s-.053.037-.053-.027v-1.52s0-.066-.066-.066h-4.635s-.065 0-.065.065v17.394s0 .063.065.063h4.636s.067 0 .067-.064V13.813c0-.867 2.772-1.25 4.943-1.12V7.7s0-.053-.05-.053h-.014zm-50.305.41s-.065 0-.065.064v17.395s0 .063.066.063h4.637s.065 0 .065-.063V8.122s0-.065-.065-.065h-4.636zm-6.51 0s-.063 0-.08.062l-3.72 13.5s-.017.06-.034 0l-3.66-13.5s-.017-.064-.08-.064h-4.815s-.064 0-.047.063l5.01 17.397s.018.06.082.06h7.01s.064 0 .082-.06l5.01-17.398s.017-.064-.048-.064h-4.71zM46.466 0v25.61h3.34V11.416s2.56-.817 4.514-.817c2.878 0 3.34 1.742 3.34 5.76v9.25H61v-9.285c0-6.19-1.172-8.856-6.077-8.856-2.238 0-5.118 1.102-5.118 1.102V0h-3.34zM0 .925v3.308h7.18V25.61h3.48V4.232h7.11V.925H0zm30.98 15.543c0 6.864 2.2 9.532 7.744 9.532 1.742 0 5.19-.57 5.19-.57l-.108-2.915s-2.808.284-4.157.284c-4.09 0-5.26-1.6-5.26-6.332 0-4.304 1.35-5.833 5.223-5.833 1.35 0 4.158.32 4.158.32l.143-2.917s-3.34-.57-5.118-.57c-5.295 0-7.815 2.56-7.815 9z"/><path d="M14 17.12c0 5.978 1.93 8.845 7.286 8.88 3.035 0 7.107-.726 7.107-.726l-.072-2.59s-3.82.31-6.57.31c-3.18 0-4.32-1.52-4.32-4.63h7.502c2.73 0 4.068-2.204 4.068-3.65C29 9.433 27.255 8 21.607 8 16.857 8 14 10.695 14 17.12m7.607-6.217c1.344 0 2.766-.126 3.465.492 1.632 1.442 1.13 4.414-.546 4.414h-7.133c.036-3.49 1.428-4.907 4.214-4.907"/></g></svg>