<svg xmlns="http://www.w3.org/2000/svg" width="2101.932" height="1359.018" viewBox="0 0 2101.932 1359.018">
  <g id="Location" transform="translate(-435.479 -465.05)">
    <g id="shadow">
      <g id="Group_19" data-name="Group 19">
        <g id="Group_18" data-name="Group 18">
          <path id="Path_155" data-name="Path 155" d="M1484.5,1288.7c-14.6-19-63.7-59.4-80.9-17.5-7.2,17.5,12.5,36.4,22.9,49.1,11.7,14.3,48.2,59.4,71.9,50.3C1535.5,1356.3,1497.8,1306,1484.5,1288.7Z" fill="#ebf2ff"/>
          <path id="Path_156" data-name="Path 156" d="M1898.9,1722.8c-36.6-20.8-202.6-2.2-164.5,51.6,21.1,29.8,76.8,26.6,105.6,15.4C1847.2,1787,1925.7,1738.1,1898.9,1722.8Z" fill="#ebf2ff"/>
          <path id="Path_157" data-name="Path 157" d="M1975.8,1511.4c68.6-41.3-191.1-111.5-165.8-57.6,4.5,9.6,42,15.4,49.3,17.9C1884.2,1480.3,1952.3,1525.6,1975.8,1511.4Z" fill="#ebf2ff"/>
          <path id="Path_158" data-name="Path 158" d="M2254.8,1183.6c31-.1,69.8,29.1,101.4,15.4,36.8-15.9,5.6-41.3-21.1-53.3-36.3-16.3-77.4-3.3-115.3-3.8-32.8-.4-74.9-9.2-107.3-14.5-23.6-3.9-35.6-18-58.9-17-35.1,1.6-51.6,24.9-9.7,35.7,18.2,4.7,38.2-2.5,56.3,2.7,17.7,5.1,28.8,18.3,44.7,26.9C2185.6,1197.6,2212.5,1183.8,2254.8,1183.6Z" fill="#ebf2ff"/>
          <path id="Path_159" data-name="Path 159" d="M2297.2,1400c63.3,18.9,1-227-54-185.1-18.3,13.9,8.9,39.3,14.2,51.8C2270.4,1297.7,2254.6,1387.2,2297.2,1400Z" fill="#ebf2ff"/>
          <path id="Path_160" data-name="Path 160" d="M2073.7,1363.4c-29.7.1-73.1,36-31.4,41C2069.3,1407.7,2109.6,1363.2,2073.7,1363.4Zm-31,40c-.2.1-.2.2-.3.2C2042.4,1403.7,2042.4,1403.6,2042.7,1403.4Z" fill="#ebf2ff"/>
          <path id="Path_161" data-name="Path 161" d="M2038.5,1695.3c-69.5-97.7-117.9-12-71.1,68.3,15.9,27.2,57.7,80.8,94.2,52.4C2098.1,1787.5,2057.1,1721.4,2038.5,1695.3Z" fill="#ebf2ff"/>
          <path id="Path_162" data-name="Path 162" d="M2355.9,1566c0,40.6-43.6,69.3-67.2,95.5-15.2,17-33.4,99.3-4.4,111.9,34.1,14.8,72-78.6,77.3-97.9,6.9-25,9.9-51.2,11.4-77.1.3-5.8,4.3-28,.9-32.4C2371.5,1563,2355.9,1548,2355.9,1566Z" fill="#ebf2ff"/>
          <path id="Path_163" data-name="Path 163" d="M2458.3,1476.9c-5.8-29.7-27.6-56.5-36.8-85.6-10.3-32.6-13.8-67.2-25.7-99.3-11.3-30.3-57.8-88.8-46.8-26.8,12.6,71.3,44,137.3,46.7,210.8.8,21.2-15.5,70.1,8.4,74.4C2437,1556.3,2462.9,1500.2,2458.3,1476.9Z" fill="#ebf2ff"/>
        </g>
        <path id="Path_164" data-name="Path 164" d="M1243.3,598.9c34.5,16.3-22.9,39.9-35.3,47.3-18.1,10.7-55.9,47.3-78.1,42.3-19.3-4.4-10.9-8.9-14.8-24.9-1.7-6.7-4.8-27.8-5.5-33.5-.8-7.3-14.2-8.5-7.6-18.3,3.7-5.5,23,3,27.6,2.5,16.5-2,38.3-11,55.1-15.3H710.9c-21.1,0-136.5-15.3-151.5.5s0,119.8,0,140.4v693.5c0,8.7-5.6,43.6,0,50.4,6.7,8.1,44,2.6,55.8,2.6H761c18,0,40.1,3.6,57.8,0,24.2-4.9,45.3-23.5,71-30.4,40.8-11,96.7,3.4,133.8-11.3,11.4-4.5,7.6-14,22.6-16.4,12.8-2.1,27.6,11.1,40.5,6.2,13-5,12-21.1,23.3-26.1,15.4-6.9,27.5,1.5,42.5,6.9,43.6,15.6,82.4,38.4,127.8,24,29.4-9.4,55.2-13.3,87.8-18.4,47.4-7.4,89.3,23.8,133.9,15.1-29.2-40.1-67.5-72.7-95.8-113.4-9.1-13.1-30.7-41.9-34.5-56.5-4.5-17.4,9-32.6,7.1-47.1-2.4-17.6-28.1-40.1-37.1-58.9-9.8-20.3-12.9-40.9-15.8-63-2.8-21.4-2.7-46.5-17.4-63.9-18.7-22.2-40.7-13.3-64.1-25.9-38-20.5-37.4-71.1-24.3-106.9,18.9-51.5,48.5-54.9,94.9-42.2,11.7,3.2,95.1,12.4,101.6-13,7.7-30.3-48-16.1-51.6-39.1-30.3,6-42.5-17.8-73.7-6.9-17.3,6.1-51.9,42.4-38.6,4.9,7.9-22.3,45.7-48.8,64.9-57.1,10.4-4.5,34.6-4.3,40.8-12.9,8.2-11.3-9.8-24-9.9-35.8-34.1,41.1-32.9-22.3,14.5-41.7,38.1-15.6,28.4,19.7,46.5,23.2,20.9,4.1,65.5-30.1,85.6-25.8,56,12,52.9-31.2,86.5-31.3,7.2,0,10.2,9.2,12.5,9.6,7.1,1.5,28.7,5.5,41.4,6.5,37.9,3,76,4,113.7,7.7,42.7,4.2,136.5-10.5,125.5,61.8-2.8,18.2-16.2,41.7-34.7,28.2-9.7-7.1-1.6-27.4-11.1-31.4-7.8-3.3-46.9,13.7-50.3,21.4-9.6,21.5.2,1.7,9.3,15.6,5,7.7,17.3,8.2,23.2,21.1,4.6,10.1,3.5,23,1.4,33.6-6,29.8-27.2,45.4-54.1,24.3-10.2,4.6,12.5,51.9,12.3,63.2-.8,36.4-26.7,25.1-37.2,48.7-5.8,13.1,6.9,32.6,0,46.4,6.4-12.8-26.2,15.4-17.4,13.5-11.8,2.5-9.7,9.8-24-1.6-17.8-14.3-.6-59.8-27-70.3-24.7-9.9-26.9,28.7-33.4,43.7-28.3,64.9-35-2.6-46-33.7-11.5-32.6-20.9-25.6-51.3-39.8-14.5-6.7-43-35.1-47.5-3.3-1.8,12.8,47.8,46,56.5,62.7,13.3,25.5,18.1,62.1,5.5,88.4-11.9,24.9-38.6,31.3-54.9,51.1-17,20.6-12.4,30.6-17.1,57.6-3.8,22-14.2,45.6-11.3,68.3,2.4,18,18.8,57.1,32.4,66.1,27.1-17.7-11.3-86.4-2.4-110.2,10.4-28,18.1-9.4,24.9,9.7,10.3,29,14.9,65.1,20,95.3,9.8,57.9,14.2,118.5,76.6,138.9,20.6,6.7,48,16.5,70.9,22.9,38.7,10.9,80.7,1.8,118.1,19.3,20-85.8,43-176.3,96-248.4,25.4-34.6,57.4-63.8,96.5-82.1,31.4-14.7,32-16.2,29.7-53.3-1.5-23.5-3.4-71.1-18.4-81.2-14-9.4-33.7.5-47.5-15.9-11.2-13.3-8.3-31.4-10.5-47-1.2-8.3,4.8-19.9.7-27.7-4-7.6-15.7-6.5-18.7-16.6-6.2-21.2-.5-11.8,9.8-32,18.5-36.2,17.7-78.9,28.5-117.4,4.3-15.2,8.9-33.3,17.9-46.4,12.4-18.1,25.9-11.6,38-24.3,8.2-8.6,19.6-53.6,9-63.9-3.9-3.9-7.9,0-14.7-2.5-30-10.9-84.6,0-116.2,0H1515.9Q1379.55,598.7,1243.3,598.9Zm-132.6,526.2c-15.5,40.5-45.5,72.7-64.6,111.3-9.7,19.6-13.1,33.2-13.5,54.3-.2,10.5,7.5,28.5,2.8,38.7-29.1,63.6-55.1-99.6-56.4-112.5-4.8-49.8-22.3-75.5-41.2-118.6-13.5-30.8,5.2-62.1-10-89.1-8.3-14.8-35.4-26.3-51.3-42.7-28.6-29.4-42.4-61-57.3-98.6-3.5,19.1-18.5,9.4-24.4-1.6-7.4-14,2.8-32.8,6.2-46,7.8-30.7,16.9-80.7-15.9-103-18.4-12.5-49.8,13.2-60.2-1.4-7.8-10.9,36.2-49.1,44.9-53.7,25.3-13.6,67.1-5.3,94.4-5,43.6.5,81.3.9,123.3-9.5,22.3-5.5,51.6-14.8,47.6,9.1-1.2,6.8-25.1,24.9-30.2,30.9s-34.8,36.1-29.7,47c9.6,20.2,34.2-20,40.9-23.5,21.9-11.5,41.8-7.2,53.6,16.6,14.4,29.1-.8,36.9-22.7,48.8-36.1,19.6-57.3,36.8-84.9,67.9-9.8,11-20.8,26.6-35.9,30.3-6.6,1.6-26.6-5.8-30.1-4.4-12.2,4.9-15.5,12.3-17.9,25.4-4.9,27.1.1,11.2,13.5,23.2,25.3,22.7,42.6,28.7,38.9,71.8,49.4-25.6,66.2-15.2,99.1,26.8C1062.5,1059.4,1140.1,1048.2,1110.7,1125.1Zm673.1-32.6c.7-19,33.6-9.6,21.8,5.5C1799.6,1105.7,1781.5,1105.3,1783.8,1092.5Zm-36.6-59c4.4-22.2,45.7-31.5,34.9-11C1802.9,1060,1738.3,1078.5,1747.2,1033.5Zm-17.6,53.5c-2.3-20,49.5-15.6,45.9,2.2C1772.7,1103.1,1731,1099,1729.6,1087Zm194.7,50c-1.3,28.4-23.2,50.4-44.3,67.1-36.5,28.8-53.4,21.6-94.2,27.9-5.7.9-39.1,21.4-41,20.7-16.7-5.6-1.7-16.5-1.4-25,.9-22.9,8.1-39.9,26.6-60.5a191.42,191.42,0,0,1,51.8-40.1c9.8-5,32.6-12,40.4-19.3,20.7-19.4.4-23.4,9.2-41.8C1895.6,1015.1,1925.4,1114.3,1924.3,1137Z" fill="#ebf2ff"/>
      </g>
    </g>
    <g id="color_shadow">
      <g id="Group_20" data-name="Group 20">
        <path id="Path_165" data-name="Path 165" d="M2416.2,1076.2c-3.2-73-73.5-99.3-114.8-147.9C2252.1,870,2266,786,2216.2,726c-40.9-49.3-106.4-82.9-170.1-59.8-63.7,23.2-76.9,58.5-21.8,99.5,45.2,33.6,59.3,89.7,49.7,147.1-10.2,60.7-52.6,133.1,3.1,186.6,48.1,46.2,139.3,30.8,198.2,31.6,14.2.2,39.3-1.7,53.2,1.6,9,2.2,26,18.9,34.9,18.9C2397.8,1151.3,2417.5,1105.2,2416.2,1076.2Z" fill="#ffe2db"/>
      </g>
    </g>
    <g id="outline">
      <g id="Group_21" data-name="Group 21">
        <line id="Line_9" data-name="Line 9" x2="10" y2="959" transform="translate(514 552.4)" fill="none" stroke="#003188" stroke-linecap="round" stroke-linejoin="round" stroke-miterlimit="10" stroke-width="7"/>
        <line id="Line_10" data-name="Line 10" x2="1525" transform="translate(514 552.4)" fill="none" stroke="#003188" stroke-linecap="round" stroke-linejoin="round" stroke-miterlimit="10" stroke-width="7"/>
        <line id="Line_11" data-name="Line 11" x2="1000" transform="translate(524 1511.4)" fill="none" stroke="#003188" stroke-linecap="round" stroke-linejoin="round" stroke-miterlimit="10" stroke-width="7"/>
        <line id="Line_12" data-name="Line 12" y2="68" transform="translate(2042 567.4)" fill="none" stroke="#003188" stroke-linecap="round" stroke-linejoin="round" stroke-miterlimit="10" stroke-width="7"/>
        <line id="Line_13" data-name="Line 13" x2="44" transform="translate(1727 1511.4)" fill="none" stroke="#003188" stroke-linecap="round" stroke-linejoin="round" stroke-miterlimit="10" stroke-width="7"/>
        <line id="Line_14" data-name="Line 14" x2="373" transform="translate(864 1549.4)" fill="none" stroke="#003188" stroke-linecap="round" stroke-linejoin="round" stroke-miterlimit="10" stroke-width="7"/>
        <line id="Line_15" data-name="Line 15" x2="65" transform="translate(1141 1597.4)" fill="none" stroke="#003188" stroke-linecap="round" stroke-linejoin="round" stroke-miterlimit="10" stroke-width="7"/>
        <line id="Line_16" data-name="Line 16" x2="17" transform="translate(1384 1577.4)" fill="none" stroke="#003188" stroke-linecap="round" stroke-linejoin="round" stroke-miterlimit="10" stroke-width="7"/>
        <line id="Line_17" data-name="Line 17" x2="73" transform="translate(791 503.4)" fill="none" stroke="#003188" stroke-linecap="round" stroke-linejoin="round" stroke-miterlimit="10" stroke-width="7"/>
        <line id="Line_18" data-name="Line 18" x2="132" transform="translate(1479 503.4)" fill="none" stroke="#003188" stroke-linecap="round" stroke-linejoin="round" stroke-miterlimit="10" stroke-width="7"/>
        <line id="Line_19" data-name="Line 19" x2="21" transform="translate(1663 503.4)" fill="none" stroke="#003188" stroke-linecap="round" stroke-linejoin="round" stroke-miterlimit="10" stroke-width="7"/>
        <path id="Path_166" data-name="Path 166" d="M1977.1,706.7c-11.3,36.5-22.7,74.9-15.4,112.4" fill="none" stroke="#003188" stroke-linecap="round" stroke-linejoin="round" stroke-miterlimit="10" stroke-width="7"/>
        <path id="Path_167" data-name="Path 167" d="M1961.7,818.2l-33.3,51c-1.1,1.6-2.2,3.4-2.1,5.4,0,2.2,1.5,4,2.9,5.7,4.9,5.7,15.6,9.8,21.4,14.6" fill="none" stroke="#003188" stroke-linecap="round" stroke-linejoin="round" stroke-miterlimit="10" stroke-width="7"/>
        <path id="Path_168" data-name="Path 168" d="M1950.5,894.9c.1,16.4.2,44.4,1.4,60.8.5,7.2,1.2,14.6,5,20.8,5.5,9,16.5,13.1,26.8,15a107.156,107.156,0,0,0,53.3-3.6" fill="none" stroke="#003188" stroke-linecap="round" stroke-linejoin="round" stroke-miterlimit="10" stroke-width="7"/>
        <path id="Path_169" data-name="Path 169" d="M1952,926.4a36.66,36.66,0,0,0,26.5-11.6" fill="none" stroke="#003188" stroke-linecap="round" stroke-linejoin="round" stroke-miterlimit="10" stroke-width="7"/>
        <path id="Path_170" data-name="Path 170" d="M1982,823.7a57.86,57.86,0,0,0-1.5,13.1,59.943,59.943,0,0,0,1.9-11.1" fill="none" stroke="#003188" stroke-linecap="round" stroke-linejoin="round" stroke-miterlimit="10" stroke-width="7"/>
        <path id="Path_171" data-name="Path 171" d="M1971.9,796.4a81.359,81.359,0,0,1,37,2.7" fill="none" stroke="#003188" stroke-linecap="round" stroke-linejoin="round" stroke-miterlimit="10" stroke-width="7"/>
        <path id="Path_172" data-name="Path 172" d="M2014.7,994.9a253.576,253.576,0,0,1,12.6,113.3" fill="none" stroke="#003188" stroke-linecap="round" stroke-linejoin="round" stroke-miterlimit="10" stroke-width="7"/>
        <path id="Path_173" data-name="Path 173" d="M2065.8,1105.3c-77.2,5.9-143.4,62-182.2,129.1s-65.8,144.4-81.3,220.3c61.6,18.9,131.5,46.9,185,82.9" fill="none" stroke="#003188" stroke-linecap="round" stroke-linejoin="round" stroke-miterlimit="10" stroke-width="7"/>
        <path id="Path_174" data-name="Path 174" d="M1837.3,1431.6a308.26,308.26,0,0,1,150.1,44" fill="none" stroke="#003188" stroke-linecap="round" stroke-linejoin="round" stroke-miterlimit="10" stroke-width="7"/>
        <path id="Path_175" data-name="Path 175" d="M2044.2,1360.1c-23,11.8-32.1,39.4-39.1,64.2q-22.2,78.75-44.3,157.6c-16.3,58-33.4,117.6-70.1,165.3-15,19.5-33.9,37.1-57.5,44-30.1,8.8-62.7-1.4-89.8-17-62.3-35.9-104.3-98-141.8-159.3-35.8-58.5-69.5-118.3-103.2-178.1" fill="none" stroke="#003188" stroke-linecap="round" stroke-linejoin="round" stroke-miterlimit="10" stroke-width="7"/>
        <path id="Path_176" data-name="Path 176" d="M1562.4,1362.5a1090.148,1090.148,0,0,0,181.1,180.7c15.1,11.9,30.8,23.6,42.7,38.6,6.5,8.1,10.7,22.1,1.7,27.2-6.6,3.7-15.3-1.6-17.9-8.7s-.9-14.9.9-22.2a910.7,910.7,0,0,1,34-108.2" fill="none" stroke="#003188" stroke-linecap="round" stroke-linejoin="round" stroke-miterlimit="10" stroke-width="7"/>
        <path id="Path_177" data-name="Path 177" d="M2035.5,1397.7c10.2-4.4,20.5-8.9,30.7-13.3" fill="none" stroke="#003188" stroke-linecap="round" stroke-linejoin="round" stroke-miterlimit="10" stroke-width="7"/>
        <path id="Path_178" data-name="Path 178" d="M2251.2,1221.1a540.4,540.4,0,0,1,40.4,167.4" fill="none" stroke="#003188" stroke-linecap="round" stroke-linejoin="round" stroke-miterlimit="10" stroke-width="7"/>
        <path id="Path_179" data-name="Path 179" d="M2292.9,1291.5a139.96,139.96,0,0,1,21.3,72.7" fill="none" stroke="#003188" stroke-linecap="round" stroke-linejoin="round" stroke-miterlimit="10" stroke-width="7"/>
        <path id="Path_180" data-name="Path 180" d="M2345.5,1236.5c67.6,166.2,21.9,356.6,56.7,532.6" fill="none" stroke="#003188" stroke-linecap="round" stroke-linejoin="round" stroke-miterlimit="10" stroke-width="7"/>
        <path id="Path_181" data-name="Path 181" d="M2365.9,1580.1a275.788,275.788,0,0,1-63,88.6c-11.4,10.7-24.4,21.5-27.8,36.7a7.994,7.994,0,0,0,.2,5.3,7.329,7.329,0,0,0,4,3.1c7.8,2.8,16.3-1.3,23.5-5.6a259.12,259.12,0,0,0,54.7-44.3q-30.15,42.6-60.4,85.2" fill="none" stroke="#003188" stroke-linecap="round" stroke-linejoin="round" stroke-miterlimit="10" stroke-width="7"/>
        <path id="Path_182" data-name="Path 182" d="M1969.7,1656.6a802.574,802.574,0,0,0,87.5,130.1" fill="none" stroke="#003188" stroke-linecap="round" stroke-linejoin="round" stroke-miterlimit="10" stroke-width="7"/>
        <path id="Path_183" data-name="Path 183" d="M1991.7,1742.3q19.05,28.05,38,56" fill="none" stroke="#003188" stroke-linecap="round" stroke-linejoin="round" stroke-miterlimit="10" stroke-width="7"/>
        <path id="Path_184" data-name="Path 184" d="M2369.8,1168.3c32.5,34.4,50.4,79.8,65.1,124.8a1256.917,1256.917,0,0,1,50.6,221.8,288.874,288.874,0,0,0-87.1,34.5" fill="none" stroke="#003188" stroke-linecap="round" stroke-linejoin="round" stroke-miterlimit="10" stroke-width="7"/>
        <path id="Path_185" data-name="Path 185" d="M2398.2,1511.6a368.631,368.631,0,0,1,87.8-35.9" fill="none" stroke="#003188" stroke-linecap="round" stroke-linejoin="round" stroke-miterlimit="10" stroke-width="7"/>
        <path id="Path_186" data-name="Path 186" d="M2453.9,1546.7a811.908,811.908,0,0,1,14.5,156.3" fill="none" stroke="#003188" stroke-linecap="round" stroke-linejoin="round" stroke-miterlimit="10" stroke-width="7"/>
        <path id="Path_187" data-name="Path 187" d="M2470.8,1727.2v6.6" fill="none" stroke="#003188" stroke-linecap="round" stroke-linejoin="round" stroke-miterlimit="10" stroke-width="7"/>
        <path id="Path_188" data-name="Path 188" d="M1484.8,1419.2a569.451,569.451,0,0,0-62.6-78.4c-14.9-15.7-30.9-30.7-41.8-49.4s-16-42.2-7.5-62.1" fill="none" stroke="#003188" stroke-linecap="round" stroke-linejoin="round" stroke-miterlimit="10" stroke-width="7"/>
        <path id="Path_189" data-name="Path 189" d="M1389,1266.6c-8-10.7-5.3-25.8-1.6-38.6,3.1-10.4,6.6-20.7,10.6-30.9" fill="none" stroke="#003188" stroke-linecap="round" stroke-linejoin="round" stroke-miterlimit="10" stroke-width="7"/>
        <path id="Path_190" data-name="Path 190" d="M1420.3,1183.4a141.427,141.427,0,0,0-7.9,55.5" fill="none" stroke="#003188" stroke-linecap="round" stroke-linejoin="round" stroke-miterlimit="10" stroke-width="7"/>
        <path id="Path_191" data-name="Path 191" d="M1433.4,1230.8c-6.9-42.6,7.5-88.2,37.8-119.1,1.7-1.8,4.2-3.7,6.5-2.7,2,.8,2.7,3.4,2.8,5.6,1.2,18.2-11.3,34.3-14.8,52.2-2.8,14.1,0,28.9-3,43-.5,2.5-1.2,5-.9,7.5.3,2.7,1.7,5.1,3,7.4,10,18,27.6,37.8,30.3,58.2" fill="none" stroke="#003188" stroke-linecap="round" stroke-linejoin="round" stroke-miterlimit="10" stroke-width="7"/>
        <path id="Path_192" data-name="Path 192" d="M1503.1,1288.7a136.963,136.963,0,0,1-2.1-57.7" fill="none" stroke="#003188" stroke-linecap="round" stroke-linejoin="round" stroke-miterlimit="10" stroke-width="7"/>
        <path id="Path_193" data-name="Path 193" d="M1501,1229.8a192.566,192.566,0,0,1-6.2-44.6c-.2-10.3,1.2-22.2,9.7-28a7.383,7.383,0,0,1,4.5-1.5c3.2.4,4.8,4,5.8,7.1l17.7,57c13.1,42.2,26.3,86.4,18.6,130" fill="none" stroke="#003188" stroke-linecap="round" stroke-linejoin="round" stroke-miterlimit="10" stroke-width="7"/>
        <path id="Path_194" data-name="Path 194" d="M1512.7,1218.5h6.7" fill="none" stroke="#003188" stroke-linecap="round" stroke-linejoin="round" stroke-miterlimit="10" stroke-width="7"/>
        <path id="Path_195" data-name="Path 195" d="M914.2,664.5c-14.9-12.8-32.1-12.1-49.6-8.7-16.5,3.2-32.7,0-49.2-.8-13.3-.6-24.4-.1-37,4.2-9.9,3.4-11.2,6.8-18.1,12.5-5,4.1-11.8,4.8-16.3,9.4-4.3,4.3-8.5,12.5-13.2,17.8-3.1,3.5-12.8,13.2-7,18.6,5.3,5,15.5-5.5,20.7-7.5,9.6-3.7,38-8.6,45.8-.9,4.4,4.3,4.5,11.6,7.1,16.8,4.7,9.4,9,10.4,7.5,22.3-1.1,8.9-3.6,15.5-1.9,24.5,2.1,11.1,4.6,15.7-1.5,26.4-5.6,9.8-12.6,18.1-10.2,30.5,1.8,9.3,4.6,11.9,3.3,21.9-1.9,15-.3,16.8,6.5,28.7,3.7,6.3,4.5,20.9,11.8,22.8,3.7-7.7-3.3-18.8.6-25.6,5.2-8.9,8.7,1.4,10.7,8.5,3.2,11.1,1.5,24.2,6.6,34.7,4,8.1,12.1,15.5,17.4,22.8,4.6,6.3,6.8,8.7,14,10.3,5.7,1.3,9.6-3.2,14.7,2.5,3.4,3.8,2.6,11.7,5.5,16.1a24.661,24.661,0,0,0,14.4,10c-.8-4-1.9-8.2-1.9-12.2,8.6,4.6,6.2,18.5,14.1,23.5,7.2,4.6,15.1-3.9,19.7,7.9" fill="none" stroke="#003188" stroke-linecap="round" stroke-linejoin="round" stroke-miterlimit="10" stroke-width="7"/>
        <path id="Path_196" data-name="Path 196" d="M881.4,877.6c-6.9,9.1-29,49.6-8.5,53.1,10.9,1.9,20.1-19.1,29.9-14.4,7.3,3.5,2.3,15.9,3,21.7,1.1,9.2,4.6,10.9,10.7,16.4,7.1,6.4,6.3,3.9,6.6,14,.2,6.4-2.3,13.1,6.1,15.1" fill="none" stroke="#003188" stroke-linecap="round" stroke-linejoin="round" stroke-miterlimit="10" stroke-width="7"/>
        <path id="Path_197" data-name="Path 197" d="M938.6,987.8a4.03,4.03,0,0,1,4.2,2.1" fill="none" stroke="#003188" stroke-linecap="round" stroke-linejoin="round" stroke-miterlimit="10" stroke-width="7"/>
        <path id="Path_198" data-name="Path 198" d="M888.8,872.3c4.1-3.9,14.3-8.6,20.1-6.2,7.2,3,4.1,9.7,8.5,14,9.3,8.9,13.7-3.4,18.6-9.8,7.4-9.7,20.9-10.1,26.1-21.5,2.6-5.6,2-12.1,4.6-17.8,2.9-6.5,8.8-13.7,13-19.4,6.8-9.1,20.3-24.8,33.1-23.7,5.9.5,6.4,5.6,14.8,3.9,5.9-1.1,11.2-3.2,12.1-9,.8-5.1-5.5-7.9-3-14.3,1.6-4.1,11.1-9.9,15.6-8.7,5.8,1.6,4.1,8.9,8.4,10.6,7.5,3,13.7-6.4,13.9-12.7.2-5.6-3.4-9.5-4.9-14.7-1.8-6.4.8-11.4-.2-17-2.6-15-18.7-5.6-25.3-15.8-3.4-5.3,1.2-11.3-6.5-12.8-6.7-1.3-11.8,9-15.1,12.7-10,11.2-20.2,14.3-27.1,27.4-2.3,4.4.7,7.6-5.8,8-5,.3-12.7-9.6-15.1-13.1-10.9-15.6-3.5-26.2,9.6-36.3,9-7,26.3-8.6,30-16.4,2.1-4.5-2-8.5,2.8-13.9,4.3-4.9,9.4-3.3,14.4-5.4,10.4-4.4,17.7-13.9,4.8-20.2-15-7.4-20.9,5.8-31.2,13-13.6,9.4-28.8,1.4-43.9,6.9-11.7,4.3-20.7,10.1-33.1,4.5" fill="none" stroke="#003188" stroke-linecap="round" stroke-linejoin="round" stroke-miterlimit="10" stroke-width="7"/>
        <path id="Path_199" data-name="Path 199" d="M924.8,636.9c-13.3-2.8-10,11.8.8,13.6,6.9,1.1,17.8-4.8,24.8-6.1,7.5-1.4,28.5-7.9,10.4-12.5-9.5-2.4-19,4.7-28.7,4" fill="none" stroke="#003188" stroke-linecap="round" stroke-linejoin="round" stroke-miterlimit="10" stroke-width="7"/>
        <path id="Path_200" data-name="Path 200" d="M995.8,620a9.132,9.132,0,0,0-11.3,5.1c1.3,1.1,2.2.8,3.9,1.3" fill="none" stroke="#003188" stroke-linecap="round" stroke-linejoin="round" stroke-miterlimit="10" stroke-width="7"/>
        <path id="Path_201" data-name="Path 201" d="M995.8,639.1a2.476,2.476,0,0,0-1.1,2.1" fill="none" stroke="#003188" stroke-linecap="round" stroke-linejoin="round" stroke-miterlimit="10" stroke-width="7"/>
        <path id="Path_202" data-name="Path 202" d="M1019.2,621a4.18,4.18,0,0,1,4.2-2.1" fill="none" stroke="#003188" stroke-linecap="round" stroke-linejoin="round" stroke-miterlimit="10" stroke-width="7"/>
        <path id="Path_203" data-name="Path 203" d="M1067.9,607.3c-4.5.6-12.5,5.1-8.4,10,4.7,5.5,23.1-5.4,28.3-6.8,10.9-3,33.9-.3,39.5-11.2-6.5-3.2-16.2-2.3-22.3,1.7" fill="none" stroke="#003188" stroke-linecap="round" stroke-linejoin="round" stroke-miterlimit="10" stroke-width="7"/>
        <path id="Path_204" data-name="Path 204" d="M1108.2,624.2c22.7-9.4,5.5,47.6,6.5,55.1,1.8,13.3,12.8,19.9,23.5,11.7,9.5-7.2,10.4-21.3,22.5-26.1,11.1-4.5,20.5-.1,31.2-8,4.3-3.2,7.7-9,12.4-11.6s10.7-1.2,15.5-3.5c11.7-5.8,4.5-11.5,10.6-20.7,4.8-7.3,15-5,21.8-8.5" fill="none" stroke="#003188" stroke-linecap="round" stroke-linejoin="round" stroke-miterlimit="10" stroke-width="7"/>
        <path id="Path_205" data-name="Path 205" d="M1127.3,615.7c27,2,34.9-29.9,61.5-18.5,20,8.5,36.6-.4,57.2,2.6" fill="none" stroke="#003188" stroke-linecap="round" stroke-linejoin="round" stroke-miterlimit="10" stroke-width="7"/>
        <path id="Path_206" data-name="Path 206" d="M955.6,980.4c2.3-4,5.8-7.5,10.5-7.3a49.2,49.2,0,0,1,.3,11.5c12.7-1.6,15.6-2.2,27.4,4.5a191.76,191.76,0,0,0,31,14.6c6.7,2.4,5.9-1.9,9.3,5.8,2.2,5-1.9,12.2,2,17.4,3.8,5,21.6,12.9,27.6,13.8,8.6,1.2,12.1-3,17.1,5.5,4.2,7.2-1.8,9.1,7.1,11.7,6.5,1.9,13.7-3.8,21-.5,9.2,4,5,5.5,7.1,12.3,4.3,14.1,6.4,17.5-2.6,33.7-9.5,17.1-7.8,40.5-18.8,56-3.8,5.3-10.3,8.3-14.4,13.4-5.9,7.6-8.6,16-11.3,24.9-4.2,13.3-8.2,28.3-18.7,36.4-3.5,2.7-6.3-.5-8.7,5-2.1,4.5,3.1,9.3,2.1,13.5-2.6,11.3-18.2,10.8-20.3,23.4-1.1,6.4,1.9,8.6,3,14.6,1.5,8.2-2,12.7-3.5,20.3-1.3,6.3,10,30.8,6,33-5.7,3.2-17.2-11.6-19.1-15.3-5-9.8-2.6-21.2-6-31.4-2.7-8.1-8.3-11.1-12.9-17.9-7.4-10.8-6.9-24.4-7.8-36.9-2.4-34-9-68.6-15.1-102.1-1.7-9.1-3.3-18.1-10.8-24.4-5.6-4.7-12-4.5-15.6-11.5-4.7-9,1.2-20.8-2.9-29.9-2.6-5.8-9.5-7.9-11.9-13.6-7.8-18.6,17.8-32.8,13.2-53" fill="none" stroke="#003188" stroke-linecap="round" stroke-linejoin="round" stroke-miterlimit="10" stroke-width="7"/>
        <path id="Path_207" data-name="Path 207" d="M946,1030.2c-4.9,6-8,16.7-6.4,24.4" fill="none" stroke="#003188" stroke-linecap="round" stroke-linejoin="round" stroke-miterlimit="10" stroke-width="7"/>
        <path id="Path_208" data-name="Path 208" d="M1401.2,679.6c-6.9-7.5-1.5-16.8-6.5-23.8-8-11.2-19.2.9-28.1.8-9.6-.1-13.1-6-23.3,1.6-7.2,5.4-22.6,20.5-26.5,28.6-4.3,8.9,2.5,11.4,6.5,19.5,2.3,4.5-2.1,4.8,2.6,8.9,2.4,2.1,8.2,3,11.3,1.9,10.5-4.1,3.1-14.7,5-22.5,2-8.6,11.6-13.6,18.4-17.7,6.4,11.3-9.3,23.2-6.6,34.8,2.1,8.9,13.8,16.8-.3,22.5-4.4,1.8-10.7.6-15.6,1.7-7.3,1.7-5.2,2.9-12.7,1.1-6.9-1.6-9.1-5.7-17-.4-6.2,4.2-7.6,11.8-13.8,16.1-5,3.5-27.3,9.8-29.7,15.2-2.6,5.8,4.9,6.4,6.8,11.4,3.3,8.3-.9,12.6-8.3,16.1-6,2.8-8.7.3-14.2,1.9s-15.9,11.3-11.6,18.6c2.6,4.4,10.7,3.2,15.2,5.9,6.8,4,3,7.9,12.2,4.6,9.1-3.3,11.4-14.6,18.3-20.1,5.4-4.3,9.9-1.9,15.5-4.8,6.3-3.4,5.2-12.2,13.7-6.9,5.1,3.2-.2,11,10.3,10" fill="none" stroke="#003188" stroke-linecap="round" stroke-linejoin="round" stroke-miterlimit="10" stroke-width="7"/>
        <path id="Path_209" data-name="Path 209" d="M1334.2,808.6c3.1,1.2,4,3.9,3,7.1" fill="none" stroke="#003188" stroke-linecap="round" stroke-linejoin="round" stroke-miterlimit="10" stroke-width="7"/>
        <path id="Path_210" data-name="Path 210" d="M1347.4,794.4c6.6,4.6,14.2,7.7,12.2,17.3" fill="none" stroke="#003188" stroke-linecap="round" stroke-linejoin="round" stroke-miterlimit="10" stroke-width="7"/>
        <path id="Path_211" data-name="Path 211" d="M1347.4,813.7v4.1" fill="none" stroke="#003188" stroke-linecap="round" stroke-linejoin="round" stroke-miterlimit="10" stroke-width="7"/>
        <path id="Path_212" data-name="Path 212" d="M1367.7,820.8c-1,4.5.3,8.3,4.1,10.1,3-3.6,2.8-20.3,10.2-19.4,7.9.9,4.7,17.6,15.4,19.6,9.4,1.8,14.8-6.9,21.2,4.1,7.8,13.4-7.8,22.5-19.4,24-10.9,1.4-24.2-9.6-34.4-5s-9.1,15.5-23.5,9.1c-10.6-4.7-17.8-17.1-29.5-20-10.2-2.5-16.7,7.8-25.4,5.8-3-.7-4.7-5.7-7.8-6.9-2.9-1.1-5.9.6-8.7.4-10.4-.9-15.6-2.7-22.1,7.2-3.1,4.8-3.7,9.9-7.5,14.6-4.6,5.7-10.9,8.1-14,15.4-3.4,8-1.8,17.6-4.8,25.8s-9.4,14.3-12.9,22.4c-7.9,18.4,3.6,30.5,5.8,48.3,1.6,13.3.8,30.2,18,34.5,11,2.8,13.6-9.6,22.5-8.3,5.6.9,6.1,9.2,10.4,11.1,8.1,3.6,7.6-2.8,12.8-6.6,15.1-11.1,11.7,7.8,18.4,17,3.1,4.3,7.7,3.9,11.5,6.8,6.5,5.1,8,10.5,10.7,18.4,3.9,11.8,13.7,23.7,11.2,36.6-1.9,10-7.3,17.8-7,28.4" fill="none" stroke="#003188" stroke-linecap="round" stroke-linejoin="round" stroke-miterlimit="10" stroke-width="7"/>
        <path id="Path_213" data-name="Path 213" d="M1325,1134.6c0,7.3-1.2,15,2.2,21.6,4,7.8,12.6,12.9,17.2,20.8,5.4,9.1,8.1,8.7,15.2,14.1,3.3,2.5,5.9,3.7,7.1,8.4" fill="none" stroke="#003188" stroke-linecap="round" stroke-linejoin="round" stroke-miterlimit="10" stroke-width="7"/>
        <path id="Path_214" data-name="Path 214" d="M1528.2,923.4c.7-14.7-8.2-5.3-15.3-11.1-4.2-3.5-.7-9.4-3.2-12.6-4.5-5.5-4.9-.7-11.1-.7-5.9,0-10.4,1.2-15-4-2.4-2.8-6.9-16.4-4.1-19.8,6-7.1,16.8,7.9,23.2,11.5" fill="none" stroke="#003188" stroke-linecap="round" stroke-linejoin="round" stroke-miterlimit="10" stroke-width="7"/>
        <path id="Path_215" data-name="Path 215" d="M1522.1,893.9a7.949,7.949,0,0,0,8.1,2" fill="none" stroke="#003188" stroke-linecap="round" stroke-linejoin="round" stroke-miterlimit="10" stroke-width="7"/>
        <path id="Path_216" data-name="Path 216" d="M1551.5,894.9c5.9-.9,6.6,4.8,9.1,9.1" fill="none" stroke="#003188" stroke-linecap="round" stroke-linejoin="round" stroke-miterlimit="10" stroke-width="7"/>
        <path id="Path_217" data-name="Path 217" d="M1571.8,918.3c4.4,6.2,8.5-3,14,2.9,6,6.5,5.5,28.3,8.4,36.7,1.7,5.1,4.5,10.3,4.9,15.8.4,5.2-2.4,9.9.3,15,6.2,11.7,14.3,6.7,17.1-3.3,3.3-11.7,1.3-24.7,10.3-34.3,3.9-4.1,9.6-5.4,12.9-10.5,3.6-5.6,2.7-12.8,5.7-18.6a16.663,16.663,0,0,1,27.3-3.4c6.3,7,.2,9.4,2.8,17" fill="none" stroke="#003188" stroke-linecap="round" stroke-linejoin="round" stroke-miterlimit="10" stroke-width="7"/>
        <path id="Path_218" data-name="Path 218" d="M1676.4,943.7c.1,1.6,1.2,2.3,3,2" fill="none" stroke="#003188" stroke-linecap="round" stroke-linejoin="round" stroke-miterlimit="10" stroke-width="7"/>
        <path id="Path_219" data-name="Path 219" d="M1694.7,954.9c3.3,12.5-5,23.7,1.5,37,5.4,11.2,13.7,13.2,10.7-2.5-1.2-6-7.2-11.8-1.1-16.4,5.6-4.1,7.1.2,10.2,3.1,4.4,4.2.7,9.1,9,10.2,6.9.9,11.8-5.9,13.2-11.9,3.9-17.1-17.6-26-17.2-42.4.2-7,4.1-14.1,12.3-10.7,5.1,2.1,4.8,12.1,9.3,13.2,11,2.7,13.7-27.2,18.1-33,10.2-13.3,20.1-11.3,13.1-30.2-3-8.1-3.3-11.8-3.1-20.1.3-11.1,1.6-4.1-6.8-10.3-7-5.2-3.2-5.4-6.3-12.9-1.6-3.8-6.8-5.8-6.1-8.2" fill="none" stroke="#003188" stroke-linecap="round" stroke-linejoin="round" stroke-miterlimit="10" stroke-width="7"/>
        <path id="Path_220" data-name="Path 220" d="M1628.7,994.5c5,3.5-.2,11.7-4.1,15.2" fill="none" stroke="#003188" stroke-linecap="round" stroke-linejoin="round" stroke-miterlimit="10" stroke-width="7"/>
        <path id="Path_221" data-name="Path 221" d="M1407.3,780.2c-10.3-8.5-14.6,10.6-11.6,15.7,3.7,6.3,14.5,4.5,20.5,6.6,3.7,1.3,12.7,8.6,16.8,6.5,6.8-3.3-1.4-9.9-2.9-13.6-1.3-3.1-2.8-5-2.7-8.4,0-2.6,4.2-5.8,3.5-8.1-3-10.6-13.5,13.4-23.7,8.4" fill="none" stroke="#003188" stroke-linecap="round" stroke-linejoin="round" stroke-miterlimit="10" stroke-width="7"/>
        <path id="Path_222" data-name="Path 222" d="M1759.7,814.7c2.7-7,24.7,14.9,29.5,17.3" fill="none" stroke="#003188" stroke-linecap="round" stroke-linejoin="round" stroke-miterlimit="10" stroke-width="7"/>
        <path id="Path_223" data-name="Path 223" d="M1794.2,818.8c-.3-11.2-7.3-10.1,1.8-18.3,3.4-3,8.8-4.5,10.9-10.2,2.5-6.9-1.6-12.6-1.3-19.4.6-15.8,7.4-25.2-13.2-25.7-8-.2-12.4,2.4-16.3-6.7-4.8-11.1,3.1-16.7,9.6-22.2,2.6-2.2,5.8-7.5,8.7-9.2,8.5-4.8,11.6,4.5,18.2,5,8,.7,26.1-30.9,28.1-9,.7,7.8-13.2,17.1-9.9,24.8,2.3,5.5,14.7,6.5,19.2,11.2,3.7,4,3.2,10.8,9.3,11.7,8.4,1.3,8.8-5.7,7.5-11.1-2.2-8.9-13.8-14.5-8.9-25.3,3.4-7.7,12.4-5.1,16.2-10.9,4-6-17-27.7-1.5-24.8" fill="none" stroke="#003188" stroke-linecap="round" stroke-linejoin="round" stroke-miterlimit="10" stroke-width="7"/>
        <path id="Path_224" data-name="Path 224" d="M1411.4,683.7c7.1-1.3,8.4-7.1,13.2-11.2,7.5-6.4,4.2-3.1,12.4-2.9,11.5.1,20.1-1.4,31.3-5.1,8.8-2.9,18.2-6.6,26.7-10.1,4.2-1.7,7.1-8.9,11-2.4,1.3,2-1.4,7.6-2.1,9.5,7,3.1,19.8-3.6,23.6-10.4,5.1-9.3-6.8-10.9-2.4-17.5,7.3-11,33.3.9,43.2-1.1,9.6-1.9,29.5-16.5,34.9-.3a10.964,10.964,0,0,0-5.9,7.9c7.6,5.8,21.1-1.3,29.6-2.8,12.1-2.2,18.4.8,29.4,3.9,10.8,3,20.7,5,31.4,8.1,2,.6,13.6,4.1,15.3,2.7,3.8-2.9-.3-8.6,1.9-11.3,6.7-8.6,19.6,3.5,27,7.6,14,7.8,17-1.8,30.4-1.6,10,.2,16.9,10.2,27.4,11.8,7.2,1.1,13.3.8,20.9,3" fill="none" stroke="#003188" stroke-linecap="round" stroke-linejoin="round" stroke-miterlimit="10" stroke-width="7"/>
        <path id="Path_225" data-name="Path 225" d="M1831.8,663.4c6.5-.7,13.5-8.2,18.3-1" fill="none" stroke="#003188" stroke-linecap="round" stroke-linejoin="round" stroke-miterlimit="10" stroke-width="7"/>
        <path id="Path_226" data-name="Path 226" d="M1464.2,630.9c-7.5-.4-24.9,6.5-18.3,16.3" fill="none" stroke="#003188" stroke-linecap="round" stroke-linejoin="round" stroke-miterlimit="10" stroke-width="7"/>
        <path id="Path_227" data-name="Path 227" d="M1745.2,1034c5.1,1.2,1.5,5.7,2.9,9.5,1.6,4.3,3.7,3.9,6.9,6.7,3.9,3.3,7.7,6.3,8.5,11.9a2.2,2.2,0,0,0,2-.7" fill="none" stroke="#003188" stroke-linecap="round" stroke-linejoin="round" stroke-miterlimit="10" stroke-width="7"/>
        <path id="Path_228" data-name="Path 228" d="M1755.1,1026.3c8,1.2,9.1-18,17.6-10.6" fill="none" stroke="#003188" stroke-linecap="round" stroke-linejoin="round" stroke-miterlimit="10" stroke-width="7"/>
        <path id="Path_229" data-name="Path 229" d="M1785.3,1020.7c.2,9.2-1.9,12.5-7.8,19.2-4.4,5-6.3,7.9-2.8,14.6" fill="none" stroke="#003188" stroke-linecap="round" stroke-linejoin="round" stroke-miterlimit="10" stroke-width="7"/>
        <path id="Path_230" data-name="Path 230" d="M1736,1079.1c4.1,4,12.6,4.4,18,6.3,5.2,2,11.6,1.8,16.5,4.2" fill="none" stroke="#003188" stroke-linecap="round" stroke-linejoin="round" stroke-miterlimit="10" stroke-width="7"/>
        <path id="Path_231" data-name="Path 231" d="M1750.1,1072.8a15.148,15.148,0,0,0,4.9,2.1" fill="none" stroke="#003188" stroke-linecap="round" stroke-linejoin="round" stroke-miterlimit="10" stroke-width="7"/>
        <path id="Path_232" data-name="Path 232" d="M1771.2,1080.5" fill="none" stroke="#003188" stroke-linecap="round" stroke-linejoin="round" stroke-miterlimit="10" stroke-width="7"/>
        <path id="Path_233" data-name="Path 233" d="M1791,1044.6a6.147,6.147,0,0,1-.7,3.5" fill="none" stroke="#003188" stroke-linecap="round" stroke-linejoin="round" stroke-miterlimit="10" stroke-width="7"/>
        <path id="Path_234" data-name="Path 234" d="M1738.2,1050.2a15.919,15.919,0,0,0,1.4,5.6" fill="none" stroke="#003188" stroke-linecap="round" stroke-linejoin="round" stroke-miterlimit="10" stroke-width="7"/>
        <path id="Path_235" data-name="Path 235" d="M1791,1089.7c4.7-1.1,11-3.8,15.5-2.1" fill="none" stroke="#003188" stroke-linecap="round" stroke-linejoin="round" stroke-miterlimit="10" stroke-width="7"/>
        <path id="Path_236" data-name="Path 236" d="M1798,1096.7a20.727,20.727,0,0,1,4.2-1.4" fill="none" stroke="#003188" stroke-linecap="round" stroke-linejoin="round" stroke-miterlimit="10" stroke-width="7"/>
        <path id="Path_237" data-name="Path 237" d="M1864.9,1055.2a10.9,10.9,0,0,0-10.7,1.6c3.9,6,16.8,3,21.6,10.4,3.1,4.8,2.7,13.3-1.1,17.6" fill="none" stroke="#003188" stroke-linecap="round" stroke-linejoin="round" stroke-miterlimit="10" stroke-width="7"/>
        <path id="Path_238" data-name="Path 238" d="M1877.5,1049.5c4.8,0,11.9.7,15.5,4.3,4,4,3.1,10.4,6.2,14.8,4.9,6.8,14.5,5.6,19.1,12.6" fill="none" stroke="#003188" stroke-linecap="round" stroke-linejoin="round" stroke-miterlimit="10" stroke-width="7"/>
        <path id="Path_239" data-name="Path 239" d="M1859.9,1115.7c-8.9-12.4-20.3,2-25.5,9.2-2.3,3.2-6.1,9.3-11.1,7.8-3.4-1.1-1.8-3.8-4.2-5.7-12.2-10.3-20.8,12.7-25.5,21-8.8,15.6-26.3,12.9-37.6,25.8-12.6,14.4,5.9,26.7-4,42-5,7.7-13.4,11.7-14.6,22-.8,6.6,1.9,14.1,9.8,11.1,12-4.6,13-26.5,31-21.3,7.2,2.1,9.6,5.2,18.1,4.9,6.4-.2,13-1.5,19.2.2" fill="none" stroke="#003188" stroke-linecap="round" stroke-linejoin="round" stroke-miterlimit="10" stroke-width="7"/>
        <path id="Path_240" data-name="Path 240" d="M824.3,1482.8c19.7-23.1,51.9-22.3,79-27.4,17.2-3.2,31.6-10.4,48.8-14.4,20.5-4.8,98.1,16.5,78.5-22.5,18.7-6.1,37.4,20,54.8,13,17.5-7,6-26.2,18.8-33.1,21.4-11.6,32.8,13.9,47,23.7,21.8,15,47.5,14.3,71.8,19.4,20.1,4.2,27.7,12.3,49.9,1.9,22.3-10.4,26.3-20.3,51.7-21.5,6.9-.3,13.7,8.9,22.1,8.9,10.4,0,26.4-12.6,37.7-15,14.2-3,36.4-7.7,42.4,6.2" fill="none" stroke="#003188" stroke-linecap="round" stroke-linejoin="round" stroke-miterlimit="10" stroke-width="7"/>
        <path id="Path_241" data-name="Path 241" d="M1626.5,1410c16.9-1.9,20,5.1,31.3,13.5,6.7,5,3.4,10.2,14.2,13.9,10.8,3.6,24.5-3.7,36.1-.1,15.7,4.9,7.9,10.5,30.6,11.2,12.4.4,23.2-.3,35.1,2.3" fill="none" stroke="#003188" stroke-linecap="round" stroke-linejoin="round" stroke-miterlimit="10" stroke-width="7"/>
        <path id="Path_242" data-name="Path 242" d="M537.8,576.4c-7.7,10.8,3.8,20.6,13,11.7,6.7-6.5,2.4-15.4-6.2-13.1" fill="none" stroke="#003188" stroke-linecap="round" stroke-linejoin="round" stroke-miterlimit="10" stroke-width="7"/>
        <path id="Path_243" data-name="Path 243" d="M550.3,1468.9c-15.4,33.1,32.8,10.6,7.9,0" fill="none" stroke="#003188" stroke-linecap="round" stroke-linejoin="round" stroke-miterlimit="10" stroke-width="7"/>
        <path id="Path_244" data-name="Path 244" d="M2004.3,574.9c-15.4,33.1,32.8,10.6,7.9,0" fill="none" stroke="#003188" stroke-linecap="round" stroke-linejoin="round" stroke-miterlimit="10" stroke-width="7"/>
      </g>
      <path id="Path_245" data-name="Path 245" d="M2529.9,1622.1c5.6-.5.1,0,0,0" fill="none" stroke="#003188" stroke-linecap="round" stroke-linejoin="round" stroke-miterlimit="10" stroke-width="10"/>
      <path id="Path_246" data-name="Path 246" d="M440.9,1231.1c5.6-.5.1,0,0,0" fill="none" stroke="#003188" stroke-linecap="round" stroke-linejoin="round" stroke-miterlimit="10" stroke-width="10"/>
      <path id="Path_247" data-name="Path 247" d="M2372.8,812.2c.3.8-.4,1.7.8,2.6,2.7-.8.6-1.1.5-1.9" fill="none" stroke="#003188" stroke-linecap="round" stroke-linejoin="round" stroke-miterlimit="10" stroke-width="8"/>
      <path id="Path_248" data-name="Path 248" d="M1250.8,470.2c.3.8-.4,1.7.8,2.6,2.7-.8.6-1.1.5-1.9" fill="none" stroke="#003188" stroke-linecap="round" stroke-linejoin="round" stroke-miterlimit="10" stroke-width="8"/>
      <path id="Path_249" data-name="Path 249" d="M1518.3,1642.8c-2.6,4.1,4.4,4.3,1.1.2-2.2,1.2.5.6.2,1.1" fill="none" stroke="#003188" stroke-linecap="round" stroke-linejoin="round" stroke-miterlimit="10" stroke-width="8"/>
    </g>
    <g id="color_outline">
      <g id="Group_59" data-name="Group 59">
        <g id="Group_22" data-name="Group 22">
          <path id="Path_250" data-name="Path 250" d="M1573.2,1023.2c-38.4-24.6-88.9,1.6-91,47.2l-4.7,102.4,91-47.2a59.155,59.155,0,0,0,4.7-102.4Zm-11.4,64.7a25.229,25.229,0,1,1-7.7-34.9A25.116,25.116,0,0,1,1561.8,1087.9Z" fill="#ff3b0d"/>
        </g>
        <g id="Group_24" data-name="Group 24">
          <g id="Group_23" data-name="Group 23">
            <path id="Path_251" data-name="Path 251" d="M1980.2,699.4c-1.3-13.9-13.5-24.7-27.7-22.2-6.7,1.2-13.3,5.3-16.6,11.4-3.1,5.9-1.7,13.3,4.1,16.9a12.378,12.378,0,0,0,16.4-3.8c3.7-5.8,1.6-13.3-3-17.9-9.5-9.4-29.9-11.9-40.2-2.9-2.9,2.6,1.4,6.8,4.2,4.2,6.7-5.9,17.3-4,24.9-1.2,4.2,1.6,8.5,4.3,9.7,8.9,1.7,6.5-6.7,11.9-10.8,5.6-5.8-8.9,9.5-15.8,16.2-15.5,8.9.4,16,7.9,16.7,16.6.4,3.7,6.4,3.7,6.1-.1Z" fill="#ff3b0d"/>
          </g>
        </g>
        <g id="Group_26" data-name="Group 26">
          <g id="Group_25" data-name="Group 25">
            <path id="Path_252" data-name="Path 252" d="M1963.9,704.5c-13.1,11.6-24.9,25.3-31,42-5.7,15.8-5.4,33.9,3.2,48.6,1.9,3.3,7.1.3,5.2-3-17.6-30.4,4.2-63.2,26.9-83.4,2.8-2.5-1.5-6.7-4.3-4.2Z" fill="#ff3b0d"/>
          </g>
        </g>
        <g id="Group_28" data-name="Group 28">
          <g id="Group_27" data-name="Group 27">
            <path id="Path_253" data-name="Path 253" d="M1949.7,738.7a67.738,67.738,0,0,0-4.7,33.6c.4,3.8,6.4,3.8,6,0a63.826,63.826,0,0,1,4.5-32c1.5-3.5-4.3-5.1-5.8-1.6Z" fill="#ff3b0d"/>
          </g>
        </g>
        <g id="Group_30" data-name="Group 30">
          <g id="Group_29" data-name="Group 29">
            <path id="Path_254" data-name="Path 254" d="M1985.8,712.5a58.934,58.934,0,0,0,9.7,40.8c6.8,9.8,18.8,18,30.8,12.5-1.5-.6-2.9-1.2-4.4-1.8a53.352,53.352,0,0,0,27.8,32.8c3.5,1.7,6.5-3.5,3-5.2a47.706,47.706,0,0,1-25-29.2,3.044,3.044,0,0,0-4.4-1.8c-11.1,5.1-21.4-7.3-25.9-15.9a54.606,54.606,0,0,1-5.5-32.3c.4-3.7-5.7-3.6-6.1.1Z" fill="#ff3b0d"/>
          </g>
        </g>
        <g id="Group_32" data-name="Group 32">
          <g id="Group_31" data-name="Group 31">
            <path id="Path_255" data-name="Path 255" d="M2014.5,706.7a45.366,45.366,0,0,0,23.1,42.9c3.4,1.9,6.4-3.3,3-5.2a39.588,39.588,0,0,1-20.1-37.7c.3-3.9-5.7-3.9-6,0Z" fill="#ff3b0d"/>
          </g>
        </g>
        <g id="Group_34" data-name="Group 34">
          <g id="Group_33" data-name="Group 33">
            <path id="Path_256" data-name="Path 256" d="M1985.6,698.7c23.2-32.2,62.3-49.4,101.2-52.2,41.6-3.1,83.8,9.9,117.8,33.9,35.1,24.8,60.6,62.1,71.7,103.6,5.5,20.3,6.2,41,7.5,61.9,1.2,18.7,3.2,38,12.2,54.8,10.9,20.4,31.2,30.6,50.8,41.1,19.5,10.4,42.9,26.2,42.3,51.1-.1,3.9,5.9,3.9,6,0,.6-20.5-14.2-36.7-30.3-47.6-18.1-12.2-40.2-18.9-55.1-35.5-14.3-16-17.9-37.9-19.5-58.6-1.6-21-1.8-42-6.5-62.6a193.351,193.351,0,0,0-69.5-108.7c-33.5-25.8-76-40.8-118.4-39.9-44.2.9-88.9,19.1-115.3,55.6-2.3,3.2,2.9,6.2,5.1,3.1Z" fill="#ff3b0d"/>
          </g>
        </g>
        <g id="Group_36" data-name="Group 36">
          <g id="Group_35" data-name="Group 35">
            <path id="Path_257" data-name="Path 257" d="M2351.1,967.5c17.8,24.1,49.5,33.4,65.9,58.7,17.5,27,15.1,62.2-1.3,89-9.3,15.1-22.4,27.5-37.4,36.8-3.3,2-.3,7.2,3,5.2,27-16.7,48.5-43.8,52.9-75.9a88.951,88.951,0,0,0-5.9-46.2c-6.2-14.6-16.6-25.8-29.1-35.2-14.8-11.2-31.8-20.2-43.1-35.4-2.1-3.1-7.3-.1-5,3Z" fill="#ff3b0d"/>
          </g>
        </g>
        <g id="Group_38" data-name="Group 38">
          <g id="Group_37" data-name="Group 37">
            <path id="Path_258" data-name="Path 258" d="M2375.8,1077.3a50.043,50.043,0,0,1-6.7,57.8c-2.6,2.8,1.6,7.1,4.2,4.2a56.236,56.236,0,0,0,7.6-65.1c-1.8-3.3-7-.2-5.1,3.1Z" fill="#ff3b0d"/>
          </g>
        </g>
        <g id="Group_40" data-name="Group 40">
          <g id="Group_39" data-name="Group 39">
            <path id="Path_259" data-name="Path 259" d="M2079.1,697a153.56,153.56,0,0,0-27.1,87c0,16.1,2.9,31.7,7.4,47,4.9,16.7,11,33.5,11.9,51.1,1.8,34.4-17.9,64.9-26.4,97.2-8.2,31.1-8.3,65.3,5,95,12.5,28,37.3,50.9,67.6,57.6,3.8.8,5.4-4.9,1.6-5.8-26.9-6-48.9-25.3-61.4-49.6-15-29-15.3-63.7-7.2-94.8,7.8-30.3,25-58.2,26.8-90,1.9-32.8-15.8-62.4-18.7-94.6a148.205,148.205,0,0,1,25.7-97.1c2.1-3.2-3.1-6.2-5.2-3Z" fill="#ff3b0d"/>
          </g>
        </g>
        <g id="Group_42" data-name="Group 42">
          <g id="Group_41" data-name="Group 41">
            <path id="Path_260" data-name="Path 260" d="M2089.9,764.7c-8.5,19.4-10.2,41.4-3.8,61.7,6.2,19.8,21.2,35.5,26.9,55.5,5.9,20.7-3.9,39.4-14.8,56.5s-22.3,33.7-26,54.1a99.543,99.543,0,0,0,10.9,66.6c1.9,3.4,7.1.3,5.2-3a93.758,93.758,0,0,1-10.5-61.2c3.5-20.2,14.7-36.5,25.6-53.5,9.5-14.9,18.7-31.4,17.4-49.7-1.4-19.8-14-35.7-22.8-52.7-11.5-22.2-13-48.2-2.9-71.2,1.6-3.5-3.6-6.6-5.2-3.1Z" fill="#ff3b0d"/>
          </g>
        </g>
        <g id="Group_44" data-name="Group 44">
          <g id="Group_43" data-name="Group 43">
            <path id="Path_261" data-name="Path 261" d="M2058.1,1017.4a78.257,78.257,0,0,0,8.3,50c1.8,3.4,7,.4,5.2-3a71.584,71.584,0,0,1-7.7-45.4c.6-3.8-5.2-5.4-5.8-1.6Z" fill="#ff3b0d"/>
          </g>
        </g>
        <g id="Group_46" data-name="Group 46">
          <g id="Group_45" data-name="Group 45">
            <path id="Path_262" data-name="Path 262" d="M2109.4,1034.6c-6.9,15.2-1.3,32.1,5.7,46.2a115.4,115.4,0,0,0,28.5,36.6c26.1,22.1,61.1,30.9,94.6,24.8,3.8-.7,2.2-6.5-1.6-5.8-30.7,5.6-63.4-2.4-87.6-22.3a111.177,111.177,0,0,1-26.7-32.3c-6.9-12.7-14.2-30-7.8-44.3,1.6-3.3-3.5-6.4-5.1-2.9Z" fill="#ff3b0d"/>
          </g>
        </g>
        <g id="Group_48" data-name="Group 48">
          <g id="Group_47" data-name="Group 47">
            <path id="Path_263" data-name="Path 263" d="M2195.4,1077.3a91.421,91.421,0,0,0,51.1,50.8c14.1,5.5,29.3,7.2,44.3,7.8,13.6.5,31-2.2,42.1,7.6,2.9,2.5,7.2-1.7,4.2-4.2-9.5-8.3-21.9-9-33.9-9.1-15-.1-30.2-.6-44.8-4.5a85.13,85.13,0,0,1-57.2-49.9c-1.4-3.7-7.2-2.1-5.8,1.5Z" fill="#ff3b0d"/>
          </g>
        </g>
        <g id="Group_50" data-name="Group 50">
          <g id="Group_49" data-name="Group 49">
            <path id="Path_264" data-name="Path 264" d="M2305.1,1099.9c16,23.1,46.8,29.9,61.7,53.6,2.1,3.3,7.2.3,5.2-3-15.1-23.9-45.8-30.6-61.7-53.6-2.2-3.1-7.4-.1-5.2,3Z" fill="#ff3b0d"/>
          </g>
        </g>
        <g id="Group_52" data-name="Group 52">
          <g id="Group_51" data-name="Group 51">
            <path id="Path_265" data-name="Path 265" d="M2244.1,815.5c-8.4,64,46.5,110.6,80.9,156.8,10.4,14,19.6,28.9,25.7,45.2,1.3,3.6,7.1,2,5.8-1.6-21.4-57.4-77.2-93-99.4-149.9-6.3-16.2-9.2-33.3-7-50.6.5-3.7-5.5-3.6-6,.1Z" fill="#ff3b0d"/>
          </g>
        </g>
        <g id="Group_54" data-name="Group 54">
          <g id="Group_53" data-name="Group 53">
            <path id="Path_266" data-name="Path 266" d="M2316.3,996.7a48.016,48.016,0,0,1,.4,22.3c-.8,3.8,5,5.4,5.8,1.6a53.656,53.656,0,0,0-.4-25.5c-1-3.7-6.8-2.1-5.8,1.6Z" fill="#ff3b0d"/>
          </g>
        </g>
        <g id="Group_56" data-name="Group 56">
          <g id="Group_55" data-name="Group 55">
            <path id="Path_267" data-name="Path 267" d="M2232.7,816.2a86.6,86.6,0,0,0,.3,38.9c.9,3.8,6.7,2.2,5.8-1.6a79.682,79.682,0,0,1-.3-35.7c.8-3.8-5-5.4-5.8-1.6Z" fill="#ff3b0d"/>
          </g>
        </g>
        <g id="Group_58" data-name="Group 58">
          <g id="Group_57" data-name="Group 57">
            <path id="Path_268" data-name="Path 268" d="M2116.4,932.4c-3.3,9-6.7,18-10,27-1.3,3.6,4.5,5.2,5.8,1.6,3.3-9,6.7-18,10-27,1.3-3.6-4.5-5.2-5.8-1.6Z" fill="#ff3b0d"/>
          </g>
        </g>
      </g>
    </g>
  </g>
</svg>
