<?xml version="1.0" encoding="utf-8"?>
<!-- Generator: Adobe Illustrator 19.0.0, SVG Export Plug-In . SVG Version: 6.00 Build 0)  -->
<svg version="1.1" id="Layer_1" xmlns="http://www.w3.org/2000/svg" xmlns:xlink="http://www.w3.org/1999/xlink" x="0px" y="0px"
	 viewBox="758.9 -257.7 1837.7 1357.6" style="enable-background:new 758.9 -257.7 1837.7 1357.6;" xml:space="preserve">
<style type="text/css">
	.st0{fill:#EBF2FF;}
	.st1{fill:#CFF1FF;}
	.st2{fill:none;stroke:#003188;stroke-width:7.44;stroke-linecap:round;stroke-linejoin:round;stroke-miterlimit:10;}
	.st3{fill:#003188;stroke:#003188;stroke-width:7.44;stroke-linecap:round;stroke-linejoin:round;stroke-miterlimit:10;}
	.st4{fill:none;stroke:#24BDFF;stroke-width:7.44;stroke-linecap:round;stroke-linejoin:round;stroke-miterlimit:10;}
</style>
<g id="Message_Sent" transform="translate(-459.574 -398.619)">
	<g id="shadow">
		<g id="Group_67">
			<path id="Path_438" class="st0" d="M1888.7,441.3c28.5,28,73.3,13.5,34.3-25C1901.1,394.7,1856.5,409.6,1888.7,441.3z"/>
			<path id="Path_439" class="st0" d="M2059.7,440.4c14.9,6.5,28.8-33.9,10.2-37.2C2049.6,399.5,2038.9,431.3,2059.7,440.4z"/>
			<path id="Path_440" class="st0" d="M1999.2,524.5c2.4,0,4.8-0.3,7.2-0.7c11.6-3.3,16.2-16.9,0.7-17.6c-7-0.3-24.2,0.1-27.5,8.5
				C1976.2,522.8,1989.8,524.7,1999.2,524.5z"/>
			<path id="Path_441" class="st0" d="M1913.1,744.2c55.5,17.9,135.6-9.8,162.2-64.1c23.8-48.6-10.5-29.5-36.2-16.9
				c-29.9,14.7-62.8,24.5-96.3,25.2c-33.7,0.7-67.4-7.8-95.1-27.4c-12-8.6-28.6-37.9-43.9-20.6
				C1780.1,667.3,1887,735.7,1913.1,744.2z"/>
			<path id="Path_442" class="st0" d="M1493,900.5c71.5,14.1,140.2-20.2,186.6-73.5c17.5-20.1,103.3-140.6,64.7-162.6
				c-6.5-3.7-104,41-166.3,90.3C1563.8,765.9,1465.3,895,1493,900.5z"/>
			<path id="Path_443" class="st0" d="M1598,973.9c-27.2,18.1,9.1,128.6,39.6,108.3C1667.2,1062.5,1631.2,951.7,1598,973.9z"/>
			<path id="Path_444" class="st0" d="M1609.2,1268.3c-6.3-50.4-65.7,26.2-77.7,37.1c-26.8,24.2-88.3,78.2-71,121.1
				c18.8,46.4,57.5,0.6,71.8-21.9C1555.1,1368.9,1615,1313.6,1609.2,1268.3z"/>
			<path id="Path_445" class="st0" d="M1680.5,1077.4c1.9-13.5,25.5-115.5,2-115.2c-20.6,0.3-21.7,96.2-23.7,110.8
				c-12.2,86.9-27.5,173.2-45.9,259.1c-5,23.3-33.7,96.3-18.1,111.3c18.9,18.1,32.2-71.2,35.2-84.7
				C1650.4,1265.5,1667.3,1171.8,1680.5,1077.4z"/>
			<path id="Path_446" class="st0" d="M1788.4,1409.2c-27.6-7.8-121.1-40.7-139.5-8.2c-19.3,34.1,42.7,68.4,65.2,80.3
				c28.1,14.7,68.4,26,98.1,8C1858.3,1461.6,1827.3,1420.1,1788.4,1409.2z"/>
			<path id="Path_447" class="st0" d="M2046.4,1228.2c-35.1,0-70.8,6.7-105.1,9.9c-29.6,2.7-61.5,5.5-89.1,17.2
				c-13.5,5.8-28.6,16.6-18.9,32.6c15.1,24.7,84.4,22.4,109.5,24.6c48.5,4.2,142.8,14.6,184-19.3c39.1-32.2-10.2-55.8-40.6-61.6
				C2073.1,1229.3,2059.8,1228.1,2046.4,1228.2z"/>
			<path id="Path_448" class="st0" d="M2344.5,1325.5c-102-55-63.8-172.5-60-266.1c1.1-27.6,0.4-118.1-34.5-129.5
				c-35.8-11.8-9,85.1-8.6,101.8c1.7,54.3-7.8,108.3-14.8,161.8c-5.4,41.8-21.4,104.3,2.1,143.2c18.9,31.2,88.2,62.1,124.3,65
				C2418.4,1407.2,2375.1,1342.1,2344.5,1325.5z"/>
			<path id="Path_449" class="st0" d="M2425.1,1107.7c-33.2-47.8-78.9,76.8-68.8,105.4C2379.2,1277.7,2453.6,1148.6,2425.1,1107.7z"
				/>
			<path id="Path_450" class="st0" d="M2725.7,1019.3c-46.1-39.2-88.5-82.6-126.4-129.7c-14.1-17.6-41.6-75.2-60.3-84.4
				c-20.5-10-19.3,2.2-14.1,19.3c14.2,46.5,72.4,99.3,104.9,134.3c20.2,21.6,41,44.3,64.2,62.6c4.6,3.6,16.4,18.8,23.9,17
				C2724.8,1036.6,2734.6,1026.9,2725.7,1019.3z"/>
			<path id="Path_451" class="st0" d="M2839.9,656.1c-25.1-23.1-53.4-60.5-90.7-37.7c-19.9,12.2-65.6,75.7-60.4,99.8
				c10.9,50,55.5-6,78.9-14.2C2784,698.1,2888.3,700.7,2839.9,656.1z"/>
			<path id="Path_452" class="st0" d="M2983.6,568.2c-7.3-27-61.8-51.1-86-37.9c-37.4,20.4,8.2,45,16.1,67.7
				c6,17.2-14.3,78.2,20.2,74.1C2955,669.7,2988.7,587.4,2983.6,568.2z"/>
			<path id="Path_453" class="st0" d="M1219.9,1135.1c-0.8,0-1.4,0.6-1.4,1.4s0.6,1.4,1.4,1.4l0,0c0.8,0,1.4-0.6,1.4-1.4
				S1220.7,1135.1,1219.9,1135.1z"/>
			<path id="Path_454" class="st0" d="M2272.5,746.7c-16.4-19.6-93.1-100.7-122.8-87c-9-1.7-10.8,5.6-8.5,17
				c0.9,27.4,33,76.5,43.1,89.3c30,38.1,72.8,88.6,120.2,77.4C2348.9,832.9,2278.9,754.4,2272.5,746.7z"/>
		</g>
	</g>
	<g id="color_shadow">
		<g id="Group_68">
			<path id="Path_455" class="st1" d="M2717.9,359.4c-8.7,2-10.3-11.9-1.6-13.9c22-4.9,44.3-9,66.5-12.6
				c77.6-12.8,231.9-46.3,232.2-46.7c-13.9-1.6-341.4-56.9-372.4-61.3c8.6,13.5,52.3,72.4,38.7,95c-10.5,28.5-16.4,43.9-23.9,66.5
				c-9,27.1,56.8,0.5,76.2,5.3h0.2c15.7,24.8,31.7,49.4,50.8,71.9c3.1,3.5,8.6,2.7,11.8,0c64.1-53,213.8-154.1,227.5-162.6
				C3022.1,301.4,2796.6,341.8,2717.9,359.4z"/>
			<path id="Path_456" class="st1" d="M1875.6,314.9c65.1-20.5,266-3.7,212.5-115.6c-8.1-17-58.7-60.8-71.2-45.8
				c0.8-0.9,3,18.4,2.2,21c-7.4,23.8-23.6,31.1-47.9,35.5c-45.6,8.5-97-4.7-136.5,25.9c-21.3,16.5-64.5,92.3-46.5,123.5
				c8.8,15.3,28.3-1.4,38.6,5.2c13.6,8.7,5.7,19.6,13,27.1c9,9.2,10.4,16.8,17.9-2.2C1874,347.4,1857.2,320.6,1875.6,314.9z"/>
		</g>
	</g>
	<g id="outline">
		<g id="Group_69">
			<path id="Path_457" class="st2" d="M1835.4,370.6c-13.1-8.3-31.2-7.6-43.7,1.5c-12.5,9.1-18.6,26.1-14.7,41.1
				c2.7,10.4,9.7,19.3,18.2,25.9c9.5,7.1,20.8,11.4,32.5,12.4"/>
			<path id="Path_458" class="st2" d="M1802.1,396.7c6.1,3.4,12.4,6.9,18.5,10.3"/>
			<path id="Path_459" class="st2" d="M1948.2,391c-0.6,6-0.2,12,1.1,17.9c2.7-6,2.6-12.9-0.3-18.8"/>
			<path id="Path_460" class="st2" d="M1919.1,360.1c15-7.3,31.4-11.1,48-11.2"/>
			<path id="Path_461" class="st2" d="M2049.3,338c-13-0.4-25.8,3.1-36.8,10c-1.6,0.8-3,2.1-4,3.6c-1.1,2-1.2,4.3-1.3,6.5
				c-0.2,7.4-0.4,15,1.1,22.2c2.9,15,12.3,28,16.4,42.7c0.7,2.4,1.2,5.1,0.3,7.4c-0.7,2-2.5,3.5-4.2,4.9
				c-5.5,4.7-11.1,9.6-16.6,14.3"/>
			<path id="Path_462" class="st2" d="M2036.2,385c-0.4,5.2-0.2,10.5,0.7,15.6c1.7-5.7,1.7-11.9-0.1-17.6"/>
			<path id="Path_463" class="st2" d="M1970.2,475.7c15.2,4.7,31.3,5.5,46.9,2.2"/>
			<path id="Path_464" class="st2" d="M2070.1,292.7c1.9,45.7,3.8,91.3,5.7,137c0.9,22.7,1.9,45.8-3,68c-4.8,22.2-16.1,44-35,56.7
				c-20.4,13.8-47.2,15.3-71,9.1c-23.8-6.1-45.3-19.1-65.8-32.6"/>
			<path id="Path_465" class="st2" d="M2051.4,546.1c-1.7,32.1-0.4,64.3,4,96.2"/>
			<path id="Path_466" class="st2" d="M1825,462c5.7,56.9,7.9,114,6.7,171.1"/>
			<path id="Path_467" class="st3" d="M1906,537.1c11.5,18.9,25.5,36.9,44.4,48.5c18.8,11.6,43.2,15.9,63.3,6.6
				c6.6-3.1,12.6-7.4,18.4-11.9c5.1-3.8,10.2-7.9,13.6-13.3c3.3-5.4,4.6-12.6,1.4-18.1c-17.6,17.9-44.5,24.6-69.4,21.1
				c-24.8-3.3-47.7-15.6-67.6-31"/>
			<path id="Path_468" class="st2" d="M1818.8,633.9c-52.1,24.2-109.3,40.4-163.2,68.2c-73.7,38-130.1,104-169.3,177.1
				c-39.2,73.1-62.5,153.4-83,233.8c-31.6,123-57.5,247.5-83.4,371.8"/>
			<path id="Path_469" class="st2" d="M1603,986.1c14.5,25.9,25.7,53.6,33.2,82.3"/>
			<path id="Path_470" class="st2" d="M1672.9,977.4c-27.7,151.8-56.2,303.4-85.5,454.9"/>
			<path id="Path_471" class="st2" d="M1586.7,1273c-27.2,56.7-92.1,90.7-112.3,150.4"/>
			<path id="Path_472" class="st2" d="M1531.7,1372.5c-9.1,14.7-16.5,30.4-22.1,46.8"/>
			<path id="Path_473" class="st2" d="M1831.8,647.1c33.6,20.3,71,35.5,110.1,38.9c39.2,3.3,80.2-6,110.9-30.4"/>
			<path id="Path_474" class="st2" d="M1866.1,685.6c37.8,30.9,91.6,41,137.9,25.9"/>
			<path id="Path_475" class="st2" d="M2240.5,932.1c22.8,182-34.8,363.2-58.1,545.1"/>
			<path id="Path_476" class="st2" d="M1856.3,1270.4c78.3-18.6,158.9-25.9,239.3-21.8"/>
			<path id="Path_477" class="st2" d="M1920.1,1294.2c31.6-6.3,64.2-5,95.2,3.7"/>
			<path id="Path_478" class="st2" d="M1664.4,1403.9c53.1,2.5,108.2,5.6,155.2,30.3c1.7,0.8,3.5,2,3.6,3.9c0.2,2.2-2,3.7-4,4.7
				c-29,15-62,20-94.4,24.7c15.1,8.1,31.3,14.1,48,18"/>
			<path id="Path_479" class="st2" d="M2071.1,643.4c94,5.9,178.5,66.5,231.6,144.2c53,77.8,78.3,171.2,93.2,264.2"/>
			<path id="Path_480" class="st2" d="M2317.2,1201.2C2390,1088.1,2462.9,975,2535.8,862"/>
			<path id="Path_481" class="st2" d="M2542.7,804.4c53.3,71.6,111.1,139.6,173,203.9"/>
			<path id="Path_482" class="st2" d="M2527,844.2c44.4,71.2,98.1,136.2,159.7,193.2"/>
			<path id="Path_483" class="st2" d="M2661.6,1024.9c-40.4,98.5-81,197.5-137.3,287.9c-19.9,32-43.2,64.2-77.2,80.6
				c-35.7,17.3-78.6,14.5-116,1.1c-37.4-13.3-70.5-36.3-103-58.9"/>
			<path id="Path_484" class="st2" d="M2389.9,1120.2c-19.7,30.8-30.3,66.6-30.5,103.1"/>
			<path id="Path_485" class="st2" d="M2353.2,1242"/>
			<path id="Path_486" class="st2" d="M2024.6,708.1"/>
			<path id="Path_487" class="st2" d="M1643.6,726.4c-12.6,7.6-23.9,17.2-33.4,28.4"/>
			<path id="Path_488" class="st2" d="M2573,817.8c13.7-16.2,28.1-31.7,43.2-46.5"/>
			<path id="Path_489" class="st2" d="M2622,772.4c-22-51.4-8.7-116,31.9-154.4c10-9.5,21.4-17.4,32.7-25.2
				c24.2-16.8,48.4-33.6,72.5-50.4c6-4.2,14.7-8.4,20.2-3.4c2.7,2.4,3.5,6.4,3.5,10c0,8.6-3.9,16.7-8.1,24.3
				c-14.8,26.2-34.7,49.2-58.6,67.5"/>
			<path id="Path_490" class="st2" d="M2709.2,669.3c5-9.3,8.1-19.5,9.2-30"/>
			<path id="Path_491" class="st2" d="M2757.8,612.8c45.4-30.7,93.5-57.3,143.7-79.5c5.6-2.5,11.4-4.9,17.6-5.2
				c6.1-0.3,12.7,2,15.9,7.3c4.6,7.4,0.5,17.2-4.9,24.1c-8.9,11.3-21.3,19.4-33.5,27.3l-79,51.3"/>
			<path id="Path_492" class="st2" d="M2966.9,548.2c6.2-1.1,12.4,3.5,14.5,9.5c2.1,6,0.7,12.6-2.4,18.1c-3,5.5-7.4,10-11.8,14.6
				c-1.2,1.2-2.4,2.7-2.3,4.5c0.1,1.4,1.2,2.5,2.1,3.6c4.2,5.3,4.3,13.1,1.8,19.3c-2.5,6.3-7.3,11.4-12.2,16.1"/>
			<path id="Path_493" class="st2" d="M2950,596.3c-34.3,27.4-69.7,53.5-106,78.3"/>
			<path id="Path_494" class="st2" d="M2861.2,697.1c22.7-15.3,45.8-30,69.2-44"/>
			<path id="Path_495" class="st2" d="M2947.1,655.3c2,9.4-3.6,18.7-10.1,25.9c-16.4,18-39.1,28.9-58.9,43.2
				c-25.7,18.3-46.7,42.3-70,63.6c-23.3,21.2-50.4,40.3-81.6,45.4"/>
			<path id="Path_496" class="st2" d="M2753.9,844.2c-19.9,42-41.4,83.2-64.4,123.6"/>
			<path id="Path_497" class="st2" d="M2707.8,737.8c22.1-18.8,49.4-30.4,78.2-33.2"/>
			<path id="Path_498" class="st2" d="M2802.9,627.7c22.5,23.1,41.8,49.1,57.7,77.2"/>
			<path id="Path_499" class="st2" d="M1578.2,628.8c-1.3,1.7,0.1,4.6,2.2,4.7c1.7,0,3.1-1.4,3.1-3.1c0-0.4-0.1-0.9-0.3-1.3"/>
			<path id="Path_500" class="st2" d="M2166.5,280.5"/>
			<path id="Path_501" class="st2" d="M2125.8,600.9c-1.5,0.9-0.7,3.8,1,3.8c1.8,0,2.5-2.9,1-3.8"/>
			<path id="Path_502" class="st2" d="M2456.3,722.3c-2.4-1.5-6,1.3-5.2,4c0.8,2.7,5.3,3,6.5,0.5"/>
			<path id="Path_503" class="st2" d="M2277,1439.3c-2.6,0.6,1.1,4.8,3,2.9c1.9-2,0.7-5.1-0.6-7.5"/>
			<path id="Path_504" class="st2" d="M2806.1,946.2c-2.8,1.1,2.7,5,2.9,2"/>
		</g>
		<path id="Path_505" class="st2" d="M2233.6,903.3c-0.7,2.7-0.1,5.7,1.8,7.8"/>
		<path id="Path_506" class="st2" d="M2020.2,707.4l5.9-3.9"/>
		<path id="Path_507" class="st2" d="M2113.3,1248.5h3.9"/>
		<path id="Path_508" class="st2" d="M2361.6,1240.8"/>
		<path id="Path_509" class="st2" d="M1593.6,970.8v-2.1"/>
		<path id="Path_510" class="st2" d="M1389.2,1305.7c-2.1,5.9-4.2,11.6-6.3,17.5"/>
		<path id="Path_511" class="st2" d="M2731.1,1201.4"/>
	</g>
	<g id="color_outline">
		<g id="Group_71">
			<g id="Group_70">
				<path id="Path_512" class="st4" d="M1841.2,383c-0.1,7.1,1.1,14.1,3.4,20.7c0.3,0.7,0.7,1.7,1.4,1.9c1,0.4,2-0.6,2.8-1.5
					c7.1-9.3,8.9-21.6,9.9-33.2c1.5-17.6,1.5-35.2,0.2-52.8"/>
				<path id="Path_513" class="st4" d="M1784.6,361.6c-4.7-31.7-1.7-64.9,11.4-94.1s36.8-54.2,66.6-66c20.1-8,42.1-9.9,63.7-9.4
					c30,0.7,63.2,4.7,87.1-13.5"/>
				<path id="Path_514" class="st4" d="M1875.3,315.2c41-15.1,85.9-13,129.3-18.5c19.3-2.4,38.6-6.5,55.3-16.4
					c16.7-9.8,30.5-26.1,33.2-45.3c3-20.7-7.4-41.6-22.3-56.4c-14.9-14.8-33.9-24.5-52.5-33.9"/>
				<path id="Path_515" class="st4" d="M2016,145.3c4.2,5,5.7,11.8,4.2,18.1"/>
				<path id="Path_516" class="st4" d="M1987.9,209.7c-2.2,12.2-10.5,22.4-19.9,30.5c-30.9,26.6-73.4,33.8-112.7,44.5"/>
				<path id="Path_517" class="st4" d="M2020.6,202.1c1.1,6-2.2,11.9-5.8,16.9c-16.4,23.2-39.5,40.9-66.1,50.8"/>
				<path id="Path_518" class="st4" d="M2043.2,215.4c-5.7,12.2-14.5,22.5-25.7,30"/>
				<path id="Path_519" class="st4" d="M1834.4,317.8c3.7,8.7,4.4,18.3,2.2,27.5"/>
				<path id="Path_520" class="st4" d="M2340.2,529.1c40.8,4.7,82.1,2.4,122.1-6.7c41-9.3,82.4-27.3,107.1-61.4
					c4.4-6,8.4-13.3,7-20.6c-2.3-12.4-17.7-17.1-30.3-17c-9.2,0.1-18.7,1.5-26.4,6.4c-7.7,4.9-13.3,14.1-11.8,23.2
					c2.2,13.3,17.5,20.2,31,21.4c34.7,3.2,68-15.3,94.3-38.2"/>
				<path id="Path_521" class="st4" d="M2430.7,541.8c-42.8,16.3-88.4,23.8-134.2,22.1"/>
				<path id="Path_522" class="st4" d="M2709.3,345.4l343.2-65.1L2782.8,470l-49-83.1L2709.3,345.4l-54.9,54.9l79-13"/>
				<path id="Path_523" class="st4" d="M2654.4,400.3l32.6-99.5l365.5-20.5l-423.1-77.2l57.7,97.6"/>
			</g>
		</g>
	</g>
</g>
</svg>
