<?xml version="1.0" encoding="utf-8"?>
<!-- Generator: Adobe Illustrator 19.0.0, SVG Export Plug-In . SVG Version: 6.00 Build 0)  -->
<svg version="1.1" id="Layer_1" xmlns="http://www.w3.org/2000/svg" xmlns:xlink="http://www.w3.org/1999/xlink" x="0px" y="0px"
	 viewBox="911.8 -258.3 1734.4 1356.8" style="enable-background:new 911.8 -258.3 1734.4 1356.8;" xml:space="preserve">
<style type="text/css">
	.st0{fill:#EBF2FF;}
	.st1{fill:#EEE1FF;}
	.st2{fill:none;stroke:#003188;stroke-width:5.8479;stroke-linecap:round;stroke-linejoin:round;stroke-miterlimit:10;}
	.st3{fill:#003188;stroke:#003188;stroke-width:5.8479;stroke-linecap:round;stroke-linejoin:round;stroke-miterlimit:10;}
	.st4{fill:#003188;}
	.st5{fill:none;stroke:#9A4AFF;stroke-width:5.0125;stroke-linecap:round;stroke-linejoin:round;stroke-miterlimit:10;}
	.st6{fill:none;stroke:#9A4AFF;stroke-width:5.8479;stroke-linecap:round;stroke-linejoin:round;stroke-miterlimit:10;}
</style>
<g id="Uploading" transform="translate(-516.898 -314.7)">
	<g id="shadow">
		<g id="Group_317">
			<path id="Path_2507" class="st0" d="M2269.1,179.6c0.3,52.5,1,105.1,0.3,157.6c-0.2,10.8,14.9,6.4,20.7,5.7
				c11.3-1.3,22.6-2.3,33.9-2.6c7.4-0.3,25.4,3.2,31.2-1.3c7.1-5.4,3.5-23.6,3.6-31.6c0.3-46.4,0.5-92.7,0.8-139.1
				c0.1-19,4.2-42.6-1.1-61.1c-5.9-20.6-32-15.5-48.6-15.8c-10.4-0.2-21.1-1.1-31.3,0.1c-11,1.2-9.3,8.6-9.4,18.6
				C2268.9,133.3,2268.9,156.4,2269.1,179.6z"/>
			<path id="Path_2508" class="st0" d="M1764.1,577.7c13.3,0.5,7.8-49.1,7.9-58.4c0.2-23.9,0.3-47.8,0.4-71.7
				c0.2-22.1,0.2-44,0.4-66.1c0.2-15.2,5.4-43.5-12.9-50.7c-8.3-3.3-19.3-1.8-28.1-1.8c-11.9-0.2-23.8-0.7-35.7-0.6
				c-6.8,0.1-11.9,0.2-13.8,7.5c-2.8,10.9-0.3,25.7-0.3,37.1c-0.2,47.1,0.6,94.2,0.7,141.3c0,12.7,0,25.4-0.1,38.1
				c-0.1,7.8-4.3,25.9,5.2,29.2c4.8,1.7,12.7-0.9,17.5-1.5c6-0.7,12-1.3,18-1.7C1736.9,577.4,1750.5,577.2,1764.1,577.7z"/>
			<path id="Path_2509" class="st0" d="M1641.6,867.4c-6.5,1.4-12.9,3.7-18.8,6.9c-21.5,10.9-47,29-25.9,53.5
				c10.5,12.2,21.4,24.1,32,36.1c6.5,7.4,15.4,20.1,26.3,12c13.7-10.2,18.2-34.3,22.4-49.8c3.7-13.7,7.2-29.6,0.8-43
				C1670.7,867,1656.1,864.3,1641.6,867.4z"/>
			<path id="Path_2510" class="st0" d="M2200.3,716.8c8.1-5.7,5.2-16.9,0.2-23.6c-5.3-7.1-16.4-15-25.5-10.8
				c-9.8,4.5-8.3,18.4-2.9,25.9C2177.7,716.3,2191.1,723.2,2200.3,716.8z"/>
			<path id="Path_2511" class="st0" d="M2295.4,693.9c-0.4-6.6,1.2-30.6-6-31.3c-5.7-0.6-10.2,7.1-12.3,11.3
				c-2.8,5.8-5.3,14.4-2.9,20.7C2278.3,705.1,2290.1,701.3,2295.4,693.9z"/>
			<path id="Path_2512" class="st0" d="M2240.4,755.6c11.1,1.9,31.7-12.2,13.6-18.5c-5.7-2-13.8,0.1-17.9,4.5
				C2231.8,746.5,2231.7,755.4,2240.4,755.6z"/>
			<path id="Path_2513" class="st0" d="M2073,899.2c-12.9-13.7-41.4,2.8-53.8,9.5c-18.4,9.9-35.6,21.9-51.1,35.9
				c-15.7,14.3-29.4,30.5-40.8,48.4c-4.9,7.7-24,31.9-7.2,35.3c15.4,3.2,37.5-4.6,52-9.9c34.7-12.7,64.5-36.1,85.2-66.8
				C2064.2,941.2,2084.8,911.6,2073,899.2z"/>
			<path id="Path_2514" class="st0" d="M2416.3,915.3c33.1,16.6,70,24,106.9,21.1c41.4-3.3-1.3-47.2-16.4-58.9
				c-24.4-18.7-51.8-27-82.1-27.3c-15.1-0.2-30.3,0.7-45.3,2.5c-6.5,0.8-18,0.6-23.4,5.2C2340.6,871,2407.8,911,2416.3,915.3z"/>
			<path id="Path_2515" class="st0" d="M2097.4,1000.2c8.7,4.4,24.5-3.8,33.1-5.7c12.8-2.9,35.4-11.1,22,8.8
				c-5.3,7.9-48.4,41.9-22.3,46.3c26.1,4.5,50.8,15.5,73.9,29.1c12.9,7.5,44.9,36,60,21.9c16.5-15.5-9.1-47.7-16.9-61.6
				c-21.3-37.8-42.9-75.3-64-113.1c-8.5-15.3-19.4-51-43.1-36.3c-19.6,12.1-25.9,37.4-35.2,57.1
				C2099.4,958.4,2078.9,990.9,2097.4,1000.2z M2160.7,990.4c-0.1,0.3-0.3,0.3-0.3,0C2160.7,990.5,2160.7,990.5,2160.7,990.4
				L2160.7,990.4z"/>
			<path id="Path_2516" class="st0" d="M2338.6,973.6c12.6-13.7,26.6-29.7,24.9-48.6c-1.4-15.8-26.8-26.1-38.2-32.7
				c-6.8-3.8-16-11.6-23.7-12.9c-7.8-1.3-11.3,8.3-12.2,15c-2.9,20.4-3.6,41.4-5.4,62c-3.6,41.3-7.2,82.6-10.9,123.9
				c-0.5,5.9-3.9,16.3,2.2,20.1c6.4,3.9,12.1-4,16.1-8c12.9-12.9,24.6-27,35.1-41.9c7.8-11.1,17-26.1,2.3-35.4
				c-6.6-4.2-12.4-3.8-10.6-13.7c1.3-7.3,7.4-13.1,11.9-18.4C2332.8,980,2335.6,976.9,2338.6,973.6z"/>
			<path id="Path_2517" class="st0" d="M1827.2,1173.6c-9.6-25.1-19.6-50.2-30.2-74.9c-4-9.4-9.5-18.7-20.8-18.8
				c-8.5-0.1-20.6,4.7-28.2,8.2c-8.5,3.9-8.1,9.4-5.3,18c13.2,40.5,26.4,81,39.7,121.5c16.3,50,29,104.9,55.9,150.5
				c9.1,15.5,39.3,49,59.3,28.9c17.1-17.2-4-55.1-10.6-72.5C1866.4,1281,1847.5,1226.9,1827.2,1173.6z"/>
			<path id="Path_2518" class="st0" d="M1998.8,1146.7c-22.1-7-32.4,21.9-35.2,38.3c-4.8,28.9,0.5,59.8,3.6,88.7
				c4.1,38.3,7.3,84,31.5,115.7c4.1,5.4,11.1,15.6,18.9,13.8c7.1-1.7,11.4-11.1,13.4-17.4c4.7-15.2,4.5-33.2,5.3-49
				c2.1-40.8-0.9-81.7-9-121.7C2023.6,1196.1,2021.8,1154.1,1998.8,1146.7z"/>
			<path id="Path_2519" class="st0" d="M2330.9,1226.1c-27.9,0.2-54.7,8.8-81.4,16.4c-26.3,7.4-52.9,13.8-80.1,16.9
				c-25.6,2.9-51.2,1.4-76.8,4.1c-15.6,1.7-41,9.2-30,30.6c2.4,4.7,6.6,8.5,10.8,11.6c1.4,1.1,3.7,2.9,5.3,3.5
				c3.4,1.3,4.3-0.3,6.9,0.3c5.6,1.6,11.2,5.8,17,7.7c5.9,1.9,11.9,3.3,18,4.2c23.8,3.3,48.2-0.6,71.3-6.8
				c26.7-7.2,52.8-16.7,80-21.9c26.1-5,52-5.6,78.4-7c20.3-1.1,58.1-12.3,38.4-39.6C2376.2,1228.8,2350.5,1225.9,2330.9,1226.1z"/>
			<path id="Path_2520" class="st0" d="M2474,1037.4c-3.8-8.4-10.1-11.9-20.1-2.7c-7.4,6.9-11.7,16.4-14.3,26
				c-6.3,23.1-6.6,48.3-6.5,72c0.2,28.5,2.3,57,1.3,85.5c-0.8,27.8-6.8,54-13,81c-4.5,19.5-8.7,40.1-5.7,60.2
				c1.2,7.6,3.3,15.5,7.9,21.8c3.9,5.5,14.3,15.1,21.8,11.1c8.1-4.3,4.7-26.4,5.1-34.3c0.8-15.3,1.8-30.6,3.3-45.9
				c2.8-28.9,7.3-57.5,12.5-86c5.8-31.1,11.9-62.2,14.5-93.7c1.4-16.3,1.6-32.7,0.3-49C2480.4,1075.4,2480,1050.4,2474,1037.4z"/>
			<path id="Path_2521" class="st0" d="M2770.1,749.3c0.4-12.9-3.8-25.8-12.2-35.6c-8.7-10.1-25.9-16-25.9,4
				c0,13.9,7.9,28.1,17.7,37.6C2759.9,765.3,2769.6,765.6,2770.1,749.3z M2748,714.4c0.1-0.2,0.3-0.1,0.3,0.3
				C2748.2,714.6,2748.1,714.5,2748,714.4L2748,714.4z"/>
			<path id="Path_2522" class="st0" d="M2807.4,695.5c-4,14.8-13.1,40.9-4.8,55.7c9.8,17.5,25.7-0.9,30.7-11.7
				c7.1-15.3,9.4-38.3,2.9-54.2c-2.8-6.7-8.5-10.9-15.8-8.4C2812.3,679.5,2809.4,688,2807.4,695.5z"/>
			<path id="Path_2523" class="st0" d="M2770.8,546.7c17.9-4.9,2.9-42.7-11.2-43.9C2742.4,501.2,2750.9,552.1,2770.8,546.7z"/>
			<path id="Path_2524" class="st0" d="M2785.5,667.3c2.3,0,7.4-2.6,9.5-1.6c0.8,0.3,1.8,3.2,2.4,3.7c8.9,7.6,12.8,5.3,17.3-4.6
				c6.6-14.3-4.6-17.2-16-19.8c-13.5-3.1-21-1.1-21,13.7C2777.8,664.7,2779.4,667.3,2785.5,667.3z"/>
			<path id="Path_2525" class="st0" d="M2762.7,1262.2c-65.2-43.7-129.6-88.8-193-135.3c-15.1-11.1-30.2-22.2-45.1-33.5
				c-7.8-5.8-25.7-27.2-35.3-16c-10.9,12.7,12.5,22.8,19.6,30.9c19.3,22.1,188.7,138.4,213.4,152.8c10.1,5.8,21.1,13.1,32.9,14.6
				C2763,1276.8,2771.9,1268.4,2762.7,1262.2z"/>
			<path id="Path_2526" class="st0" d="M2845,908.3c-36.4,6-73.5,6.9-110.1,2.5c-5.8-0.7-16-1.3-14,8.2c1.7,7.4,12.3,6.7,18,7.4
				c18.1,1.9,36.2,2.6,54.4,2c-8.4,1-17,1.7-25.5,1.9c-7.9,0.3-18-1.8-25.6-0.2c-8.7,1.8-9.8,11.6-1.1,14.9
				c6.3,2.3,16.8,0.7,23.4,0.5c8.9-0.3,17.8-0.8,26.6-1.8c5.2-0.6,45.4-4.5,29.2-17c7.9-0.8,24.3,0.1,30.7-4.6
				C2858.1,916.9,2853.2,907,2845,908.3z"/>
			<path id="Path_2527" class="st0" d="M2657.4,251.3c20.6-1,41.3-1.5,61.7-3.1c4.9-0.4,10.1-0.4,11.4-6.3c1.3-5.6-2.3-8.3-7-9
				c-8.8-1.5-19.8,1-28.7,1.4c-9.5,0.5-19.1,0.9-28.7,1.4c-5.8,0.3-14.1-0.9-15.9,6.4C2649.2,246.9,2652.4,251.5,2657.4,251.3z"/>
			<path id="Path_2528" class="st0" d="M2982.8,217.8v-27.4c0-5.5,3.7-42.5-12.3-30.9c-5.3-2.5-13.8-0.8-19.5-0.8h-99.2
				c-6.7,0-21.1-3-21.1,7.5c0,9.8,12.4,7.5,18.8,7.5h39.2c26.1,0,52.8,1.6,78.9,0V229c0,5.2-1.7,12.7,3.9,15.7
				c3.9,2.1,8.4,0.3,10.4-3.3C2985,236.4,2982.8,223.4,2982.8,217.8z"/>
		</g>
	</g>
	<g id="color_shadow">
		<g id="Group_318">
			<path id="Path_2529" class="st1" d="M2363.7,723.9L2363.7,723.9c-10.9-10-14.4-13-11.6-28.6c5.6-32.2-16.5-40.7-37.2-58.8
				c-15.7-13.7-19-30.2-27.6-48.2c-9.3-19.3-8.4-41.2-28.7-53.6c-20.4-12.5-46.8-9.9-69.3-6.6c-26.6,3.9-53.9,12.2-74.9,29.6
				c-21.6,17.8-30.2,40.1-33.2,67.3c-1.4,12.8-3.3,24.6-10.7,35.6c-7,10.4-17.1,18.3-26,27.1c-16.4,16.2-32.8,40.4-19.4,63.7
				c2.3,4.1,8.4,7.7,9.9,12c2.5,7.1-6.1,17.1-8.9,23.4c-4,9.4-7.7,21.3-6.6,31.5c1,9.2,17.5,10.8,29.9,7.9c18.6-4.3,36-11.2,55-2.8
				c15.8,7,30.1,22.1,48,17c25.9-7.3,29.5-44.5,24.1-66.8c-3.3-13.3-12.4-25.6-13.8-39.3c-1.5-14.4,8.1-27.2,7.9-41.6
				c-0.2-14.1-8-26.2-9.8-40c-1.8-14.1,3.3-28.7,8.9-41.4c10-22.4,30.3-51,54.1-60.6c11-4.5,48.4,36.5,54.1,50
				c5.9,14.1,13.5,30.6,15.1,45.9c3.3,32.5,5.8,80.5,2.5,95.1c-3.3,14.7-14.2,26.5-12.9,42.4c0.4,5.3,3.1,15.8,8.6,18.4
				c8.9,4.2,25.6-6.5,35.3-7c7.4-0.4,15.3,3.3,22.6,1.5c8-1.8,20.6-32.2,23.3-39.9C2376.6,744.6,2373.1,732.7,2363.7,723.9z"/>
			<path id="Path_2530" class="st1" d="M2651.6,363c-2.3-9.7-4.6-19.4-6.6-29.1c-1.2-5.7-2-14.3-8-17.2c-7.2-3.4-26.6,5.8-33,9.4
				c-14.2,8.1-9.6,22.4-4,34.7c7.4,16.1,13.2,33.1,19.5,49.7c5.8,15.1,9.9,35.5,19,48.9c6.3,9.1,19.1,7.4,27.9,2.1
				c12.8-7.9,1.5-29.4-1.3-41C2660.7,401.3,2656.1,382.1,2651.6,363z"/>
			<path id="Path_2531" class="st1" d="M3041.3,267.7c-6.7-5.1-16.4-5.5-24.3-7.3c-11.2-2.4-22.4-5.1-33.6-7.9
				c-12.9-3.1-35.3-13.5-28.9,8c11.4,38.4,20.9,77.5,31.6,116.3c2.7,9.8,6,19.4,8.4,29.2c0.9,4.1,3.8,11.1,3.1,15.2
				c-1.3,6.8-4.5-2.3-8.2-4.6c-7.5-4.5-20.5-6-29-7.7c-11.2-2.2-22.6-3.3-34-1.8c-19,2.5-33.5,14.7-51.5,20.1
				c-17.8,5.3-33.8-5.3-51.5-3.3c-17.8,2-27.7,18.8-44.9,22.7c-16.2,3.7-32.3-1.7-48.5-2.9c-15.1-1.2-32.7,0.6-43.8,12
				c-6.4,6.6-7.4,12.7-6.3,21.7c1.1,8.8,1.6,22.8,12.9,22.5c9.7-0.3,21.5-5.8,30.8-8.4c11.8-3.2,23.6-6.3,35.3-9.3
				c22.1-5.7,44.3-11.1,66.5-16.4c23-5.4,46-10.6,69-15.6c11.2-2.4,22.4-4.8,33.6-7.1c5.3-1.1,10.6-2.2,15.9-3.3
				c5.1-1,13.1-4.5,18.1-3.6c3.3,0.6,6.9,4.3,11.5,5.7c5.7,1.6,11.4,3,17.2,3.9c7.6,1.4,17.4,4.3,23.6-1.8
				c8.9-8.8,6.8-26.8,8.4-38.2c3.8-24.4,7.7-49.2,13.4-73.2C3039.8,318.1,3057.1,279.7,3041.3,267.7z"/>
		</g>
	</g>
	<g id="outline">
		<path id="Path_2532" class="st2" d="M2203.3,779.3c19.9,8.8,44,12,62.8,1c14.5-8.6,23.6-24.6,27.2-41.1c3.3-14.9,2.9-30.2,2-45.4
			c-0.1-1.7-0.3-3.4-0.3-5.1c-0.6-8.4-1.2-16.8-2-25.1c-2-19.5-5.4-38.8-12.6-56.9c-10.4-25.9-29.7-49.5-56.1-58.5"/>
		<path id="Path_2533" class="st2" d="M2182.1,642.8c9.9-5.4,20.9-8.3,32.1-8.4"/>
		<path id="Path_2534" class="st2" d="M2200.6,661.8c-0.4,4.3,0.3,8.7,2,12.7c1.1-4.2,0.7-8.7-1.1-12.7"/>
		<path id="Path_2535" class="st2" d="M2268.2,622.2c-7.6,0.5-14.9,3.1-21.2,7.4c-1.4,0.9-2.6,2.1-3.4,3.5c-0.4,1.1-0.7,2.4-0.7,3.6
			c-0.3,7.3,1.2,14.5,4.3,21.1c3.4,7.3,9,14.5,7.6,22.6c-0.9,5-4.4,9-7.8,12.8"/>
		<path id="Path_2536" class="st2" d="M2265.9,652.3c0,3.6,0.6,7.2,1.7,10.6c1.2-3.7,0.8-7.7-1.1-11"/>
		<path id="Path_2537" class="st2" d="M2226.2,714.2c10.8,4,22.8,2.5,32.3-3.9"/>
		<path id="Path_2538" class="st2" d="M2282.5,765.3c1.9,41.9,4.3,65.2,10.7,106.7"/>
		<path id="Path_2539" class="st3" d="M2203.8,780.2c8.6,10.1,19.5,18.6,32.4,22.1c12.8,3.4,27.6,1.2,37.4-7.7
			c2.1-1.8,3.7-4,4.8-6.5c1.8-5.1-0.3-10.9,1.1-16.2c-8.2,9.7-20.5,15.5-33,17c-12.6,1.5-25.4-1.1-37-6.1"/>
		<path id="Path_2540" class="st2" d="M2237,825.6c1.6,9.5,1.8,19.1,0.6,28.7"/>
		<path id="Path_2541" class="st2" d="M2150.3,876.8c-42.5,4.7-85.8,9.5-124.8,26.9c-37.4,16.7-69,44.1-90.9,78.7
			c-25.3,40.2-36.1,87.7-43.8,134.7c-6.8,42-11.5,84.4-14,126.9"/>
		<path id="Path_2542" class="st2" d="M2150.7,876c48.5,73.2,89.4,129.1,124.9,209.3c-0.6-38.8,9.4-158.8,17.6-196.1"/>
		<path id="Path_2543" class="st2" d="M2141.4,894.2c-23.8,26-41.1,57.3-50.5,91.2c-1.3,4.8-2.2,11,1.8,14.2
			c2.9,2.3,7.1,1.9,10.8,1.1c19.4-4.2,37.9-14.6,57.6-13c-12.1,13.6-24.2,27.2-36.3,40.8c-3,3.4-6.3,7.6-5.2,12
			c1.3,5.3,7.6,7.2,12.9,8.3c37,7.6,73,34.9,106.9,51.5"/>
		<path id="Path_2544" class="st2" d="M2322.1,889.2c17.2,8.8,32.8,20.3,46.4,33.9c2.2,2.2,4.4,4.8,4.2,7.9c-0.2,2-1.4,3.7-2.7,5.2
			c-18.7,24.1-43.5,44.3-55.2,72.4c8.4,0,16.6,2.1,24,5.9c4,2.1,8.4,5.9,7.4,10.4c-0.4,1.9-1.7,3.4-2.9,4.9
			c-19,22.5-38.1,45-57.2,67.5"/>
		<path id="Path_2545" class="st2" d="M2315.5,861.8c68.8-17.2,133.7-15.4,152.4-8.5c26.8,9.9,48.2,30.1,68.8,49.9
			c52.1,50,104.2,99.9,156.3,150c13.1,12.5,26.6,25.9,32.2,43.2c1.9,6.1,2.7,13.3-1,18.5c-4.8,6.6-14.9,7.1-22.1,3.3
			c-10.3-5.3-16-17-17-28.6c-1.1-11.5,1.7-23,4.4-34.3c17.1-70.2,34.3-140.4,51.5-210.5"/>
		<path id="Path_2546" class="st2" d="M2489.9,1097.3c67,53,136.5,102.6,208.5,148.8c15,9.7,30.4,19.3,47.3,25.2"/>
		<path id="Path_2547" class="st2" d="M2834.6,612.9c6.9-3.9,16.1-0.7,21.2,5.4c5.1,6.1,7,14.2,8.3,22c8.4,52-3.8,104.7-8.8,157.1
			c-10.4,109.4,10.9,220.9-8.8,329"/>
		<path id="Path_2548" class="st2" d="M2745.6,785.3c-2.2-32.8-41.4-52.2-48.5-84.4c-5.9-27.2,13.1-53.4,16.5-81.1
			c0.6-4.4,2.3-10.4,6.8-10c1.3,0.2,2.5,0.8,3.5,1.7c6.4,5.1,8.5,14,8.9,22.2c0.6,13.3-2.1,26.6-7.9,38.6
			c22.4,10.5,39.1,30.1,46,53.8"/>
		<path id="Path_2549" class="st2" d="M2743.4,671.9c3.5-23.6,7-47.5,7.9-71.3c1-29.5-2.2-59.1,0.8-88.4c0.5-4.8,2-10.8,6.8-11.9
			c3.6-0.9,7.2,1.7,9.4,4.6c4.2,5.4,5.8,12.4,7,19.1c3.6,19,5.8,38.2,6.6,57.5"/>
		<path id="Path_2550" class="st2" d="M2810.4,578.5c0.3-6.5-8.5-10.4-14.5-7.7c-6,2.7-9.3,9.1-11.4,15.3c-5.3,15.6-5.9,32.5-6.5,49
			c-0.3,10.1-0.6,20.6,3.5,29.8c0.8,1.7,1.7,3.3,3.3,4c2.7,1.2,5.7-0.8,7.6-3.1c5.4-6.2,7.8-14.3,9.7-22.2
			c4.2-17.7,6.7-35.7,7.4-53.9"/>
		<path id="Path_2551" class="st2" d="M2815.6,576.5c3.2-2.3,7.9-0.8,10.4,2.3s3,7.2,3.3,11.1c1.9,22-1.1,44.1-8.7,64.7
			c-2.7,7.3-6.1,14.5-11.8,20c-1.7,1.6-4.1,3-6,1.8c-0.8-0.6-1.4-1.4-1.8-2.3c-1.5-3-2.7-6.2-3.4-9.5"/>
		<path id="Path_2552" class="st2" d="M2826.7,641.4c-0.7,8.2-0.9,16.5-0.6,24.7c0.1,3.6,0.8,7.9,4,9.4c0.8,0.4,1.8,0.5,2.7,0.2
			c0.8-0.4,1.5-1.1,2-1.8c9.4-12.7,10.6-29.4,11.5-45.2"/>
		<path id="Path_2553" class="st2" d="M2818.2,689.3c-4.6,14.3-6.9,29.1-6.8,44.1"/>
		<path id="Path_2554" class="st2" d="M2730.6,909.1c31,0.3,62,0.8,93-0.8c19.5-0.9,39.3-2.8,57.1-10.5c2.3-1,4.8-2.6,4.8-5
			c-0.1-2.5-2.8-3.9-5-4.8c-9-3.4-18.4-5.4-28-6.1"/>
		<path id="Path_2555" class="st2" d="M2744.1,924.1c26,2.5,52.3,1.3,78-3.6"/>
		<path id="Path_2556" class="st2" d="M2807.3,930.3h12"/>
		<path id="Path_2557" class="st2" d="M2466,1029.9c14.8,47.6,14.6,98.8,8.3,148.3c-6.3,49.5-18.8,98-28,147
			c-4,21.5-6.9,45.5,5.7,63.4"/>
		<path id="Path_2558" class="st2" d="M1987.5,1155.1c6.3,82.5,12.6,164.9,18.9,247.5"/>
		<path id="Path_2559" class="st2" d="M1958.9,1159c2.9,14.2,8.5,27.8,16.5,39.9"/>
		<path id="Path_2560" class="st2" d="M2063.3,1286.5c27.6,3.3,55.8,6.5,82.7-0.2c22.6-5.6,42.9-17.8,64.8-25.8
			c43.9-16.2,92-15.3,138.8-14.1"/>
		<path id="Path_2561" class="st2" d="M2290.3,1265.5c-25.7,7-50.5,17.3-73.7,30.4"/>
		<path id="Path_2562" class="st2" d="M2028.4,1318c15,14.7,26.9,32.3,35.1,51.6"/>
		<path id="Path_2563" class="st2" d="M2038.8,1355.8c3.3,6.5,5.5,13.5,6.7,20.7"/>
		<path id="Path_2564" class="st2" d="M2364.8,1247.2h6.9"/>
		<path id="Path_2565" class="st2" d="M1959,1200.1c3.2,1.8,5.9,4.2,8.1,7.1"/>
		<path id="Path_2566" class="st2" d="M1609.8,1134.8c51-11.1,100.9-27,149-47.5c13.4-5.7,26.9-11.9,37.4-21.9
			c2.8-2.7,5.5-5.9,5.4-9.8c-0.2-3.8-4.9-7.4-7.9-4.9"/>
		<path id="Path_2567" class="st2" d="M1639.8,1153.3c45.7-6.8,90-20.8,131.3-41.5c10.7-5.3,21.6-11.5,28.4-21.4"/>
		<path id="Path_2568" class="st2" d="M1652.2,1172.8c19,69.6,41.7,138.2,67.8,205.4"/>
		<path id="Path_2569" class="st2" d="M1800.2,1111.9l103.5,270.2"/>
		<path id="Path_2570" class="st2" d="M1875.3,1273.1c17.9,25.6,38.4,49.4,61.1,70.9"/>
		<path id="Path_2571" class="st2" d="M1914.8,1298.1c6.3,3.8,12.7,7.5,19,11.4"/>
		<path id="Path_2572" class="st2" d="M1681,944.3c-3.4-17.8-1.8-36.2,4.6-53.2c2-5.2,4.4-10.3,5.5-15.7c1-5.1,0.8-10.3,1.1-15.5
			c0.8-13.4,4.8-26.5,11.8-38c1.2-1.9,2.5-3.9,4.6-4.8c3.8-1.7,8.2,1.1,9.9,4.8c1.8,3.7,1.5,7.9,1.3,12
			c-2.3,37.7-3.1,75.5-0.5,113.2"/>
		<path id="Path_2573" class="st2" d="M1719.5,946.7c13.2,44.1,28.1,86.5,41.3,130.6"/>
		<path id="Path_2574" class="st2" d="M1552.6,820.9c9.4,20.6,16.5,42.3,21.1,64.5c3.5,17.3,5.6,35,11.2,51.7
			c9.4,27.8,28.3,51.6,38.3,79.3c4.7,12.9,7.3,26.5,9.8,40c3.8,20.3,7.7,40.6,11.6,60.9"/>
		<path id="Path_2575" class="st2" d="M1562.5,783c9.8,32.1,21,63.7,33.8,94.9"/>
		<path id="Path_2576" class="st2" d="M1594.1,887.1c20.3-10.8,40.7-21.6,61-32.3"/>
		<path id="Path_2577" class="st2" d="M1619.2,870.5c-9.6-25.9-19.2-51.8-28.9-77.7c-7.2-19.3-14.5-38.9-16.7-59.4
			c-0.4-3.7,0-8.4,3.4-9.5c3.1-1.1,6.1,1.6,8.2,4.1c9.2,11.1,15.4,24.3,21.3,37.4c13.6,30.2,26.3,60.8,38,91.8"/>
		<path id="Path_2578" class="st2" d="M1631.8,824c-8.1-26.5-12.2-53.7-15.5-81.2c-0.7-5.9,0.8-14.3,6.8-14c1.9,0.2,3.6,1,4.9,2.3
			c5.6,4.8,8.4,11.9,11.1,18.8c15,39.8,29.2,79.9,42.4,120.3"/>
		<path id="Path_2579" class="st2" d="M1891.8,878.8c0.1,2.3,2.3,4.3,4.5,4c2.3-0.3,3.7-3.3,2.3-5.2c-1.4-1.8-5-0.7-4.9,1.6
			c0,1.2,1.1,2.1,2.3,2.1c0,0,0.1,0,0.1,0c0.9-0.3,1.5-1.2,1.2-2.2c-0.1-0.2-0.2-0.5-0.4-0.7"/>
		<path id="Path_2580" class="st2" d="M1822.7,1075.5v0.9"/>
		<path id="Path_2581" class="st2" d="M2354.9,510.7c-1.8,0.8-0.3,4.3,1.5,3.4c1.3-1.4-1.5-3.8-2.7-2.3c-0.8,1.3,1.1,3,2.3,2.3
			c1.3-0.8,0.5-3.2-1-3.1"/>
		<path id="Path_2582" class="st2" d="M2610.9,874.2c-0.8-0.3-1.7,0.8-1.3,1.5c0.4,0.8,1.8,0.4,1.9-0.4c1.5-0.8,0.8-3.5-0.9-3.4
			c-1.7,0.1-2.1,2.9-0.5,3.5"/>
		<path id="Path_2583" class="st2" d="M2650,541.3c-21.6,11.3-42.8,23.1-63.8,35.4"/>
		<path id="Path_2584" class="st2" d="M2564.3,589.4l2.6-2.6"/>
		<path id="Path_2585" class="st2" d="M2671.4,559c-18.1,23.4-36.3,46.8-54.5,70.2"/>
		<path id="Path_2586" class="st2" d="M2964.7,538.1c12.4,24.3,22.9,49.6,31.2,75.6"/>
		<path id="Path_2587" class="st2" d="M2996.3,531.4c20.5,14.7,40.3,30.4,59.3,46.9"/>
		<path id="Path_2588" class="st2" d="M3067.7,585.6l1.3,1.3"/>
		<path id="Path_2589" class="st2" d="M3090.6,158.9c23.5-10.3,46.7-21.2,69.6-32.8"/>
		<path id="Path_2590" class="st2" d="M3103.7,186.5c18.8-3,37.7-5.9,56.5-8.9"/>
		<path id="Path_2591" class="st2" d="M2577.3,92.3c14.5,10.4,29,20.7,43.4,31.1"/>
		<path id="Path_2592" class="st2" d="M2551.6,134.5c15.2,4,30.1,9,44.7,15"/>
		<path id="Path_2593" class="st2" d="M2327.6,237.7c-6.9,7.3-13.4,14.9-19.5,22.8"/>
		<g id="Group_319">
			<path id="Path_2594" class="st2" d="M1732.1,478.2c-11.2,16.3-22.3,32.6-33.5,48.8"/>
			<path id="Path_2595" class="st2" d="M1735.8,495.5c-8.9,10.3-17,21.2-24.3,32.7"/>
			<path id="Path_2596" class="st2" d="M1626.6,329.9l-8.1-27.1c-1-3.4-4.2-5.8-7.8-5.8h-127.5c-3.6,0-6.7,2.3-7.8,5.8l-8.1,27.1
				h-26c-5.4,0-9.7,4.3-9.7,9.7V567c0,5.4,4.3,9.7,9.7,9.7H1761c5.4,0,9.7-4.3,9.7-9.7V339.6c0-5.4-4.3-9.7-9.7-9.7H1626.6z"/>
			<path id="Path_2597" class="st4" d="M1785.6,356.9v227.4c0,5.4-4.3,9.7-9.7,9.7h-319.7c-5.4,0-9.7-4.3-9.7-9.7v-7.7h314.5
				c5.4,0,9.7-4.3,9.7-9.7V347.2h5.1C1781.2,347.2,1785.6,351.6,1785.6,356.9z"/>
			<line id="Line_92" class="st2" x1="1431.8" y1="411.7" x2="1770.8" y2="411.7"/>
		</g>
		<g id="Group_320">
			<path id="Path_2598" class="st2" d="M2325.1,257.8c-8.9,10.3-17,21.2-24.3,32.7"/>
			<path id="Path_2599" class="st2" d="M2216,92.2l-8.1-27.1c-1-3.4-4.2-5.8-7.8-5.8h-127.5c-3.6,0-6.7,2.3-7.8,5.8l-8.1,27.1h-26
				c-5.4,0-9.7,4.3-9.7,9.7v227.4c0,5.4,4.3,9.7,9.7,9.7h319.6c5.4,0,9.7-4.3,9.7-9.7V101.9c0-5.4-4.3-9.7-9.7-9.7H2216z"/>
			<path id="Path_2600" class="st4" d="M2375,119.3v227.4c0,5.4-4.3,9.7-9.7,9.7h-319.6c-5.4,0-9.7-4.3-9.7-9.7v-7.6h314.5
				c5.4,0,9.7-4.3,9.7-9.7V109.6h5.1C2370.7,109.6,2375,113.9,2375,119.3z"/>
			<line id="Line_93" class="st2" x1="2021.1" y1="174.1" x2="2360.2" y2="174.1"/>
		</g>
		<g id="Group_322">
			<g id="Group_321">
				<path id="Path_2601" class="st2" d="M2979.7,214.3v-46.1c0-5.4-4.3-9.7-9.7-9.7h-134.5l-8.1-27.1c-1-3.4-4.2-5.8-7.8-5.8h-127.5
					c-3.6,0-6.7,2.3-7.8,5.8l-8.1,27.1h-26c-5.4,0-9.7,4.3-9.7,9.7v92.4"/>
				<line id="Line_94" class="st2" x1="2640.7" y1="231.7" x2="2709" y2="231.7"/>
				<line id="Line_95" class="st2" x1="2722.3" y1="231.7" x2="2731.8" y2="231.7"/>
			</g>
			<line id="Line_96" class="st2" x1="2979.7" y1="223.3" x2="2979.7" y2="229.1"/>
		</g>
		<path id="Path_2602" class="st2" d="M2152.1,866.7c2.1-8.3,3.6-16.8,4.4-25.3"/>
	</g>
	<g id="color_outline">
		<g id="Group_323">
			<path id="Path_2603" class="st5" d="M2221.6,548.8c-17.2,12.7-34.8,25.7-47.2,43.2s-19,40.4-12,60.7c3.5,10.2,10.4,19.3,11.8,30
				c3,22.5-18.4,44.3-11.7,66c3.3,10.6,12.6,18.3,16.9,28.6c6.6,16-0.6,34.3-9.5,49"/>
			<path id="Path_2604" class="st5" d="M2008.3,816.2c12,8.2,26.7,11.7,41.1,9.8c9.4-1.3,18.3-4.8,27.6-6.7
				c9.3-1.8,19.6-1.6,27.3,3.8c3.3,2.3,6,5.6,9.3,8.1c7.7,5.6,17.8,6.5,26.3,2.4"/>
			<path id="Path_2605" class="st5" d="M2210,515.7c-49-7.1-100.9,10.9-135,46.9c-17.9,18.9-31.3,44.2-28.6,70.1
				c1.3,11.4,5.5,23.4,1.5,34.2c-4.7,12.5-18.5,18.5-29.7,25.6c-14,8.9-25.9,21.8-30.6,37.7c-2.2,7.4-2.3,16.2,3,21.7
				c4.5,4.6,12.1,5.8,15.5,11.2c2.7,4.3,1.8,9.9-0.5,14.4s-5.9,8-9.1,11.9c-7.1,8.9-11.9,20.8-8.4,31.6"/>
			<path id="Path_2606" class="st5" d="M2046.8,694.6c-11.5,11.3-19.2,25.9-22.1,41.8c-1.3,6.9-0.9,15.3,4.8,19.5
				c4.3,3.3,11.2,3.3,13.8,8.1c1.6,3,0.8,6.8-0.8,9.7c-1.7,2.9-4.3,5.3-6.4,7.9c-4.4,5.3-7.3,11.6-8.4,18.4"/>
			<path id="Path_2607" class="st5" d="M2059.7,767.7c-6.9,11.7-9,25.5-6,38.7"/>
			<path id="Path_2608" class="st5" d="M2190.5,549.8c-23,20.5-39.6,47.1-48,76.7c-4.1,14.5-5.7,31.2,3.1,43.5
				c4.5,6.3,11.6,11.2,12.8,18.8c1,6.3-2.3,12.4-5.9,17.6c-6.3,9.1-13.7,17.5-18.7,27.4s-7.4,21.8-3,32c5.4,12.4,20.4,21.5,19.2,35"
				/>
			<path id="Path_2609" class="st5" d="M2132.2,709.5c-5.9,6.9-10.2,15.1-12.4,23.9"/>
			<path id="Path_2610" class="st5" d="M2210.9,517.3c3.3,5.8,5.6,12,6.9,18.5"/>
			<path id="Path_2611" class="st5" d="M2292.5,804.1c9.9-8,22.7-11.3,35.2-9.3c6.7,1.2,13,3.8,19.8,4.8
				c11.7,1.5,23.4-2.4,31.8-10.5"/>
			<path id="Path_2612" class="st5" d="M2335.7,656.4c8.4,4,10,15.5,7.9,24.5c-2.2,9-6.9,17.5-7.3,26.8c-0.1,3.3,0.4,6.8,2.3,9.4
				c5.5,7.5,18,4.2,25.6,9.4c5.6,3.8,7.4,11.6,5.9,18.3c-1.4,6.7-5.3,12.4-9.2,18"/>
			<path id="Path_2613" class="st5" d="M2349.5,747.9c0.8,8.3-1.1,16.7-5.5,23.8"/>
			<path id="Path_2614" class="st5" d="M2329.4,767.3l-3.3,4.8"/>
			<path id="Path_2615" class="st5" d="M2081,574.1c-5.7,6.7-10.3,14.3-13.6,22.4"/>
			<path id="Path_2616" class="st5" d="M2198.7,542.8c2.2-2.3,5-4,8-4.8"/>
			<path id="Path_2617" class="st5" d="M2189.2,484c7.8,5.8,14,13.6,18,22.5"/>
			<path id="Path_2618" class="st5" d="M2215.1,505.1c0.3-7.9,2.6-15.6,6.7-22.4"/>
			
				<rect id="Rectangle_20" x="2654.4" y="233.7" transform="matrix(-0.9726 0.2323 -0.2323 -0.9726 5632.3315 37.6135)" class="st6" width="319.1" height="233.5"/>
			<path id="Path_2619" class="st6" d="M2633.4,303.4l-60.7,23.6l60.7,156.4l41.4-16.1"/>
			<path id="Path_2620" class="st6" d="M2944.5,447.2l78.9,16.5l42.5-203.2l-105.4-22.1"/>
			<circle id="Ellipse_23" class="st6" cx="2845.1" cy="272.2" r="31.2"/>
			<path id="Path_2621" class="st6" d="M2679,471.5l61-149.1l145.2,127.9"/>
			<path id="Path_2622" class="st6" d="M2840.9,411.2l44.4-74.6l108.2,77.8"/>
			<path id="Path_2623" class="st6" d="M2211.2,516.6c18.2-7.8,40.4-1.3,54.9,12.3s22.1,33.1,25.6,52.6c2.1,11.7,3.2,24.2,10.4,33.6
				c7.6,9.9,20.2,14,31.7,18.8c11.5,4.8,23.6,11.9,27,23.9c3.3,11.7-3,23.8-4,35.8c-0.3,3.3-0.2,6.6,1.2,9.6c4,8.9,16,10.1,24,15.5
				c9.5,6.4,13.1,19.1,11.8,30.6s-6.6,21.9-11.9,32.1"/>
		</g>
	</g>
</g>
</svg>
